<svg enable-background="new 0 0 109.8 26.6" version="1.1" viewBox="0 0 109.8 26.6" xml:space="preserve" xmlns="http://www.w3.org/2000/svg">
<path d="m73.7 20.2c-0.6 0.3-1.7 0.5-2.8 0.5-2.5 0-3.4-1.3-3.4-3.3v-8.2h-1.6v-2.9h1.6v-3.6l3.4-0.4v4.1h2.9l-0.1 2.9h-2.8v7.7c0 0.6 0.3 1 1.1 1 0.5 0 1-0.1 1.4-0.2l0.3 2.4zm2.1-19.6h3.4v3.9h-3.4v-3.9zm0 5.7h3.4v14h-3.4v-14zm18.8 14.1v-10.2c0-0.7-0.4-1.1-1.2-1.1-0.7 0-1.3 0.2-1.9 0.5v10.8h-3.4v-10.2c0-0.7-0.4-1.1-1.2-1.1-0.7 0-1.4 0.2-1.9 0.5v10.8h-3.4v-14h2.8l0.3 1c0.8-0.8 2.2-1.3 3.6-1.3 1.3 0 2.2 0.4 2.7 1.3 0.9-0.7 2.3-1.3 3.7-1.3 2 0 3.1 0.9 3.1 3v11.3h-3.2zm8.8-5.8v1.1c0 1.6 0.7 2.3 2.5 2.3 1.2 0 2.4-0.2 3.4-0.6l0.5 2.5c-1.3 0.5-2.9 0.7-4.4 0.7-3.5 0-5.3-1.7-5.3-5v-4.6c0-3.2 1.9-5 5-5 3.5 0 4.7 1.8 4.7 4.9v3.6h-6.4zm3.3-4.1c0-1.2-0.4-1.8-1.6-1.8s-1.7 0.6-1.7 1.8v1.6h3.3v-1.6zm-83.8 10.2c-1.1 0-2.8-0.2-4-0.6l0.5-2.6c1 0.3 2 0.6 3.2 0.6 1.3 0 1.8-0.4 1.8-1.4 0-1.1-0.3-1.2-1.9-1.7-3.1-1-3.7-1.9-3.7-4.6 0-3 1.7-4.2 4.8-4.2 1.4 0 2.7 0.2 3.7 0.6l-0.4 2.6c-0.9-0.3-2-0.6-3.1-0.6-1.2 0-1.7 0.3-1.7 1.4 0 1 0.3 1.1 1.8 1.6 2.9 0.9 3.8 1.5 3.8 4.5 0 2.7-1.5 4.4-4.8 4.4m13.2-0.3v-10.2c0-0.7-0.4-1.1-1.2-1.1s-1.5 0.2-2 0.5v10.8h-3.4v-19.9l3.4-0.5v7.2c0.9-0.7 2.3-1.2 3.5-1.2 2 0 3.1 0.9 3.1 3v11.3h-3.4zm16.3-4.5c0 2.9-1.8 4.7-5.3 4.7-3.4 0-5.2-1.8-5.2-4.7v-5.2c0-2.9 1.8-4.7 5.2-4.7s5.3 1.8 5.3 4.7v5.2zm-3.4-5.5c0-1.2-0.7-1.7-1.9-1.7s-1.9 0.5-1.9 1.7v5.9c0 1.2 0.7 1.7 1.9 1.7s1.9-0.5 1.9-1.7v-5.9zm15.6 5.9c0 3.1-1.7 4.3-4.3 4.3-0.9 0-1.9-0.2-2.5-0.4v5.8l-3.4 0.5v-20.2h2.6l0.3 1c0.8-0.7 2-1.3 3.6-1.3 2.5 0 3.7 1.3 3.7 4v6.3zm-3.3-6c0-0.9-0.4-1.4-1.3-1.4s-1.6 0.2-2.2 0.6v8.2c0.5 0.2 1.1 0.2 1.6 0.2 1.3 0 1.9-0.5 1.9-1.7v-5.9z" stroke-width="0"/>
<polygon points="15.2 6.4 15.2 13.4 7.9 20.4 0.6 20.4" stroke-width="0"/>
<polygon points="0.6 6.4 7.9 6.4 0.6 13.4" stroke-width="0"/>
<rect x=".6" y="6.4" width="14.5" height="14" fill="none" stroke-miterlimit="10"/>
</svg>
