<svg width="1792" height="1792" viewBox="0 0 1792 1792" xmlns="http://www.w3.org/2000/svg">
  <rect fill="#670dd1" width="1792" height="1792" />
  <path fill="#fcee45" d="M 1275.1,295.69997 911.79999,417.19996 c -8.5,0 -24.29999,0 -32.79999,0 L 516.89999,288.39997 c -8.5,0 -15.8,0 -15.8,14.6 V 1358.9999 c 0,7.3 8.5,15.8 15.8,23.1 l 363.3,121.5001 c 8.5,0 24.3,0 32.8,0 L 1275.1,1382.0999 c 8.5,0 15.8,-15.8 15.8,-23.1 V 302.99997 c 0,-7.3 -8.5,-14.6 -15.8,-7.3 z m -121.5,698.69996 v 7.29997 c 0,106.9 -55.9,167.7 -227.20001,184.7 v 106.9 l 97.20001,-68.1 c 15.8,-7.3 24.3,-7.3 24.3,23.1 0,23.1 0,38.9 -15.8,46.2 l -97.20001,75.3 c -15.79999,8.5 -24.29999,15.8 -40.1,15.8 H 879 c -15.8,0 -24.3,0 -40.10001,-15.8 l -97.2,-75.3 c -15.8,-8.5 -15.8,-23.1 -15.8,-46.2 0,-30.4 8.5,-38.9 24.3,-23.1 l 97.2,68.1 v -106.9 c -64.39999,0 -121.5,-8.5 -161.6,-23.1 -40.1,-15.7 -55.9,-38.8 -55.9,-83.8 v -53.5 c 0,-23.1 15.8,-30.39997 64.4,-30.39997 55.9,0 64.4,7.29997 64.4,30.39997 v 53.4 c 47.4,7.3 96,14.6 144.6,14.6 104.50001,0 137.30001,-30.3 137.30001,-83.8 0,-46.09993 -24.3,-67.99993 -144.6,-83.79993 l -72.9,-8.5 c -120.3,-7.3 -193.20001,-52.3 -193.20001,-159.2 v -7.3 c 0,-114.2 72.9,-166.50001 217.5,-175.00001 v -68.1 c 0,-14.6 15.8,-14.6 48.60001,-14.6 32.79999,0 48.6,0 48.6,14.6 v 68.1 c 55.9,0 104.5,8.5 144.6,23.1 48.6,14.50001 64.4,37.60001 64.4,75.30001 v 46.2 c 0,23.1 -15.8,30.4 -64.4,30.4 -48.6,0 -64.4,-7.3 -64.4,-30.4 v -37.7 c -40.10001,-7.3 -80.20001,-14.6 -128.80001,-14.6 -113,0 -137.3,21.8 -137.3,75.3 0,37.7 17,53.5 137.3,68.1 l 55.9,7.3 C 1105,835.19997 1169.4,895.99997 1153.6,994.39993 Z" />
</svg>
