<svg width="400" height="400" viewBox="0 0 455.731 455.731" xml:space="preserve" xmlns="http://www.w3.org/2000/svg">
  <path d="m0 0v455.73h455.73v-455.73h-455.73zm361.27 163.94c0.104 2.676 0.161 5.362 0.161 8.067 0 108.34-87.831 196.18-196.18 196.18-38.568 0-74.545-11.132-104.88-30.368-7e-3 -1e-3 -0.014-2e-3 -0.02-3e-3l0.02 3e-3c59.293 8.843 101.06-28.888 101.06-28.888-52.832-4.109-63.271-48.077-63.271-48.077 18.667 3.16 30.368-1.272 30.368-1.272-59.465-13.912-54.407-68.329-54.407-68.329 13.77 8.228 29.733 8.864 29.733 8.864-52.509-46.188-19.607-91.105-19.607-91.105 55.052 66.668 135.98 71.204 141.29 71.423-1.167-5.011-1.784-10.23-1.784-15.592 0-37.998 30.814-68.803 68.841-68.803 19.825 0 37.685 8.37 50.25 21.78 3.483-0.977 6.861-2.031 10.088-3.103 19.493-6.501 33.415-13.932 33.415-13.932-3.359 20.129-28.176 37.021-29.951 38.207-0.066 0.047-0.104 0.066-0.104 0.066 0.038 0 0.085-9e-3 0.123-9e-3 19.265-1.927 38.948-10.107 38.948-10.107-5.94 12.487-30.178 31.913-34.097 34.998z"/>
</svg>
