<svg version="1.1" id="Capa_1" xmlns="http://www.w3.org/2000/svg" xmlns:xlink="http://www.w3.org/1999/xlink" x="0px" y="0px"
	 viewBox="0 0 484 484" style="enable-background:new 0 0 484 484;" xml:space="preserve">
<path style="fill:#02B3A9;" d="M441.9,209.2l-15-154.7c-0.7-7.6-6.8-13.7-14.4-14.4l-154.7-15c-4.8-0.5-9.5,1.2-12.9,4.6L12.7,262
	c-6.2,6.2-6.2,16.4,0,22.6l169.7,169.7c6.2,6.2,16.4,6.3,22.6,0c0,0,0,0,0,0l11.3-11.3l220.9-220.9
	C440.6,218.7,442.3,214,441.9,209.2L441.9,209.2z M29.7,267.6L41,279L29.7,267.6z M52.3,290.3l11.3,11.3L52.3,290.3z M74.9,312.9
	l11.3,11.3L74.9,312.9z M97.5,335.5l11.3,11.3L97.5,335.5z M120.2,358.2l11.3,11.3L120.2,358.2z M142.8,380.8l11.3,11.3L142.8,380.8
	z M148.4,318.6l17-17L148.4,318.6z M165.4,403.4l11.3,11.3L165.4,403.4z M188,426l11.3,11.3L188,426z M278.6,245
	c22.2-22.2,12.8-64.2-28.3-69.7c-41.1,5.6-50.5,47.5-28.3,69.7s12.8,64.2-28.3,69.7c-41.1-5.6-50.5-47.5-28.3-69.7
	c-22.2,22.2-12.8,64.2,28.3,69.7c41.1-5.6,50.5-47.5,28.3-69.7s-12.8-64.2,28.3-69.7C291.4,180.8,300.8,222.8,278.6,245z
	 M278.6,188.4l17-17L278.6,188.4z M374.8,140.3c-12.5,12.5-32.8,12.5-45.3,0s-12.5-32.8,0-45.3c12.5-12.5,32.8-12.5,45.3,0
	c0,0,0,0,0,0C387.3,107.6,387.3,127.8,374.8,140.3z"/>
<path style="fill:#2F827A;" d="M458.9,94.5c-0.8-7.6-6.8-13.6-14.4-14.4l-15.4-2.4l12.7,131.5c0.4,4.8-1.3,9.5-4.6,12.9L217.7,441.6l12.7,12.7
	c6.2,6.3,16.4,6.3,22.6,0c0,0,0,0,0,0l11.3-11.4l205-204.9c3.4-3.4,5.1-8.1,4.6-12.9L458.9,94.5z"/>
<g>
	<path style="fill:#212529;" d="M24,273.3L35.3,262l11.3,11.3l-11.3,11.3L24,273.3z"/>
	<path style="fill:#212529;" d="M159.8,409.1l11.3-11.3l11.3,11.3l-11.3,11.3L159.8,409.1z"/>
	<path style="fill:#212529;" d="M182.4,431.7l11.3-11.3l11.3,11.3L193.7,443L182.4,431.7z"/>
	<path style="fill:#212529;" d="M323.9,89.4c-15.6,15.6-15.6,40.9,0,56.6s41,15.6,56.6,0c15.6-15.6,15.6-40.9,0-56.6
		c-15.4-15.6-40.6-15.8-56.2-0.4C324.2,89.2,324.1,89.3,323.9,89.4z M369.2,134.7c-9.4,9.4-24.6,9.4-33.9,0
		c-9.4-9.4-9.4-24.6,0-33.9s24.6-9.4,33.9,0c4.5,4.5,7,10.6,7,17C376.2,124.1,373.7,130.2,369.2,134.7z"/>
	<path style="fill:#212529;" d="M289.9,165.8L278,177.7c-7.9-5.6-17.1-9.1-26.7-10.3l-1.1-0.1l-1.1,0.1c-20.1,1.8-37.4,15-44.4,34
		c-5.9,17.3-1.4,36.4,11.5,49.3c8.6,8.6,11.6,21.4,7.7,32.9c-4.8,12.9-16.6,21.9-30.3,23.1c-13.7-1.2-25.5-10.2-30.3-23.1
		c-3.9-11.5-0.9-24.3,7.7-32.9l-11.3-11.3c-13,12.9-17.5,32-11.6,49.3c1.5,4.4,3.7,8.6,6.4,12.4l-11.8,11.8l11.3,11.3l11.9-11.9
		c7.9,5.6,17.1,9.1,26.6,10.3l1.1,0.1l1.1-0.1c20.1-1.8,37.4-15,44.4-34c5.9-17.3,1.4-36.4-11.5-49.3c-8.6-8.6-11.6-21.4-7.7-32.9
		c4.8-12.9,16.6-21.9,30.3-23.1c13.7,1.2,25.5,10.2,30.3,23.1c3.9,11.5,1,24.3-7.7,32.9l11.3,11.3c16.6-16.5,18.8-42.7,5.2-61.7
		l11.8-11.8L289.9,165.8z"/>
	<path style="fill:#212529;" d="M46.6,295.9l11.3-11.3l11.3,11.3l-11.3,11.3L46.6,295.9z"/>
	<path style="fill:#212529;" d="M69.3,318.5l11.3-11.3l11.3,11.3l-11.3,11.3L69.3,318.5z"/>
	<path style="fill:#212529;" d="M91.9,341.2l11.3-11.3l11.3,11.3l-11.3,11.3L91.9,341.2z"/>
	<path style="fill:#212529;" d="M114.5,363.8l11.3-11.3l11.3,11.3l-11.3,11.3L114.5,363.8z"/>
	<path style="fill:#212529;" d="M137.1,386.4l11.3-11.3l11.3,11.3l-11.3,11.3L137.1,386.4z"/>
	<path style="fill:#212529;" d="M474.2,93.7c-0.9-11.6-10-20.9-21.6-22l-16.2-1.6l-1.6-16.4c-1.1-11.4-10.2-20.5-21.6-21.6L258.6,17.2
		c-7.1-0.7-14.2,1.8-19.3,6.9L7,256.3c-9.4,9.4-9.4,24.6,0,33.9c0,0,0,0,0,0L176.7,460c9.4,9.4,24.6,9.4,33.9,0c0,0,0,0,0,0l5.7-5.7
		l5.7,5.7c9.4,9.4,24.6,9.4,33.9,0L477,238.9c5-5,7.5-11.8,7-18.8L474.2,93.7z M188,448.7L18.3,279c-3.1-3.1-3.1-8.2,0-11.3
		c0,0,0,0,0,0L250.6,35.4c1.5-1.5,3.5-2.3,5.6-2.4h0.8l154.7,15.1c3.8,0.4,6.8,3.4,7.2,7.2l15,154.7c0.2,2.4-0.6,4.7-2.3,6.4
		L199.4,448.7C196.2,451.8,191.2,451.8,188,448.7C188.1,448.7,188,448.7,188,448.7L188,448.7z M465.7,227.6L244.6,448.7
		c-3.1,3.1-8.2,3.1-11.3,0l-5.7-5.7l215.3-215.3c5.1-5.1,7.6-12.1,6.9-19.3L438,86.4l13.1,1.3c3.9,0.4,6.9,3.5,7.2,7.4l9.7,126.3
		C468.2,223.6,467.3,225.9,465.7,227.6L465.7,227.6z"/>
</g>
</svg>
