<svg enable-background="new 0 0 484 484" version="1.1" viewBox="0 0 484 484" xml:space="preserve" xmlns="http://www.w3.org/2000/svg">
<path d="m441.9 209.2l-15-154.7c-0.7-7.6-6.8-13.7-14.4-14.4l-154.7-15c-4.8-0.5-9.5 1.2-12.9 4.6l-232.2 232.3c-6.2 6.2-6.2 16.4 0 22.6l169.7 169.7c6.2 6.2 16.4 6.3 22.6 0l11.3-11.3 220.9-220.9c3.4-3.4 5.1-8.1 4.7-12.9zm-412.2 58.4l11.3 11.4-11.3-11.4zm22.6 22.7l11.3 11.3-11.3-11.3zm22.6 22.6l11.3 11.3-11.3-11.3zm22.6 22.6l11.3 11.3-11.3-11.3zm22.7 22.7l11.3 11.3-11.3-11.3zm22.6 22.6l11.3 11.3-11.3-11.3zm5.6-62.2l17-17-17 17zm17 84.8l11.3 11.3-11.3-11.3zm22.6 22.6l11.3 11.3-11.3-11.3zm90.6-181c22.2-22.2 12.8-64.2-28.3-69.7-41.1 5.6-50.5 47.5-28.3 69.7s12.8 64.2-28.3 69.7c-41.1-5.6-50.5-47.5-28.3-69.7-22.2 22.2-12.8 64.2 28.3 69.7 41.1-5.6 50.5-47.5 28.3-69.7s-12.8-64.2 28.3-69.7c41.1 5.5 50.5 47.5 28.3 69.7zm0-56.6l17-17-17 17zm96.2-48.1c-12.5 12.5-32.8 12.5-45.3 0s-12.5-32.8 0-45.3 32.8-12.5 45.3 0c12.5 12.6 12.5 32.8 0 45.3z" fill="#02B3A9"/>
<path d="m458.9 94.5c-0.8-7.6-6.8-13.6-14.4-14.4l-15.4-2.4 12.7 131.5c0.4 4.8-1.3 9.5-4.6 12.9l-219.5 219.5 12.7 12.7c6.2 6.3 16.4 6.3 22.6 0l11.3-11.4 205-204.9c3.4-3.4 5.1-8.1 4.6-12.9l-15-130.6z" fill="#2F827A"/>
<path d="m24 273.3l11.3-11.3 11.3 11.3-11.3 11.3-11.3-11.3zm135.8 135.8l11.3-11.3 11.3 11.3-11.3 11.3-11.3-11.3zm22.6 22.6l11.3-11.3 11.3 11.3-11.3 11.3-11.3-11.3zm141.5-342.3c-15.6 15.6-15.6 40.9 0 56.6s41 15.6 56.6 0 15.6-40.9 0-56.6c-15.4-15.6-40.6-15.8-56.2-0.4-0.1 0.2-0.2 0.3-0.4 0.4zm45.3 45.3c-9.4 9.4-24.6 9.4-33.9 0-9.4-9.4-9.4-24.6 0-33.9s24.6-9.4 33.9 0c4.5 4.5 7 10.6 7 17 0 6.3-2.5 12.4-7 16.9zm-79.3 31.1l-11.9 11.9c-7.9-5.6-17.1-9.1-26.7-10.3l-1.1-0.1-1.1 0.1c-20.1 1.8-37.4 15-44.4 34-5.9 17.3-1.4 36.4 11.5 49.3 8.6 8.6 11.6 21.4 7.7 32.9-4.8 12.9-16.6 21.9-30.3 23.1-13.7-1.2-25.5-10.2-30.3-23.1-3.9-11.5-0.9-24.3 7.7-32.9l-11.3-11.3c-13 12.9-17.5 32-11.6 49.3 1.5 4.4 3.7 8.6 6.4 12.4l-11.8 11.8 11.3 11.3 11.9-11.9c7.9 5.6 17.1 9.1 26.6 10.3l1.1 0.1 1.1-0.1c20.1-1.8 37.4-15 44.4-34 5.9-17.3 1.4-36.4-11.5-49.3-8.6-8.6-11.6-21.4-7.7-32.9 4.8-12.9 16.6-21.9 30.3-23.1 13.7 1.2 25.5 10.2 30.3 23.1 3.9 11.5 1 24.3-7.7 32.9l11.3 11.3c16.6-16.5 18.8-42.7 5.2-61.7l11.8-11.8-11.2-11.3zl-11.9 11.9c-7.9-5.6-17.1-9.1-26.7-10.3l-1.1-0.1-1.1 0.1c-20.1 1.8-37.4 15-44.4 34-5.9 17.3-1.4 36.4 11.5 49.3 8.6 8.6 11.6 21.4 7.7 32.9-4.8 12.9-16.6 21.9-30.3 23.1-13.7-1.2-25.5-10.2-30.3-23.1-3.9-11.5-0.9-24.3 7.7-32.9l-11.3-11.3c-13 12.9-17.5 32-11.6 49.3 1.5 4.4 3.7 8.6 6.4 12.4l-11.8 11.8 11.3 11.3 11.9-11.9c7.9 5.6 17.1 9.1 26.6 10.3l1.1 0.1 1.1-0.1c20.1-1.8 37.4-15 44.4-34 5.9-17.3 1.4-36.4-11.5-49.3-8.6-8.6-11.6-21.4-7.7-32.9 4.8-12.9 16.6-21.9 30.3-23.1 13.7 1.2 25.5 10.2 30.3 23.1 3.9 11.5 1 24.3-7.7 32.9l11.3 11.3c16.6-16.5 18.8-42.7 5.2-61.7l11.8-11.8-11.2-11.3zl-11.9 11.9c-7.9-5.6-17.1-9.1-26.7-10.3l-1.1-0.1-1.1 0.1c-20.1 1.8-37.4 15-44.4 34-5.9 17.3-1.4 36.4 11.5 49.3 8.6 8.6 11.6 21.4 7.7 32.9-4.8 12.9-16.6 21.9-30.3 23.1-13.7-1.2-25.5-10.2-30.3-23.1-3.9-11.5-0.9-24.3 7.7-32.9l-11.3-11.3c-13 12.9-17.5 32-11.6 49.3 1.5 4.4 3.7 8.6 6.4 12.4l-11.8 11.8 11.3 11.3 11.9-11.9c7.9 5.6 17.1 9.1 26.6 10.3l1.1 0.1 1.1-0.1c20.1-1.8 37.4-15 44.4-34 5.9-17.3 1.4-36.4-11.5-49.3-8.6-8.6-11.6-21.4-7.7-32.9 4.8-12.9 16.6-21.9 30.3-23.1 13.7 1.2 25.5 10.2 30.3 23.1 3.9 11.5 1 24.3-7.7 32.9l11.3 11.3c16.6-16.5 18.8-42.7 5.2-61.7l11.8-11.8-11.2-11.3zm-243.3 130.1l11.3-11.3 11.3 11.3-11.3 11.3-11.3-11.3zm22.7 22.6l11.3-11.3 11.3 11.3-11.3 11.3-11.3-11.3zm22.6 22.7l11.3-11.3 11.3 11.3-11.3 11.3-11.3-11.3zm22.6 22.6l11.3-11.3 11.3 11.3-11.3 11.3-11.3-11.3zm22.6 22.6l11.3-11.3 11.3 11.3-11.3 11.3-11.3-11.3zm337.1-292.7c-0.9-11.6-10-20.9-21.6-22l-16.2-1.6-1.6-16.4c-1.1-11.4-10.2-20.5-21.6-21.6l-154.6-14.9c-7.1-0.7-14.2 1.8-19.3 6.9l-232.3 232.2c-9.4 9.4-9.4 24.6 0 33.9l169.7 169.8c9.4 9.4 24.6 9.4 33.9 0l5.7-5.7 5.7 5.7c9.4 9.4 24.6 9.4 33.9 0l221.1-221.1c5-5 7.5-11.8 7-18.8l-9.8-126.4zm-286.2 355l-169.7-169.7c-3.1-3.1-3.1-8.2 0-11.3l232.3-232.3c1.5-1.5 3.5-2.3 5.6-2.4h0.8l154.7 15.1c3.8 0.4 6.8 3.4 7.2 7.2l15 154.7c0.2 2.4-0.6 4.7-2.3 6.4l-232.2 232.3c-3.2 3.1-8.2 3.1-11.4 0 0.1 0 0 0 0 0zm277.7-221.1l-221.1 221.1c-3.1 3.1-8.2 3.1-11.3 0l-5.7-5.7 215.3-215.3c5.1-5.1 7.6-12.1 6.9-19.3l-11.8-122 13.1 1.3c3.9 0.4 6.9 3.5 7.2 7.4l9.7 126.3c0.2 2.2-0.7 4.5-2.3 6.2z" fill="#212529"/>
</svg>
