<?xml version="1.0" encoding="UTF-8"?>
<svg width="84px" height="70px" viewBox="0 0 84 70" version="1.1" xmlns="http://www.w3.org/2000/svg" xmlns:xlink="http://www.w3.org/1999/xlink">
    <!-- Generator: Sketch 51.3 (57544) - http://www.bohemiancoding.com/sketch -->
    <title>icon_erro</title>
    <desc>Created with Sketch.</desc>
    <defs>
        <polygon id="path-1" points="0.0090611413 0.0977246086 77.3217391 0.0977246086 77.3217391 71.3207547 0.0090611413 71.3207547"></polygon>
    </defs>
    <g id="Page-1" stroke="none" stroke-width="1" fill="none" fill-rule="evenodd">
        <g id="icon_erro" transform="translate(2.000000, 1.000000)">
            <g>
                <g id="Group-6" transform="translate(1.000000, 0.000000)">
                    <mask id="mask-2" fill="white">
                        <use xlink:href="#path-1"></use>
                    </mask>
                    <g id="Clip-3"></g>
                </g>
                <path d="M39.9349614,1 C37.6592736,1 35.5136251,2.4249264 33.8231141,5.08047105 L1.50834708,57.155054 C-0.117144224,59.7458292 -0.442242484,62.2718351 0.598234497,64.1501472 C1.63838638,66.0284593 3.9140742,67 6.96999784,67 L73.0299643,67 C76.0858879,67 78.3615757,65.9636899 79.4018901,64.1501472 C80.4422046,62.3366045 80.1171063,59.7458292 78.491615,57.155054 L53.9792062,17.7105005 L51.7687006,14.1481845 L46.0469712,5.01570167 C44.3562977,2.4249264 42.2106492,1 39.9349614,1 Z" id="Path" stroke="#243346" stroke-width="3" fill="#E51414"></path>
                <path d="M36,22.7954265 L36,39.2045735 C36,41.2920205 37.7998653,43 40,43 C42.2001347,43 44,41.2921709 44,39.2045735 L44,22.7954265 C44,20.7079795 42.2001347,19 40,19 C37.8000238,19 36,20.7079795 36,22.7954265" id="Fill-1" fill="#FFFFFF"></path>
                <path d="M41.8780156,38.702032 C41.8780156,39.9650282 40.8112335,40.9927161 39.5001561,40.9927161 C38.1890787,40.9927161 37.1222966,39.9650282 37.1222966,38.702032 L37.1222966,22.297968 C37.1222966,21.0349718 38.1890787,20.0072839 39.5001561,20.0072839 C40.8112335,20.0072839 41.8780156,21.0349718 41.8780156,22.297968 L41.8780156,38.702032 Z M39.5,17 C36.4673043,17 34,19.376688 34,22.297968 L34,38.702032 C34,41.623312 36.4673043,44 39.5,44 C42.5326957,44 45,41.623312 45,38.702032 L45,22.297968 C45.0001561,19.376688 42.5326957,17 39.5,17 Z" id="Fill-7" fill="#243346"></path>
                <path d="M39,49 C41.2091871,49 43,50.7908129 43,53 C43,55.2091871 41.2091871,57 39,57 C36.7908129,57 35,55.2091871 35,53 C35,50.7908129 36.7908129,49 39,49" id="Fill-2" fill="#FFFFFF"></path>
                <path d="M39.5,54.8780156 C38.1889226,54.8780156 37.1221405,53.8113896 37.1221405,52.5001561 C37.1221405,51.1890787 38.1889226,50.1222966 39.5,50.1222966 C40.8110774,50.1222966 41.8778595,51.1890787 41.8778595,52.5001561 C41.8780156,53.8113896 40.8112335,54.8780156 39.5,54.8780156 Z M39.5,47 C36.4673043,47 34,49.4673043 34,52.5 C34,55.5326957 36.4673043,58 39.5,58 C42.5326957,58 45,55.5326957 45,52.5 C45.0001561,49.4674604 42.5326957,47 39.5,47 Z" id="Fill-8" fill="#243346"></path>
            </g>
        </g>
    </g>
</svg>