<?xml version="1.0" encoding="utf-8"?>
<!-- Generator: Adobe Illustrator 22.1.0, SVG Export Plug-In . SVG Version: 6.00 Build 0)  -->
<svg version="1.1" xmlns="http://www.w3.org/2000/svg" xmlns:xlink="http://www.w3.org/1999/xlink" x="0px" y="0px"
	 viewBox="0 0 47.7 59.3" style="enable-background:new 0 0 47.7 59.3;" xml:space="preserve">
<path class="st0" d="M13.7,48.1c-2.1-2.3-4.1-4.8-5.4-7.7c-1.3-3.1-1.7-6.7-1-10s2.2-6.6,4.3-9.3c-0.2,2.3,0.7,4.8,2.2,6.6
	c-0.9-4.5,0.6-9.4,3.6-12.9s7.1-5.9,11.4-7.5c-2.2,2.2-2.4,5.8-1.6,8.8c0.8,3,2.6,5.6,4.2,8.3c1.6,2.7,3.1,5.5,3.2,8.6
	c0.8-1.6,1.8-3.2,2.3-5c0.6-1.8,0.8-3.7,0.4-5.4c1.7,2.1,2.6,4.1,3.1,6.7s0.4,5.3,0.1,8c-0.4,2.9-1.1,5.9-2.7,8.3
	c-1.9,2.9-4.9,5-8.2,6.1C23.8,52.8,18.1,51.9,13.7,48.1z"/>
</svg>
