<svg enable-background="new 0 0 47.7 59.3" version="1.1" viewBox="0 0 47.7 59.3" xml:space="preserve" xmlns="http://www.w3.org/2000/svg">
<path class="st0" d="m13.7 48.1c-2.1-2.3-4.1-4.8-5.4-7.7-1.3-3.1-1.7-6.7-1-10s2.2-6.6 4.3-9.3c-0.2 2.3 0.7 4.8 2.2 6.6-0.9-4.5 0.6-9.4 3.6-12.9s7.1-5.9 11.4-7.5c-2.2 2.2-2.4 5.8-1.6 8.8s2.6 5.6 4.2 8.3 3.1 5.5 3.2 8.6c0.8-1.6 1.8-3.2 2.3-5 0.6-1.8 0.8-3.7 0.4-5.4 1.7 2.1 2.6 4.1 3.1 6.7s0.4 5.3 0.1 8c-0.4 2.9-1.1 5.9-2.7 8.3-1.9 2.9-4.9 5-8.2 6.1-5.8 1.1-11.5 0.2-15.9-3.6z"/>
</svg>
