<?xml version="1.0" encoding="UTF-8"?>
<svg version="1.1" viewBox="0 0 102 98" xmlns="http://www.w3.org/2000/svg">
<g fill="none" fill-rule="evenodd">
<path transform="translate(5.5 44) rotate(168) translate(-5.5 -44)" d="m10 46h-9c0.99411 0 1.8-0.89543 1.8-2s-0.80589-2-1.8-2h9c-0.99411 0-1.8 0.89543-1.8 2s0.80589 2 1.8 2z" fill="#fff"/>
<path transform="translate(27.5 28) rotate(120) translate(-27.5 -28)" d="m32 30h-9c0.99411 0 1.8-0.89543 1.8-2s-0.80589-2-1.8-2h9c-0.99411 0-1.8 0.89543-1.8 2s0.80589 2 1.8 2z" fill="#fff"/>
<path d="m66.446 38c-0.37684 0-0.7508-0.14646-1.032-0.43942-0.55947-0.57418-0.55078-1.5028 0.01739-2.0711l4.1047-4.0749c0.57398-0.55952 1.4958-0.55368 2.0494 0.023444 0.55947 0.57418 0.55078 1.5028-0.01739 2.0711l-4.1047 4.0749c-0.28408 0.2783-0.65223 0.41598-1.0175 0.41598z" fill="#FFE315"/>
<path d="m54.405 33c-0.35957 0-0.71918-0.13745-0.99449-0.40957-0.54779-0.54702-0.54779-1.4362 0-1.9833l12.192-12.197c0.54779-0.54702 1.4383-0.54702 1.9861 0 0.54782 0.54702 0.54779 1.4362 0 1.9833l-12.192 12.197c-0.27248 0.27211-0.63208 0.40957-0.99166 0.40957z" fill="#FFAF45"/>
<path d="m84 16.5c0-3.0376-2.4624-5.5-5.5-5.5s-5.5 2.4624-5.5 5.5 2.4624 5.5 5.5 5.5 5.5-2.4624 5.5-5.5zm-9.4286 0c0-2.1697 1.7589-3.9286 3.9286-3.9286s3.9286 1.7589 3.9286 3.9286-1.7589 3.9286-3.9286 3.9286-3.9286-1.7589-3.9286-3.9286z" fill="#00B395" fill-rule="nonzero"/>
<path d="m10 35.5c0-1.933-1.567-3.5-3.5-3.5s-3.5 1.567-3.5 3.5 1.567 3.5 3.5 3.5 3.5-1.567 3.5-3.5zm-6 0c0-1.3807 1.1193-2.5 2.5-2.5s2.5 1.1193 2.5 2.5-1.1193 2.5-2.5 2.5-2.5-1.1193-2.5-2.5z" fill="#16D1C4" fill-rule="nonzero"/>
<path d="m95.4 4.4v-3.3051c0-0.60472 0.48825-1.0949 1.1-1.0949 0.60751-3.72e-17 1.1 0.50123 1.1 1.0949v3.3051h3.3051c0.60472 0 1.0949 0.48825 1.0949 1.1 0 0.60751-0.50123 1.1-1.0949 1.1h-3.3051v3.3051c0 0.60472-0.48825 1.0949-1.1 1.0949-0.60751 0-1.1-0.50123-1.1-1.0949v-3.3051h-3.3051c-0.60472 0-1.0949-0.48825-1.0949-1.1 0-0.60751 0.50123-1.1 1.0949-1.1h3.3051z" fill="#B2DDC9"/>
<path d="m34.4 18.4v-3.3051c0-0.60472 0.48825-1.0949 1.1-1.0949 0.60751 0 1.1 0.50123 1.1 1.0949v3.3051h3.3051c0.60472 0 1.0949 0.48825 1.0949 1.1 0 0.60751-0.50123 1.1-1.0949 1.1h-3.3051v3.3051c0 0.60472-0.48825 1.0949-1.1 1.0949-0.60751 0-1.1-0.50123-1.1-1.0949v-3.3051h-3.3051c-0.60472 0-1.0949-0.48825-1.0949-1.1 0-0.60751 0.50123-1.1 1.0949-1.1h3.3051z" fill="#F5B1AE"/>
<path d="m41.5 36c-16.845 0-30.5 13.655-30.5 30.5 0 16.845 13.655 30.5 30.5 30.5 16.845 0 30.5-13.655 30.5-30.5 0-16.845-13.655-30.5-30.5-30.5z" fill="#00B395"/>
<path d="m61.791 74.022c-6.0711 13.492-16.259 11.071-19.791 22.978 17.121 0 31-13.631 31-30.446 0-8.9422-3.925-16.984-10.175-22.554-4.7518 10.516 5.0372 16.53-1.0339 30.022z" fill="#008578" opacity=".31561"/>
<path d="m11.35 56.497c0.89901-2.9142 2.223-5.642 3.8996-8.1109 5.4863-8.0789 14.748-13.386 25.25-13.386 16.845 0 30.5 13.655 30.5 30.5 0 5.9485-1.7029 11.499-4.6478 16.191m-4.169 5.2582c-0.99123 1.002-2.0514 1.9356-3.1728 2.7931m-5.5511 3.3751c-3.9331 1.8487-8.3254 2.882-12.959 2.882-16.845 0-30.5-13.655-30.5-30.5" stroke="#477CA8" stroke-linecap="round" stroke-linejoin="round" stroke-width="4"/>
<path d="m53.418 60.244l-15.89 15.2c-0.38767 0.37102-0.89613 0.55646-1.4044 0.55646-0.50846 0-1.0167-0.18544-1.4046-0.55646l-9.1369-8.74c-0.7756-0.74205-0.7756-1.9451 0-2.687 0.77576-0.7421 2.0335-0.7421 2.8092 0l7.7324 7.3964 14.486-13.856c0.77555-0.7421 2.0335-0.7421 2.809 0 0.77581 0.7419 0.77581 1.9449 0 2.687z" fill="#fff"/>
</g>
</svg>
