<?xml version="1.0" encoding="UTF-8"?>
<svg width="326px" height="217px" viewBox="0 0 326 217" version="1.1" xmlns="http://www.w3.org/2000/svg" xmlns:xlink="http://www.w3.org/1999/xlink">
    <!-- Generator: Sketch 51.3 (57544) - http://www.bohemiancoding.com/sketch -->
    <title>ilustracao</title>
    <desc>Created with Sketch.</desc>
    <defs></defs>
    <g id="Page-1" stroke="none" stroke-width="1" fill="none" fill-rule="evenodd">
        <g id="ilustracao" transform="translate(0.000000, -2.000000)">
            <g>
                <g id="bg">
                    <path d="M277.829851,151.77858 L277.829851,151.904762 L288.543786,151.904762 C296.600271,151.904762 303.131343,158.430396 303.131343,166.484127 C303.131343,174.536088 296.611317,181.063492 288.543786,181.063492 L259.366234,181.063492 C267.413619,181.063492 273.937313,187.589126 273.937313,195.642857 C273.937313,203.694818 267.40574,210.222222 259.366234,210.222222 L36.4666019,210.222222 C28.4192169,210.222222 21.8955224,203.696589 21.8955224,195.642857 C21.8955224,187.590896 28.4270955,181.063492 36.4666019,181.063492 L45.2412885,181.063492 C37.1848031,181.063492 30.6537313,174.537858 30.6537313,166.484127 C30.6537313,158.432166 37.1737578,151.904762 45.2412885,151.904762 L14.5875571,151.904762 C6.53107179,151.904762 0,145.379128 0,137.325397 C0,129.273436 6.52002645,122.746032 14.5875571,122.746032 L54.9820896,122.746032 L59.8564546,122.746032 C67.9174005,122.746032 74.4447761,116.218628 74.4447761,108.166667 C74.4447761,100.112935 67.9133621,93.5873016 59.8564546,93.5873016 L53.5176592,93.5873016 L52.0532288,93.5873016 C43.9967434,93.5873016 37.4656716,87.0616679 37.4656716,79.0079365 C37.4656716,70.9559755 43.9856981,64.4285714 52.0532288,64.4285714 L28.2114377,64.4285714 C20.1549524,64.4285714 13.6238806,57.9029377 13.6238806,49.8492063 C13.6238806,41.7972454 20.143907,35.2698413 28.2114377,35.2698413 L53.1351133,35.2698413 C45.0857478,35.2698413 38.5604478,28.7442076 38.5604478,20.6904762 C38.5604478,12.6385152 45.0828859,6.11111111 53.1351133,6.11111111 L308.992499,6.11111111 C317.041864,6.11111111 323.567164,12.6367448 323.567164,20.6904762 C323.567164,28.7424372 317.044726,35.2698413 308.992499,35.2698413 L289.525822,35.2698413 C297.577391,35.2698413 304.104478,41.7954749 304.104478,49.8492063 C304.104478,57.9011673 297.585763,64.4285714 289.525822,64.4285714 L277.829851,64.4285714 L276.601632,64.4285714 C268.541982,64.4285714 262.016418,70.9559755 262.016418,79.0079365 C262.016418,87.0616679 268.546441,93.5873016 276.601632,93.5873016 L277.829851,93.5873016 L311.412443,93.5873016 C319.468928,93.5873016 326,100.112935 326,108.166667 C326,116.218628 319.479974,122.746032 311.412443,122.746032 L277.829851,122.746032 L277.829851,122.872276 C277.19926,122.789003 276.555959,122.746032 275.902619,122.746032 L239.372008,122.746032 C231.317339,122.746032 224.79403,129.273436 224.79403,137.325397 C224.79403,145.379128 231.320813,151.904762 239.372008,151.904762 L275.902619,151.904762 C276.555994,151.904762 277.199293,151.861811 277.829851,151.77858 Z" id="Combined-Shape" fill="#F6F9FC" opacity="0.835389459"></path>
                    <g id="Additional-Elements" transform="translate(23.198502, 0.000000)">
                        <ellipse id="Oval-11" fill="#48D2A0" opacity="0.162430037" cx="245.036733" cy="11.1062633" rx="3.65000099" ry="3.66082803"></ellipse>
                        <ellipse id="Oval-11" fill="#48D2A0" opacity="0.170184235" cx="233.35673" cy="28.6782378" rx="2.19000059" ry="2.19649682"></ellipse>
                        <ellipse id="Oval-11" fill="#48D2A0" opacity="0.301364272" cx="252.580069" cy="41.6131635" rx="3.40666759" ry="3.41677282"></ellipse>
                        <ellipse id="Oval-11" fill="#48D2A0" opacity="0.184001866" cx="53.5333479" cy="32.3390658" rx="3.40666759" ry="3.41677282"></ellipse>
                        <ellipse id="Oval-11" fill="#48D2A0" opacity="0.149778451" cx="44.5300121" cy="55.52431" rx="2.19000059" ry="2.19649682"></ellipse>
                        <g id="Group-23" opacity="0.364272388" transform="translate(94.242512, 7.975277) rotate(-120.000000) translate(-94.242512, -7.975277) translate(89.358617, 2.475277)" stroke="#48D2A0" stroke-linecap="round" stroke-width="4">
                            <path d="M2.35367281e-12,5.03992861 L9.60627742,5.03992861" id="Line"></path>
                            <g id="Group-22" transform="translate(4.381329, 5.121132) rotate(-270.000000) translate(-4.381329, -5.121132) translate(-0.502566, 3.287799)">
                                <path d="M-2.93098879e-13,1.41118001 L9.60627742,1.41118001" id="Line"></path>
                            </g>
                        </g>
                        <g id="Group-23" opacity="0.46379431" transform="translate(210.964821, 198.033447) rotate(-330.000000) translate(-210.964821, -198.033447) translate(205.470439, 191.922336)" stroke="#48D2A0" stroke-linecap="round" stroke-width="5">
                            <path d="M1.8189894e-12,5.35461787 L10.6775628,5.35461787" id="Line"></path>
                            <g id="Group-22" transform="translate(4.844769, 5.510342) rotate(-270.000000) translate(-4.844769, -5.510342) translate(-0.649613, 3.677009)">
                                <path d="M1.15285559e-12,1.33865447 L10.6775628,1.33865447" id="Line"></path>
                            </g>
                        </g>
                        <ellipse id="Oval-11" fill="#48D2A0" opacity="0.223822295" cx="181.770049" cy="214.648301" rx="3.65000099" ry="3.66082803"></ellipse>
                        <ellipse id="Oval-11" fill="#48D2A0" opacity="0.135377799" cx="164.250045" cy="188.29034" rx="2.19000059" ry="2.19649682"></ellipse>
                        <g id="Group-23" opacity="0.390741604" transform="translate(265.585689, 123.484465) rotate(-15.000000) translate(-265.585689, -123.484465) translate(261.922768, 119.206687)" stroke="#48D2A0" stroke-linecap="round" stroke-width="4">
                            <path d="M1.8189894e-12,3.60167785 L7.00987139,3.60167785" id="Line"></path>
                            <g id="Group-22" transform="translate(3.188133, 3.763593) rotate(-270.000000) translate(-3.188133, -3.763593) translate(-0.474788, 2.541371)">
                                <path d="M2.10498285e-13,0.900419463 L7.00987139,0.900419463" id="Line"></path>
                            </g>
                        </g>
                    </g>
                </g>
                <g id="Designer" transform="translate(47.617978, 46.444444)">
                    <path d="M172.665789,97.3571636 C176.12689,89.0955977 178.04583,80.0326842 178.04583,70.5240895 C178.04583,31.9913385 146.663716,0.756340535 107.947571,0.756340535 C69.2336162,0.756340535 37.849311,31.9913385 37.849311,70.5240895 C37.849311,80.0326842 39.7682509,89.0955977 43.231543,97.3571636 L172.665789,97.3571636 Z" id="Fill-1" fill="#DEF8FC"></path>
                    <path d="M159.240658,98.4549002 C163.483793,90.4348364 165.913136,81.3148405 165.913136,71.6218261 C165.913136,39.7589228 139.961446,13.92918 107.948447,13.92918 C75.9354479,13.92918 49.9837579,39.7589228 49.9837579,71.6218261 C49.9837579,81.3148405 52.4109101,90.4348364 56.656236,98.4549002 L159.240658,98.4549002 Z" id="Fill-4" fill="#C1F3F8"></path>
                    <path d="M50.9936109,97.3571636 L46.6124697,97.3571636" id="Stroke-7" stroke="#504B46" stroke-linecap="round"></path>
                    <path d="M169.284424,97.3571636 L164.903283,97.3571636" id="Stroke-8" stroke="#504B46" stroke-linecap="round"></path>
                    <path d="M0.430931923,97.3571636 L228.896673,97.3571636" id="Stroke-9" stroke="#504B46" stroke-linecap="round"></path>
                    <g id="money" transform="translate(3.662921, 53.777778)">
                        <g id="mala">
                            <path d="M79.4586845,55.5073375 C79.4586845,57.3212998 61.777744,58.793501 39.9678137,58.793501 C18.1578833,58.793501 0.476942884,57.3212998 0.476942884,55.5073375 C0.476942884,53.6933753 18.1578833,52.221174 39.9678137,52.221174 C61.777744,52.221174 79.4586845,53.6933753 79.4586845,55.5073375" id="Fill-87" fill="#E3ECF1"></path>
                            <path d="M60.8102177,48.9350105 C60.8102177,51.3558176 58.8466438,53.3165618 56.4223432,53.3165618 L12.5435978,53.3165618 C10.1192972,53.3165618 8.15572331,51.3558176 8.15572331,48.9350105 L8.15572331,18.2641509 C8.15572331,15.8433438 10.1192972,13.8825996 12.5435978,13.8825996 L56.4223432,13.8825996 C58.8466438,13.8825996 60.8102177,15.8433438 60.8102177,18.2641509 L60.8102177,48.9350105 Z" id="Fill-89" fill="#B78B7C"></path>
                            <path d="M60.8102177,18.2641509 C60.8102177,15.8433438 58.8466438,13.8825996 56.4223432,13.8825996 L12.5435978,13.8825996 C10.1192972,13.8825996 8.15572331,15.8433438 8.15572331,18.2641509 L8.15572331,23.7410901 C8.15572331,21.320283 10.1192972,19.3595388 12.5435978,19.3595388 L56.4223432,19.3595388 C58.8466438,19.3595388 60.8102177,21.320283 60.8102177,23.7410901 L60.8102177,18.2641509 Z" id="Fill-91" fill="#C9A89C"></path>
                            <path d="M23.5132842,11.6918239 L23.5132842,7.31027254 C23.5132842,3.68672956 26.4663237,0.737945493 30.095096,0.737945493 L38.870845,0.737945493 C42.4996173,0.737945493 45.4526568,3.68672956 45.4526568,7.31027254 L45.4526568,11.6918239 L41.0647823,11.6918239 L41.0647823,7.31027254 C41.0647823,6.10096436 40.0818984,5.11949686 38.870845,5.11949686 L30.095096,5.11949686 C28.8840426,5.11949686 27.9011587,6.10096436 27.9011587,7.31027254 L27.9011587,11.6918239 L23.5132842,11.6918239 Z" id="Fill-93" fill="#B78B7C"></path>
                            <path d="M23.5132842,11.6918239 L23.5132842,7.31027254 C23.5132842,3.68672956 26.4663237,0.737945493 30.095096,0.737945493 L38.870845,0.737945493 C42.4996173,0.737945493 45.4526568,3.68672956 45.4526568,7.31027254 L45.4526568,11.6918239 L41.0647823,11.6918239 L41.0647823,7.31027254 C41.0647823,6.10096436 40.0818984,5.11949686 38.870845,5.11949686 L30.095096,5.11949686 C28.8840426,5.11949686 27.9011587,6.10096436 27.9011587,7.31027254 L27.9011587,11.6918239 L23.5132842,11.6918239 L23.5132842,11.6918239 Z" id="Stroke-95" stroke="#504B46" stroke-linecap="round" stroke-linejoin="round"></path>
                            <polygon id="Fill-97" fill="#FED75C" points="22.4163155 13.8825996 28.9981273 13.8825996 28.9981273 9.50104822 22.4163155 9.50104822"></polygon>
                            <polygon id="Stroke-99" stroke="#504B46" stroke-linecap="round" stroke-linejoin="round" points="22.4163155 13.8825996 28.9981273 13.8825996 28.9981273 9.50104822 22.4163155 9.50104822"></polygon>
                            <polygon id="Fill-100" fill="#FED75C" points="39.9678137 13.8825996 46.5496255 13.8825996 46.5496255 9.50104822 39.9678137 9.50104822"></polygon>
                            <polygon id="Stroke-101" stroke="#504B46" stroke-linecap="round" stroke-linejoin="round" points="39.9678137 13.8825996 46.5496255 13.8825996 46.5496255 9.50104822 39.9678137 9.50104822"></polygon>
                            <path d="M13.6405665,13.8825996 L13.6405665,53.3165618" id="Fill-102" fill="#FED75C"></path>
                            <path d="M13.6405665,13.8825996 L13.6405665,53.3165618" id="Stroke-103" stroke="#504B46" stroke-linecap="round" stroke-linejoin="round"></path>
                            <path d="M60.8102177,48.9350105 C60.8102177,51.3558176 58.8466438,53.3165618 56.4223432,53.3165618 L12.5435978,53.3165618 C10.1192972,53.3165618 8.15572331,51.3558176 8.15572331,48.9350105 L8.15572331,18.2641509 C8.15572331,15.8433438 10.1192972,13.8825996 12.5435978,13.8825996 L56.4223432,13.8825996 C58.8466438,13.8825996 60.8102177,15.8433438 60.8102177,18.2641509 L60.8102177,48.9350105 L60.8102177,48.9350105 Z" id="Stroke-105" stroke="#504B46" stroke-linecap="round" stroke-linejoin="round"></path>
                        </g>
                        <g id="Group-6" transform="translate(32.966292, 35.444444)">
                            <g id="Group-5" transform="translate(1.220974, 0.000000)">
                                <path d="M36.008396,5.35928302 L39.5910956,5.35928302 C40.9118458,5.35928302 41.9802932,6.42619078 41.9802932,7.74503774 C41.9802932,9.0638847 40.9118458,10.1307925 39.5910956,10.1307925 L36.008396,10.1307925 L33.6191983,10.1307925 C32.2984481,10.1307925 31.2300006,9.0638847 31.2300006,7.74503774 C31.2300006,6.42619078 32.2984481,5.35928302 33.6191983,5.35928302 L36.008396,5.35928302 Z" id="Fill-106" fill="#FFF083"></path>
                                <path d="M30.03606,10.1301352 L33.6187595,10.1301352 L36.0079572,10.1301352 C37.3287075,10.1301352 38.3971549,11.197043 38.3971549,12.5158899 C38.3971549,13.8347369 37.3287075,14.9016447 36.0079572,14.9016447 L30.03606,14.9016447 C28.7153097,14.9016447 27.6468623,13.8347369 27.6468623,12.5158899 C27.6468623,11.197043 28.7153097,10.1301352 30.03606,10.1301352" id="Fill-107" fill="#FFF083"></path>
                                <path d="M36.008396,14.9009874 L30.0364988,14.9009874 C28.7157485,14.9009874 27.6473011,15.9678952 27.6473011,17.2867421 C27.6473011,17.6832725 27.7526101,18.060086 27.9193493,18.3733669 C28.3186459,19.1489015 29.1150451,19.6724969 30.0364988,19.6724969 L36.008396,19.6724969 C36.9298497,19.6724969 37.7262489,19.1489015 38.1255455,18.3733669 C38.2922847,18.060086 38.3975937,17.6832725 38.3975937,17.2867421 C38.3975937,15.9678952 37.3291462,14.9009874 36.008396,14.9009874" id="Fill-108" fill="#FFF083"></path>
                                <path d="M25.1117678,10.1301352 C25.1337072,10.1082275 25.1534526,10.0885105 25.175392,10.0666027 C25.175392,10.0885105 25.1534526,10.1082275 25.1337072,10.1301352 L25.1117678,10.1301352 Z" id="Fill-109" fill="#D1ECF4"></path>
                                <path d="M25.1117678,10.1301352 L25.1337072,10.1301352 C25.1117678,10.152043 25.0898284,10.17176 25.070083,10.1936677 C25.070083,10.17176 25.0898284,10.152043 25.1117678,10.1301352" id="Fill-110" fill="#F8E280"></path>
                                <path d="M24.3572728,11.0509182 C24.6095756,10.7792621 24.839939,10.4856981 25.0703024,10.1921342 C24.839939,10.4856981 24.6095756,10.7573543 24.3572728,11.0509182" id="Fill-111" fill="#F8E280"></path>
                                <path d="M25.2585422,10.1301352 L25.1334878,10.1301352 C25.1115484,10.152043 25.091803,10.17176 25.0698636,10.1936677 C25.0698636,10.17176 25.091803,10.152043 25.1115484,10.1301352 L19.4116994,10.1301352 L19.286645,10.1301352 C17.9658947,10.1301352 16.8974473,11.197043 16.8974473,12.5158899 C16.8974473,13.6244224 17.6521617,14.5445482 18.6789243,14.8162044 C18.8676029,14.8797369 19.076027,14.9016447 19.286645,14.9016447 L19.8307414,14.9016447 L19.8526808,14.9016447 L25.2585422,14.9016447 C26.5792924,14.9016447 27.6477399,13.8347369 27.6477399,12.5158899 C27.6477399,11.197043 26.5792924,10.1301352 25.2585422,10.1301352" id="Fill-112" fill="#FFF083"></path>
                                <path d="M19.0975276,19.6510273 C19.3081455,19.6510273 19.4946302,19.672935 19.7052482,19.672935 L19.2862062,19.672935 C19.222582,19.672935 19.1611517,19.672935 19.0975276,19.6510273" id="Fill-113" fill="#F8E280"></path>
                                <path d="M18.6784855,14.8172998 C18.8671642,14.8808323 19.0755882,14.9005493 19.2862062,14.9005493 C18.9724731,14.9005493 18.6784855,14.9640818 18.4064373,15.069239 C18.5117463,14.9837987 18.5951159,14.9005493 18.6784855,14.8172998" id="Fill-114" fill="#D1ECF4"></path>
                                <path d="M17.4630443,15.7378637 C17.7153471,15.4442998 18.0290801,15.2142683 18.4064373,15.0674864 C18.3011283,15.1726436 18.1958193,15.2558931 18.0707649,15.3413333 C17.8820863,15.4859245 17.6736623,15.6327065 17.4630443,15.7378637" id="Fill-115" fill="#F8E280"></path>
                                <path d="M25.2585422,14.9009874 L19.8526808,14.9009874 L19.8307414,14.9009874 L19.286645,14.9009874 C18.9729119,14.9009874 18.6789243,14.9645199 18.4068761,15.0674864 C18.3015671,15.1726436 18.1962581,15.2558931 18.0712037,15.3413333 C17.8825251,15.4859245 17.6719071,15.6327065 17.4634831,15.7378637 C17.2967439,15.9262704 17.1694955,16.1563019 17.0641865,16.4082411 C16.9610715,16.6798973 16.8974473,16.9734612 16.8974473,17.2867421 C16.8974473,17.6832725 17.0027563,18.060086 17.1694955,18.3733669 C17.5271073,19.085369 18.2598823,19.5870566 19.0979664,19.6505891 C19.3063904,19.6505891 19.495069,19.6724969 19.705687,19.6724969 L25.2585422,19.6724969 C26.1799958,19.6724969 26.9763951,19.1489015 27.3756917,18.3733669 C27.5424309,18.060086 27.6477399,17.6832725 27.6477399,17.2867421 C27.6477399,15.9678952 26.5792924,14.9009874 25.2585422,14.9009874" id="Fill-116" fill="#FFF083"></path>
                                <path d="M15.0113194,17.2654916 C15.8713428,16.783521 16.6874875,16.2818333 17.4619473,15.738521 C17.2952081,15.9269277 17.1701537,16.1569591 17.0648447,16.4067075 C16.4154393,16.7221792 15.724349,16.9938354 15.0113194,17.2654916" id="Fill-117" fill="#D1ECF4"></path>
                                <path d="M28.1922751,4.48034382 L28.1922751,4.50225157 C28.6332565,5.02365618 29.3024074,5.35884486 30.0351824,5.35884486 L33.6200759,5.35884486 L36.0092736,5.35884486 C37.3278299,5.35884486 38.3962773,4.29193711 38.3962773,2.97309015 C38.3962773,1.65643396 37.3278299,0.58733543 36.0092736,0.58733543 L30.0351824,0.58733543 C29.7433888,0.58733543 29.4713405,0.631150943 29.2190377,0.7341174 C28.2975841,1.06930608 27.6481787,1.94780713 27.6481787,2.97309015 C27.6481787,3.53831027 27.8566027,4.06190566 28.1922751,4.48034382" id="Fill-118" fill="#FFF083"></path>
                                <path d="M27.3748141,18.3744623 L27.9189105,18.3744623" id="Stroke-119" stroke="#4F4A45" stroke-linecap="round" stroke-linejoin="round"></path>
                                <path d="M18.4059985,15.0683627 C18.5113075,14.9851132 18.5946771,14.9018637 18.6780468,14.8164235" id="Stroke-120" stroke="#4F4A45" stroke-linejoin="round"></path>
                                <path d="M8.17852118,14.1477987 C8.17852118,13.1641405 8.97492041,12.3688889 9.95999824,12.3688889 C10.9648215,12.3688889 11.7612207,13.1641405 11.7612207,14.1477987 C11.7612207,15.151174 10.9648215,15.9464256 9.95999824,15.9464256 C8.97492041,15.9464256 8.17852118,15.151174 8.17852118,14.1477987" id="Fill-121" fill="#C0E0BC"></path>
                                <polygon id="Fill-122" fill="#D1ECF4" points="1.20048432 18.8557757 1.43084773 19.4209958 1.20048432 19.4209958"></polygon>
                            </g>
                            <g id="Group-4">
                                <path d="M11.1805332,15.9473019 C10.1954554,15.9473019 9.39905618,15.1520503 9.39905618,14.1486751 C9.39905618,13.1650168 10.1954554,12.3697652 11.1805332,12.3697652 C12.1853565,12.3697652 12.9817557,13.1650168 12.9817557,14.1486751 C12.9817557,15.1520503 12.1853565,15.9473019 11.1805332,15.9473019 M20.5903302,10.1307925 L20.7153846,10.1307925 L19.3529496,6.69784696 C19.0392165,5.94422013 18.3898111,5.40090776 17.6131573,5.23440881 C16.8167581,5.08762683 16.0006134,5.31765828 15.4345776,5.88287841 C12.2292353,9.0638847 6.92648888,11.4058239 2.92474731,11.7826373 C2.75581414,11.8045451 2.58907491,11.8242621 2.42233567,11.8877945 C1.87604529,12.0542935 1.41531847,12.4113899 1.10158544,12.9130776 C0.702288858,13.5418302 0.640858614,14.3370818 0.912906835,15.0271761 L2.23365707,18.3746813 L2.42233567,18.3746813 L2.42233567,18.856652 L2.65269909,19.4196813 L2.65269909,19.4415891 L2.7360687,19.6519036 C3.15511072,20.6771866 4.2016188,21.2840314 5.31394499,21.1372495 C7.24022191,20.8436855 9.37931074,20.2784654 11.4745208,19.4634969 L11.4942663,19.4634969 C12.3740351,19.1480252 13.2340585,18.7712117 14.0940819,18.3746813 C14.8466024,18.0394927 15.6013168,17.6626792 16.3143464,17.2661488 C17.1743699,16.7841782 17.9905145,16.2824906 18.7671683,15.7369874 C19.0172772,15.4456143 19.3310102,15.2155828 19.7083674,15.0688008 C19.8136764,14.9855514 19.897046,14.9001111 19.9826096,14.8168616 C18.9558469,14.5452055 18.2011325,13.6250797 18.2011325,12.5165472 C18.2011325,11.1977002 19.2695799,10.1307925 20.5903302,10.1307925" id="Fill-123" fill="#82C67C"></path>
                                <polygon id="Fill-124" fill="#82C67C" points="2.4214581 18.8557757 2.23277949 18.373805 2.4214581 18.373805"></polygon>
                                <path d="M20.7151652,10.1301352 L19.3527302,6.6993805 C19.0389971,5.94575367 18.3895917,5.40025052 17.6129379,5.23375157 C16.8165387,5.0869696 16.000394,5.31700105 15.4343582,5.88222117 C12.2290159,9.06322746 6.92626949,11.4073574 2.92452791,11.7841709 C2.75778868,11.8038878 2.58885551,11.8257956 2.42211628,11.8871373 C1.8758259,12.055827 1.41509908,12.4107327 1.10136605,12.9124203 C0.702069464,13.541173 0.640639221,14.3364245 0.912687441,15.0265189 L2.23343768,18.3740241 L2.42211628,18.8559948 L2.65247969,19.4212149 L2.65247969,19.4409319 L2.73584931,19.6512463 C3.15489133,20.6765294 4.20359334,21.2833742 5.3137256,21.1365922 C7.24000252,20.8430283 9.37909135,20.2778082 11.4743014,19.4628396 L11.4940469,19.4628396 C12.3760097,19.1495587 13.2338391,18.7727453 14.0938625,18.3740241 C14.848577,18.0388354 15.6010974,17.662022 16.314127,17.2654916 C17.1741505,16.783521 17.9902951,16.2818333 18.7669489,15.738521" id="Stroke-125" stroke="#4F4A45" stroke-linejoin="round"></path>
                                <path d="M37.2293698,14.9009874 C38.55012,14.9009874 39.6185675,15.9678952 39.6185675,17.2867421 C39.6185675,17.6832725 39.5132585,18.060086 39.3465193,18.3755577 C38.9472227,19.1489015 38.1508234,19.6724969 37.2293698,19.6724969 L31.2574726,19.6724969 C30.3360189,19.6724969 29.5396197,19.1489015 29.1403231,18.3755577 C28.9735839,18.060086 28.8682749,17.6832725 28.8682749,17.2867421 C28.8682749,15.9678952 29.9367223,14.9009874 31.2574726,14.9009874" id="Stroke-126" stroke="#4F4A45" stroke-linejoin="round"></path>
                                <path d="M26.4792966,14.9009874 C27.8000468,14.9009874 28.8684943,15.9678952 28.8684943,17.2867421 C28.8684943,17.6832725 28.7631853,18.060086 28.596446,18.3755577 C28.1971495,19.1489015 27.4007502,19.6724969 26.4792966,19.6724969 L20.9264414,19.6724969 L20.5073993,19.6724969 C20.4437752,19.6724969 20.3823449,19.6724969 20.3187207,19.6505891 C19.4806367,19.5870566 18.7478617,19.085369 18.3902499,18.3755577 C18.2235107,18.060086 18.1182017,17.6832725 18.1182017,17.2867421 C18.1182017,16.9734612 18.1818258,16.6798973 18.2849409,16.4082411 C18.3902499,16.1563019 18.5153043,15.9262704 18.6842375,15.7378637 C18.9365403,15.4442998 19.2502733,15.2142683 19.6276305,15.0674864 C19.8996787,14.9645199 20.1936663,14.9009874 20.5073993,14.9009874" id="Stroke-127" stroke="#4F4A45" stroke-linejoin="round"></path>
                                <path d="M28.8682749,12.5154518 C28.8682749,13.8342987 27.7998274,14.9012065 26.4790772,14.9012065 L21.0732158,14.9012065 L21.0512764,14.9012065 L20.50718,14.9012065 C20.2987559,14.9012065 20.0881379,14.8792987 19.8994593,14.817957 C18.8726967,14.5441101 18.1179823,13.6239843 18.1179823,12.5154518 C18.1179823,11.1966048 19.1864297,10.1296971 20.50718,10.1296971 L20.6322344,10.1296971 L26.3320834,10.1296971 L26.3540228,10.1296971 L26.4790772,10.1296971 C27.7998274,10.1296971 28.8682749,11.1966048 28.8682749,12.5154518 L28.8682749,12.5154518 Z" id="Stroke-128" stroke="#4F4A45" stroke-linejoin="round"></path>
                                <path d="M34.8403915,10.1301352 C33.5196413,10.1301352 32.4511938,9.06322746 32.4511938,7.7443805 C32.4511938,6.42553354 33.5196413,5.35862579 34.8403915,5.35862579" id="Stroke-129" stroke="#4F4A45" stroke-linejoin="round"></path>
                                <path d="M37.2293698,5.35928302 L40.8120693,5.35928302 C42.1328196,5.35928302 43.201267,6.42619078 43.201267,7.74503774 C43.201267,9.0638847 42.1328196,10.1307925 40.8120693,10.1307925 L37.2293698,10.1307925" id="Stroke-130" stroke="#4F4A45" stroke-linejoin="round"></path>
                                <path d="M30.4397921,0.734993711 C30.6920949,0.629836478 30.9641431,0.58821174 31.2559368,0.58821174 L37.230028,0.58821174 C38.5485843,0.58821174 39.6170317,1.6551195 39.6170317,2.97396646 C39.6170317,4.29281342 38.5485843,5.35972117 37.230028,5.35972117 L34.8408303,5.35972117 L31.2559368,5.35972117 C30.5231618,5.35972117 29.8540109,5.02453249 29.4130295,4.50093711 L29.4130295,4.48122013 C29.0773571,4.06278197 28.8689331,3.53918658 28.8689331,2.97396646 C28.8689331,1.94868344 29.5183385,1.07018239 30.4397921,0.734993711 L30.4397921,0.734993711 Z" id="Stroke-131" stroke="#4F4A45" stroke-linejoin="round"></path>
                                <path d="M37.2293698,10.1301352 C38.55012,10.1301352 39.6185675,11.197043 39.6185675,12.5158899 C39.6185675,13.8347369 38.55012,14.9016447 37.2293698,14.9016447 L31.2574726,14.9016447 C29.9367223,14.9016447 28.8682749,13.8347369 28.8682749,12.5158899 C28.8682749,11.197043 29.9367223,10.1301352 31.2574726,10.1301352 L34.8401721,10.1301352 L37.2293698,10.1301352 L37.2293698,10.1301352 Z" id="Stroke-132" stroke="#4F4A45" stroke-linejoin="round"></path>
                            </g>
                        </g>
                    </g>
                    <path d="M116.573819,58.9363817 L103.430395,58.9363817 C91.3318734,58.9363817 81.5246888,68.7655154 81.5246888,80.8911142 L81.5246888,81.9888508 L92.4775419,81.9888508 L92.4775419,97.3571636 L127.526672,97.3571636 L127.526672,81.9888508 L138.479525,81.9888508 L138.479525,80.8911142 C138.479525,68.7655154 128.67234,58.9363817 116.573819,58.9363817" id="Fill-10" fill="#02B3A9"></path>
                    <path d="M138.237467,77.802742 C138.180512,77.3921885 138.130129,76.977244 138.051268,76.573277 C137.978979,76.7181782 137.930787,76.8762523 137.930787,77.0496947 C137.930787,77.3416926 138.051268,77.6051494 138.237467,77.802742" id="Fill-12" fill="#FFFFFF"></path>
                    <path d="M133.550741,70.4626163 C132.946143,70.4626163 132.455455,70.9544023 132.455455,71.5603529 C132.455455,72.1663035 132.946143,72.6580895 133.550741,72.6580895 C134.155338,72.6580895 134.646026,72.1663035 134.646026,71.5603529 C134.646026,70.9544023 134.155338,70.4626163 133.550741,70.4626163" id="Fill-14" fill="#FFFFFF"></path>
                    <path d="M133.550741,81.4399825 C133.147676,81.4399825 132.812519,81.6683117 132.621939,81.9910463 L134.479543,81.9910463 C134.288963,81.6683117 133.953806,81.4399825 133.550741,81.4399825" id="Fill-16" fill="#FFFFFF"></path>
                    <path d="M121.502602,60.5829866 C121.502602,61.1889372 121.99329,61.6807233 122.597888,61.6807233 C123.202485,61.6807233 123.693173,61.1889372 123.693173,60.5829866 C123.693173,60.4095442 123.644981,60.2492747 123.572692,60.1043735 C123.071051,59.935322 122.560648,59.7904208 122.043673,59.6564969 C121.726041,59.8496986 121.502602,60.1834105 121.502602,60.5829866" id="Fill-18" fill="#FFFFFF"></path>
                    <path d="M128.074314,67.1694064 C128.678912,67.1694064 129.1696,66.6776204 129.1696,66.0716698 C129.1696,65.4657191 128.678912,64.9739331 128.074314,64.9739331 C127.469717,64.9739331 126.979029,65.4657191 126.979029,66.0716698 C126.979029,66.6776204 127.469717,67.1694064 128.074314,67.1694064" id="Fill-20" fill="#FFFFFF"></path>
                    <path d="M122.597888,72.6580895 C123.202485,72.6580895 123.693173,72.1663035 123.693173,71.5603529 C123.693173,70.9544023 123.202485,70.4626163 122.597888,70.4626163 C121.99329,70.4626163 121.502602,70.9544023 121.502602,71.5603529 C121.502602,72.1663035 121.99329,72.6580895 122.597888,72.6580895" id="Fill-22" fill="#FFFFFF"></path>
                    <path d="M128.074314,78.1467726 C128.678912,78.1467726 129.1696,77.6549866 129.1696,77.049036 C129.1696,76.4430854 128.678912,75.9512994 128.074314,75.9512994 C127.469717,75.9512994 126.979029,76.4430854 126.979029,77.049036 C126.979029,77.6549866 127.469717,78.1467726 128.074314,78.1467726" id="Fill-24" fill="#FFFFFF"></path>
                    <path d="M122.597888,83.6354558 C123.202485,83.6354558 123.693173,83.1436698 123.693173,82.5377191 C123.693173,81.9317685 123.202485,81.4399825 122.597888,81.4399825 C121.99329,81.4399825 121.502602,81.9317685 121.502602,82.5377191 C121.502602,83.1436698 121.99329,83.6354558 122.597888,83.6354558" id="Fill-26" fill="#FFFFFF"></path>
                    <path d="M126.979029,88.0264023 C126.979029,88.4281739 127.204658,88.7640813 127.526672,88.9550874 L127.526672,87.0977171 C127.204658,87.2887233 126.979029,87.6246307 126.979029,88.0264023" id="Fill-28" fill="#FFFFFF"></path>
                    <path d="M122.597888,92.4173488 C121.99329,92.4173488 121.502602,92.9091348 121.502602,93.5150854 C121.502602,94.121036 121.99329,94.612822 122.597888,94.612822 C123.202485,94.612822 123.693173,94.121036 123.693173,93.5150854 C123.693173,92.9091348 123.202485,92.4173488 122.597888,92.4173488" id="Fill-30" fill="#FFFFFF"></path>
                    <path d="M111.645035,61.6807233 C112.249632,61.6807233 112.74032,61.1889372 112.74032,60.5829866 C112.74032,59.977036 112.249632,59.48525 111.645035,59.48525 C111.040437,59.48525 110.549749,59.977036 110.549749,60.5829866 C110.549749,61.1889372 111.040437,61.6807233 111.645035,61.6807233" id="Fill-32" fill="#FFFFFF"></path>
                    <path d="M117.121461,67.1694064 C117.726059,67.1694064 118.216747,66.6776204 118.216747,66.0716698 C118.216747,65.4657191 117.726059,64.9739331 117.121461,64.9739331 C116.516864,64.9739331 116.026176,65.4657191 116.026176,66.0716698 C116.026176,66.6776204 116.516864,67.1694064 117.121461,67.1694064" id="Fill-34" fill="#FFFFFF"></path>
                    <path d="M111.645035,72.6580895 C112.249632,72.6580895 112.74032,72.1663035 112.74032,71.5603529 C112.74032,70.9544023 112.249632,70.4626163 111.645035,70.4626163 C111.040437,70.4626163 110.549749,70.9544023 110.549749,71.5603529 C110.549749,72.1663035 111.040437,72.6580895 111.645035,72.6580895" id="Fill-36" fill="#FFFFFF"></path>
                    <path d="M117.121461,78.1467726 C117.726059,78.1467726 118.216747,77.6549866 118.216747,77.049036 C118.216747,76.4430854 117.726059,75.9512994 117.121461,75.9512994 C116.516864,75.9512994 116.026176,76.4430854 116.026176,77.049036 C116.026176,77.6549866 116.516864,78.1467726 117.121461,78.1467726" id="Fill-38" fill="#FFFFFF"></path>
                    <path d="M111.645035,81.4399825 C111.040437,81.4399825 110.549749,81.9317685 110.549749,82.5377191 C110.549749,83.1436698 111.040437,83.6354558 111.645035,83.6354558 C112.249632,83.6354558 112.74032,83.1436698 112.74032,82.5377191 C112.74032,81.9317685 112.249632,81.4399825 111.645035,81.4399825" id="Fill-40" fill="#FFFFFF"></path>
                    <path d="M117.121461,86.9286656 C116.516864,86.9286656 116.026176,87.4204516 116.026176,88.0264023 C116.026176,88.6323529 116.516864,89.1241389 117.121461,89.1241389 C117.726059,89.1241389 118.216747,88.6323529 118.216747,88.0264023 C118.216747,87.4204516 117.726059,86.9286656 117.121461,86.9286656" id="Fill-42" fill="#FFFFFF"></path>
                    <path d="M111.645035,92.4173488 C111.040437,92.4173488 110.549749,92.9091348 110.549749,93.5150854 C110.549749,94.121036 111.040437,94.612822 111.645035,94.612822 C112.249632,94.612822 112.74032,94.121036 112.74032,93.5150854 C112.74032,92.9091348 112.249632,92.4173488 111.645035,92.4173488" id="Fill-44" fill="#FFFFFF"></path>
                    <path d="M100.692182,61.6807233 C101.296779,61.6807233 101.787467,61.1889372 101.787467,60.5829866 C101.787467,59.977036 101.296779,59.48525 100.692182,59.48525 C100.087584,59.48525 99.5968963,59.977036 99.5968963,60.5829866 C99.5968963,61.1889372 100.087584,61.6807233 100.692182,61.6807233" id="Fill-46" fill="#FFFFFF"></path>
                    <path d="M106.168608,67.1694064 C106.773206,67.1694064 107.263893,66.6776204 107.263893,66.0716698 C107.263893,65.4657191 106.773206,64.9739331 106.168608,64.9739331 C105.564011,64.9739331 105.073323,65.4657191 105.073323,66.0716698 C105.073323,66.6776204 105.564011,67.1694064 106.168608,67.1694064" id="Fill-48" fill="#FFFFFF"></path>
                    <path d="M100.692182,70.4626163 C100.087584,70.4626163 99.5968963,70.9544023 99.5968963,71.5603529 C99.5968963,72.1663035 100.087584,72.6580895 100.692182,72.6580895 C101.296779,72.6580895 101.787467,72.1663035 101.787467,71.5603529 C101.787467,70.9544023 101.296779,70.4626163 100.692182,70.4626163" id="Fill-50" fill="#FFFFFF"></path>
                    <path d="M106.168608,75.9512994 C105.564011,75.9512994 105.073323,76.4430854 105.073323,77.049036 C105.073323,77.6549866 105.564011,78.1467726 106.168608,78.1467726 C106.773206,78.1467726 107.263893,77.6549866 107.263893,77.049036 C107.263893,76.4430854 106.773206,75.9512994 106.168608,75.9512994" id="Fill-52" fill="#FFFFFF"></path>
                    <path d="M100.692182,81.4399825 C100.087584,81.4399825 99.5968963,81.9317685 99.5968963,82.5377191 C99.5968963,83.1436698 100.087584,83.6354558 100.692182,83.6354558 C101.296779,83.6354558 101.787467,83.1436698 101.787467,82.5377191 C101.787467,81.9317685 101.296779,81.4399825 100.692182,81.4399825" id="Fill-54" fill="#FFFFFF"></path>
                    <path d="M106.168608,86.9286656 C105.564011,86.9286656 105.073323,87.4204516 105.073323,88.0264023 C105.073323,88.6323529 105.564011,89.1241389 106.168608,89.1241389 C106.773206,89.1241389 107.263893,88.6323529 107.263893,88.0264023 C107.263893,87.4204516 106.773206,86.9286656 106.168608,86.9286656" id="Fill-56" fill="#FFFFFF"></path>
                    <path d="M100.692182,92.4173488 C100.087584,92.4173488 99.5968963,92.9091348 99.5968963,93.5150854 C99.5968963,94.121036 100.087584,94.612822 100.692182,94.612822 C101.296779,94.612822 101.787467,94.121036 101.787467,93.5150854 C101.787467,92.9091348 101.296779,92.4173488 100.692182,92.4173488" id="Fill-58" fill="#FFFFFF"></path>
                    <path d="M95.2157551,64.9739331 C94.6111576,64.9739331 94.1204698,65.4657191 94.1204698,66.0716698 C94.1204698,66.6776204 94.6111576,67.1694064 95.2157551,67.1694064 C95.8203526,67.1694064 96.3110404,66.6776204 96.3110404,66.0716698 C96.3110404,65.4657191 95.8203526,64.9739331 95.2157551,64.9739331" id="Fill-60" fill="#FFFFFF"></path>
                    <path d="M89.7393286,72.6580895 C90.3439261,72.6580895 90.8346139,72.1663035 90.8346139,71.5603529 C90.8346139,70.9544023 90.3439261,70.4626163 89.7393286,70.4626163 C89.1347311,70.4626163 88.6440433,70.9544023 88.6440433,71.5603529 C88.6440433,72.1663035 89.1347311,72.6580895 89.7393286,72.6580895" id="Fill-62" fill="#FFFFFF"></path>
                    <path d="M95.2157551,75.9512994 C94.6111576,75.9512994 94.1204698,76.4430854 94.1204698,77.049036 C94.1204698,77.6549866 94.6111576,78.1467726 95.2157551,78.1467726 C95.8203526,78.1467726 96.3110404,77.6549866 96.3110404,77.049036 C96.3110404,76.4430854 95.8203526,75.9512994 95.2157551,75.9512994" id="Fill-64" fill="#FFFFFF"></path>
                    <path d="M89.7393286,81.4399825 C89.3362636,81.4399825 89.0011063,81.6683117 88.8105267,81.9910463 L90.6681305,81.9910463 C90.4775509,81.6683117 90.1423936,81.4399825 89.7393286,81.4399825" id="Fill-66" fill="#FFFFFF"></path>
                    <path d="M95.2157551,86.9286656 C94.6111576,86.9286656 94.1204698,87.4204516 94.1204698,88.0264023 C94.1204698,88.6323529 94.6111576,89.1241389 95.2157551,89.1241389 C95.8203526,89.1241389 96.3110404,88.6323529 96.3110404,88.0264023 C96.3110404,87.4204516 95.8203526,86.9286656 95.2157551,86.9286656" id="Fill-68" fill="#FFFFFF"></path>
                    <path d="M84.2629021,75.9512994 C83.6583046,75.9512994 83.1676168,76.4430854 83.1676168,77.049036 C83.1676168,77.6549866 83.6583046,78.1467726 84.2629021,78.1467726 C84.8674996,78.1467726 85.3581874,77.6549866 85.3581874,77.049036 C85.3581874,76.4430854 84.8674996,75.9512994 84.2629021,75.9512994" id="Fill-70" fill="#FFFFFF"></path>
                    <path d="M138.479525,80.8937488 C138.479525,68.76815 128.67234,58.9390163 116.573819,58.9390163 L103.430395,58.9390163 C91.3318734,58.9390163 81.5246888,68.76815 81.5246888,80.8937488 L81.5246888,83.089222 C81.5246888,70.9636233 91.3318734,67.7209093 103.430395,67.7209093 L116.573819,67.7209093 C128.67234,67.7209093 138.479525,70.9636233 138.479525,83.089222 L138.479525,80.8937488 Z" id="Fill-72" fill="#099C94"></path>
                    <polyline id="Stroke-74" stroke="#504B46" stroke-linecap="round" stroke-linejoin="round" points="92.4775419 79.7960121 92.4775419 97.3597981 127.526672 97.3597981 127.526672 79.7960121"></polyline>
                    <path d="M127.526672,81.9914854 L127.526672,81.9914854 L138.479525,81.9914854 L138.479525,80.8937488 C138.479525,68.76815 128.67234,58.9390163 116.573819,58.9390163 L103.430395,58.9390163 C91.3318734,58.9390163 81.5246888,68.76815 81.5246888,80.8937488 L81.5246888,81.9914854 L92.4775419,81.9914854" id="Stroke-76" stroke="#504B46" stroke-linecap="round" stroke-linejoin="round"></path>
                    <path d="M92.4775419,84.1869586 L92.4775419,81.9914854" id="Fill-78" fill="#EDF2F4"></path>
                    <path d="M92.4775419,84.1869586 L92.4775419,81.9914854" id="Stroke-80" stroke="#504B46" stroke-linecap="round" stroke-linejoin="round"></path>
                    <path d="M110.139017,84.1843241 L110.139017,96.259427" id="Fill-82" fill="#FFD183"></path>
                    <path d="M110.139017,84.1843241 L110.139017,96.259427" id="Stroke-84" stroke="#504A45" stroke-linecap="round" stroke-linejoin="round"></path>
                    <path d="M157.099375,101.74811 L153.813519,101.74811 L151.622948,101.74811 L149.294372,101.74811 C143.60765,101.74811 138.341519,99.7546204 138.341519,85.2842562 L138.341519,81.9910463 L129.579236,81.9910463 L129.579236,85.2842562 C129.579236,106.150034 140.302079,110.530003 149.294372,110.530003 L151.622948,110.530003 L153.813519,110.530003 L157.099375,110.530003 C159.519955,110.530003 161.480516,108.562859 161.480516,106.139057 C161.480516,103.713059 159.519955,101.74811 157.099375,101.74811" id="Fill-86" fill="#FFD4C3"></path>
                    <path d="M157.099375,101.74811 L153.813519,101.74811 L151.622948,101.74811 L149.294372,101.74811 C143.60765,101.74811 138.341519,99.7546204 138.341519,85.2842562 L138.341519,81.9910463 L129.579236,81.9910463 L129.579236,85.2842562 C129.579236,106.150034 140.302079,110.530003 149.294372,110.530003 L151.622948,110.530003 L153.813519,110.530003 L157.099375,110.530003 C159.519955,110.530003 161.480516,108.562859 161.480516,106.139057 C161.480516,103.713059 159.519955,101.74811 157.099375,101.74811 L157.099375,101.74811 Z" id="Stroke-88" stroke="#504A45"></path>
                    <path d="M116.573819,60.9028671 C116.573819,63.1049267 115.476343,65.1620852 113.647216,66.3827683 C111.439121,67.8581263 108.565092,67.8581263 106.356997,66.3827683 C104.527871,65.1620852 103.430395,63.1049267 103.430395,60.9028671 L103.430395,51.2559576 L116.573819,51.2559576 L116.573819,60.9028671 Z" id="Fill-90" fill="#FFDFD1"></path>
                    <path d="M103.430395,58.7036615 C103.596878,58.7783076 103.752409,58.8617356 103.927654,58.9297953 C107.605622,60.4051533 112.398591,60.4051533 116.076559,58.9297953 C116.251805,58.8617356 116.407335,58.7783076 116.573819,58.7036615 L116.573819,51.2544208 L103.430395,51.2544208 L103.430395,58.7036615 Z" id="Fill-92" fill="#FFCAB3"></path>
                    <path d="M116.573819,60.9028671 C116.573819,63.1049267 115.476343,65.1620852 113.647216,66.3827683 C111.439121,67.8581263 108.565092,67.8581263 106.356997,66.3827683 C104.527871,65.1620852 103.430395,63.1049267 103.430395,60.9028671 L103.430395,51.2559576 L116.573819,51.2559576 L116.573819,60.9028671 L116.573819,60.9028671 Z" id="Stroke-94" stroke="#504B46" stroke-linecap="round" stroke-linejoin="round"></path>
                    <path d="M131.907813,34.7888105 C131.907813,32.7448249 130.508038,31.0433331 128.621957,30.5537426 L128.621957,29.3001274 C128.621957,19.6005265 119.680048,11.7363414 110.002107,11.7363414 C100.324166,11.7363414 91.3822566,19.6005265 91.3822566,29.3001274 L91.3822566,30.5537426 C89.4961753,31.0433331 88.0964006,32.7448249 88.0964006,34.7888105 C88.0964006,36.8503599 89.518081,38.56722 91.4304491,39.0392467 C91.9298992,48.290971 100.64618,55.6458064 110.002107,55.6458064 C119.358034,55.6458064 128.074314,48.290971 128.573764,39.0392467 C130.486133,38.56722 131.907813,36.8503599 131.907813,34.7888105" id="Fill-96" fill="#FFD4C3"></path>
                    <path d="M131.907813,34.7888105 C131.907813,32.7448249 130.508038,31.0433331 128.621957,30.5537426 L128.621957,29.3001274 C128.621957,19.6005265 119.680048,11.7363414 110.002107,11.7363414 C100.324166,11.7363414 91.3822566,19.6005265 91.3822566,29.3001274 L91.3822566,30.5537426 C89.4961753,31.0433331 88.0964006,32.7448249 88.0964006,34.7888105 C88.0964006,36.8503599 89.518081,38.56722 91.4304491,39.0392467 C91.9298992,48.290971 100.64618,55.6458064 110.002107,55.6458064 C119.358034,55.6458064 128.074314,48.290971 128.573764,39.0392467 C130.486133,38.56722 131.907813,36.8503599 131.907813,34.7888105 L131.907813,34.7888105 Z" id="Stroke-98" stroke="#504A45"></path>
                    <path d="M106.716251,35.8865471 C106.039365,34.5978043 104.852075,33.6910739 103.430395,33.6910739 C102.008715,33.6910739 100.821425,34.5978043 100.144539,35.8865471" id="Stroke-100" stroke="#504B46" stroke-linecap="round" stroke-linejoin="round"></path>
                    <path d="M119.859674,35.8865471 C119.182788,34.5978043 117.995499,33.6910739 116.573819,33.6910739 C115.152138,33.6910739 113.964849,34.5978043 113.287963,35.8865471" id="Stroke-102" stroke="#504B46" stroke-linecap="round" stroke-linejoin="round"></path>
                    <path d="M111.234303,27.1020195 C117.437999,27.1020195 123.076527,25.5937294 127.34814,23.1369949 C124.559544,16.4825154 117.512478,11.7359023 110.003202,11.7359023 C102.958327,11.7359023 96.3230886,15.9116924 93.2234312,21.9185072 C97.6374309,25.090966 104.060184,27.1020195 111.234303,27.1020195" id="Fill-104" fill="#F9BEAA"></path>
                    <path d="M124.970933,20.8813656 C125.03665,23.0856208 130.298401,53.3260693 110.138579,54.544557 C90.4300155,55.7388944 93.8911171,20.5147216 96.9951556,20.5147216 C102.471582,21.6124582 113.553679,24.2997175 125.336758,19.416985 C132.044285,-8.02643066 84.3029895,-2.11621667 85.9064872,20.5147216 C90.4234438,18.3192484 91.3829137,21.6124582 91.3829137,24.9056681 C91.3829137,35.4000302 91.9305564,42.19502 91.3829137,45.762664 C87.7202797,69.6120899 103.932693,70.8283821 110.322587,83.6345776 C117.441942,70.0972895 134.147233,64.3209994 128.622614,44.9393615 C127.80115,42.0589006 130.675179,20.8813656 124.970933,20.8813656" id="Fill-106" fill="#FFD183"></path>
                    <path d="M128.873653,55.4249418 C128.799174,55.4227463 128.726885,55.4095735 128.652406,55.4051825 C128.880225,55.4886105 129.110235,55.5786249 129.331483,55.6510755 C129.344626,55.5786249 129.351198,55.5017833 129.364341,55.4293327 C129.197858,55.4249418 129.044518,55.4315282 128.873653,55.4249418" id="Fill-108" fill="#FFC258"></path>
                    <path d="M90.9715246,55.4271372 C90.9780963,55.4820241 90.9868586,55.53252 90.9934303,55.5852113 C91.1555325,55.5303245 91.3242064,55.4666558 91.4884992,55.4051825 C91.4162104,55.4095735 91.3439216,55.4227463 91.2694422,55.4249418 C91.1664853,55.4293327 91.0722908,55.4249418 90.9715246,55.4271372" id="Fill-110" fill="#FFC258"></path>
                    <path d="M108.68645,54.3331329 C106.342539,54.2650733 104.353501,53.6525362 102.679905,52.6272502 C99.4093835,54.2145774 95.5605509,55.2003449 91.4904707,55.4045239 C91.3239874,55.4659971 91.1553134,55.5296658 90.9932112,55.5867481 C91.2473174,57.7405074 91.7314335,59.6373963 92.3929858,61.3323016 C99.0347959,60.8053881 105.030388,58.2366844 108.68645,54.3331329" id="Fill-112" fill="#FFC258"></path>
                    <path d="M128.653282,55.4051825 C124.359764,55.1878307 120.324733,54.094485 116.946873,52.3490837 C115.369662,53.268987 113.514249,53.9100652 111.339012,54.1888903 C114.916214,58.0990282 120.808849,60.700664 127.382751,61.3000282 C128.276504,59.554627 128.957771,57.6928656 129.330168,55.6510755 C129.111111,55.5786249 128.878911,55.4886105 128.653282,55.4051825" id="Fill-114" fill="#FFC258"></path>
                    <path d="M90.2085488,20.7395381 C95.6674508,8.63808951 116.972941,4.46449486 125.472355,12.8029023 C123.831617,-7.2351821 84.009234,-0.545575103 85.4747257,20.1621286 C88.0486462,18.9129043 89.4637548,19.4442088 90.2085488,20.7395381" id="Fill-116" fill="#FFEDD8"></path>
                    <path d="M124.970933,20.8813656 C125.03665,23.0856208 130.298401,53.3260693 110.138579,54.544557 C90.4300155,55.7388944 93.8911171,20.5147216 96.9951556,20.5147216 C102.471582,21.6124582 113.553679,24.2997175 125.336758,19.416985 C132.044285,-8.02643066 84.3029895,-2.11621667 85.9064872,20.5147216 C90.4234438,18.3192484 91.3829137,21.6124582 91.3829137,24.9056681 C91.3829137,35.4000302 91.9305564,42.19502 91.3829137,45.762664 C87.7202797,69.6120899 103.932693,70.8283821 110.322587,83.6345776 C117.441942,70.0972895 134.646683,64.0136331 128.074971,44.528808 C127.117692,41.6900611 133.003755,20.8813656 124.970933,20.8813656 L124.970933,20.8813656 Z" id="Stroke-118" stroke="#504A45" stroke-linecap="round" stroke-linejoin="round"></path>
                    <path d="M132.409892,45.9464251 C135.421926,44.7125691 137.246672,49.7423984 133.413173,50.4295815 C127.724261,51.4482811 114.883136,40.5806885 110.13836,43.5687276 C105.395775,40.5806885 92.5546499,51.4482811 86.8635475,50.4295815 C83.0300489,49.7423984 84.8569848,44.7125691 87.8690194,45.9464251 C80.0180143,39.5883346 76.8438775,56.2717358 91.3366927,55.6438305 C99.3519905,55.2969457 106.578683,51.9378716 110.13836,46.8619374 C113.698037,51.9378716 120.92692,55.2969457 128.942218,55.6438305 C143.435034,56.2717358 140.258706,39.5883346 132.409892,45.9464251" id="Fill-120" fill="#FFD183"></path>
                    <path d="M132.409892,45.9464251 C135.421926,44.7125691 137.246672,49.7423984 133.413173,50.4295815 C127.724261,51.4482811 114.883136,40.5806885 110.13836,43.5687276 C105.395775,40.5806885 92.5546499,51.4482811 86.8635475,50.4295815 C83.0300489,49.7423984 84.8569848,44.7125691 87.8690194,45.9464251 C80.0180143,39.5883346 76.8438775,56.2717358 91.3366927,55.6438305 C99.3519905,55.2969457 106.578683,51.9378716 110.13836,46.8619374 C113.698037,51.9378716 120.92692,55.2969457 128.942218,55.6438305 C143.435034,56.2717358 140.258706,39.5883346 132.409892,45.9464251 L132.409892,45.9464251 Z" id="Stroke-122" stroke="#504A45" stroke-linecap="round" stroke-linejoin="round"></path>
                    <path d="M115.615444,106.139057 C115.615444,103.713059 113.654883,101.74811 111.234303,101.74811 L107.948447,101.74811 L105.757876,101.74811 L103.43149,101.74811 C97.7425783,101.74811 92.4786371,99.7546204 92.4786371,85.2842562 L92.4786371,81.9910463 L83.7163547,81.9910463 L83.7163547,85.2842562 C83.7163547,106.150034 94.4370073,110.530003 103.43149,110.530003 L105.757876,110.530003 L107.948447,110.530003 L111.234303,110.530003 C113.654883,110.530003 115.615444,108.562859 115.615444,106.139057" id="Fill-124" fill="#FFD4C3"></path>
                    <path d="M115.615444,106.139057 C115.615444,103.713059 113.654883,101.74811 111.234303,101.74811 L107.948447,101.74811 L105.757876,101.74811 L103.43149,101.74811 C97.7425783,101.74811 92.4786371,99.7546204 92.4786371,85.2842562 L92.4786371,81.9910463 L83.7163547,81.9910463 L83.7163547,85.2842562 C83.7163547,106.150034 94.4370073,110.530003 103.43149,110.530003 L105.757876,110.530003 L107.948447,110.530003 L111.234303,110.530003 C113.654883,110.530003 115.615444,108.562859 115.615444,106.139057 L115.615444,106.139057 Z" id="Stroke-126" stroke="#504A45"></path>
                    <path d="M181.332562,113.823213 C181.332562,115.641065 163.678754,117.116423 141.902291,117.116423 C120.125829,117.116423 102.47202,115.641065 102.47202,113.823213 C102.47202,112.005361 120.125829,110.530003 141.902291,110.530003 C163.678754,110.530003 181.332562,112.005361 181.332562,113.823213" id="Fill-128" fill="#E3ECF1"></path>
                    <path d="M133.820838,106.139057 L129.439697,106.139057 L139.901862,73.6306842 C140.195399,72.7239537 141.036578,72.1092212 141.987285,72.1092212 L144.773691,72.1092212" id="Fill-130" fill="#E3ECF1"></path>
                    <path d="M133.820838,106.139057 L129.439697,106.139057 L139.901862,73.6306842 C140.195399,72.7239537 141.036578,72.1092212 141.987285,72.1092212 L144.773691,72.1092212" id="Stroke-132" stroke="#504A45" stroke-linejoin="round"></path>
                    <path d="M176.536965,106.139057 L133.820838,106.139057 L144.773691,72.1092212 L184.482165,72.1092212 C185.180957,72.1092212 185.840318,72.4451286 186.252146,73.0115607 C186.663973,73.5801883 186.782264,74.3112809 186.565397,74.9787047 L176.536965,106.139057 Z" id="Fill-134" fill="#ADBAC7"></path>
                    <path d="M176.536965,106.139057 L133.820838,106.139057 L144.773691,72.1092212 L184.482165,72.1092212 C185.180957,72.1092212 185.840318,72.4451286 186.252146,73.0115607 C186.663973,73.5801883 186.782264,74.3112809 186.565397,74.9787047 L176.536965,106.139057 L176.536965,106.139057 Z" id="Stroke-136" stroke="#504A45" stroke-linejoin="round"></path>
                    <polygon id="Fill-138" fill="#CAD7DE" points="173.665565 72.1092212 144.774129 72.1092212 133.821276 106.139057 139.711721 106.139057"></polygon>
                    <path d="M176.536965,106.139057 L131.630268,106.139057 L131.630268,111.62774 L172.155824,111.62774 C174.576404,111.62774 176.536965,109.662791 176.536965,107.236793 L176.536965,106.139057 Z" id="Fill-140" fill="#CAD7DE"></path>
                    <path d="M176.536965,106.139057 L131.630268,106.139057 L131.630268,111.62774 L172.155824,111.62774 C174.576404,111.62774 176.536965,109.662791 176.536965,107.236793 L176.536965,106.139057 L176.536965,106.139057 Z" id="Stroke-142" stroke="#504A45" stroke-linejoin="round"></path>
                    <path d="M131.630268,106.139057 L109.724561,106.139057 L109.724561,107.236793 C109.724561,109.662791 111.685122,111.62774 114.105703,111.62774 L131.630268,111.62774 L131.630268,106.139057 Z" id="Fill-144" fill="#E3ECF1"></path>
                    <path d="M131.630268,106.139057 L109.724561,106.139057 L109.724561,107.236793 C109.724561,109.662791 111.685122,111.62774 114.105703,111.62774 L131.630268,111.62774 L131.630268,106.139057 L131.630268,106.139057 Z" id="Stroke-146" stroke="#504A45" stroke-linejoin="round"></path>
                    <path d="M176.536965,106.139057 L133.820838,106.139057 L144.773691,72.1092212 L184.482165,72.1092212 C185.180957,72.1092212 185.840318,72.4451286 186.252146,73.0115607 C186.663973,73.5801883 186.782264,74.3112809 186.565397,74.9787047 L176.536965,106.139057 L176.536965,106.139057 Z" id="Stroke-154" stroke="#504A45" stroke-linejoin="round"></path>
                    <g id="caneca" transform="translate(190.471910, 57.444444)">
                        <path d="M16.2761228,0.603198354 C14.9924484,1.88974568 14.9924484,3.97544527 16.2761228,5.25979712 L18.2016343,7.18961811 C19.4831182,8.47616543 19.4831182,10.561865 18.2016343,11.8462169 L16.2761228,13.7760379 C14.9924484,15.0625852 14.9924484,17.1482848 16.2761228,18.4326366" id="Stroke-156" stroke="#ADBAC7" stroke-linecap="round" stroke-linejoin="round"></path>
                        <path d="M24.584738,0.603198354 C23.3010637,1.88974568 23.3010637,3.97544527 24.584738,5.25979712 L26.5102496,7.18961811 C27.7917334,8.47616543 27.7917334,10.561865 26.5102496,11.8462169 L24.584738,13.7760379 C23.3010637,15.0625852 23.3010637,17.1482848 24.584738,18.4326366" id="Stroke-158" stroke="#ADBAC7" stroke-linecap="round" stroke-linejoin="round"></path>
                        <path d="M35.1389072,51.365394 C35.1389072,52.5772953 28.273659,53.5608673 19.804913,53.5608673 C11.336167,53.5608673 4.4709187,52.5772953 4.4709187,51.365394 C4.4709187,50.1534928 11.336167,49.1699208 19.804913,49.1699208 C28.273659,49.1699208 35.1389072,50.1534928 35.1389072,51.365394" id="Fill-160" fill="#E3ECF1"></path>
                        <path d="M9.94734523,45.8767109 C5.11494646,45.8767109 1.18506279,41.9380319 1.18506279,37.0948179 C1.18506279,32.2516039 5.11494646,28.3129249 9.94734523,28.3129249 L9.94734523,32.7038714 C7.53114585,32.7038714 5.56620401,34.6732109 5.56620401,37.0948179 C5.56620401,39.5164249 7.53114585,41.4857644 9.94734523,41.4857644 L9.94734523,45.8767109 Z" id="Fill-162" fill="#FFFFFF"></path>
                        <path d="M9.94734523,45.8767109 C5.11494646,45.8767109 1.18506279,41.9380319 1.18506279,37.0948179 C1.18506279,32.2516039 5.11494646,28.3129249 9.94734523,28.3129249 L9.94734523,32.7038714 C7.53114585,32.7038714 5.56620401,34.6732109 5.56620401,37.0948179 C5.56620401,39.5164249 7.53114585,41.4857644 9.94734523,41.4857644 L9.94734523,45.8767109 L9.94734523,45.8767109 Z" id="Stroke-164" stroke="#504A45" stroke-linejoin="round"></path>
                        <path d="M31.7161407,48.0721842 C31.7161407,49.2840854 30.734765,50.2676574 29.5255701,50.2676574 L12.2748265,50.2676574 C11.0656315,50.2676574 10.0842559,49.2840854 10.0842559,48.0721842 L10.0842559,25.019715 C10.0842559,23.8078138 11.0656315,22.8242418 12.2748265,22.8242418 L29.5255701,22.8242418 C30.734765,22.8242418 31.7161407,23.8078138 31.7161407,25.019715 L31.7161407,48.0721842 Z" id="Fill-166" fill="#FFFFFF"></path>
                        <path d="M31.7161407,48.0721842 C31.7161407,49.2840854 30.734765,50.2676574 29.5255701,50.2676574 L12.2748265,50.2676574 C11.0656315,50.2676574 10.0842559,49.2840854 10.0842559,48.0721842 L10.0842559,25.019715 C10.0842559,23.8078138 11.0656315,22.8242418 12.2748265,22.8242418 L29.5255701,22.8242418 C30.734765,22.8242418 31.7161407,23.8078138 31.7161407,25.019715 L31.7161407,48.0721842 L31.7161407,48.0721842 Z" id="Stroke-168" stroke="#504A45" stroke-linejoin="round"></path>
                        <path d="M24.0491435,35.9970813 C24.0491435,35.9970813 27.7687324,34.297785 27.7687324,31.5688117 C27.7687324,28.8354475 24.4697331,28.6246821 24.0491435,31.3580463 C23.628554,28.6246821 20.3295546,28.8354475 20.3295546,31.7773817 C20.3295546,34.7193158 24.0491435,35.9970813 24.0491435,35.9970813" id="Fill-170" fill="#E05C4A"></path>
                        <path d="M16.9297891,30.5083981 L16.9297891,34.8993447" id="Stroke-172" stroke="#504A45" stroke-linecap="round" stroke-linejoin="round"></path>
                        <polyline id="Stroke-174" stroke="#504A45" stroke-linecap="round" stroke-linejoin="round" points="15.2868611 42.583501 15.2868611 38.1925545 18.572717 42.583501 18.572717 38.1925545"></polyline>
                        <polyline id="Stroke-176" stroke="#504A45" stroke-linecap="round" stroke-linejoin="round" points="22.4062156 38.1925545 24.0491435 40.3880278 25.6920715 38.1925545"></polyline>
                        <path d="M24.0491435,42.583501 L24.0491435,40.3880278" id="Stroke-178" stroke="#504A45" stroke-linecap="round" stroke-linejoin="round"></path>
                        <path d="M15.8345037,30.5083981 L18.0250744,30.5083981" id="Stroke-180" stroke="#504A45" stroke-linecap="round" stroke-linejoin="round"></path>
                        <path d="M15.8345037,34.8993447 L18.0250744,34.8993447" id="Stroke-182" stroke="#504A45" stroke-linecap="round" stroke-linejoin="round"></path>
                    </g>
                </g>
            </g>
        </g>
    </g>
</svg>