<svg width="1792" height="1792" viewBox="0 0 1792 1792" xmlns="http://www.w3.org/2000/svg"><path d="M1281.4 128c7.1 1.8 14.3 3.6 21.4 5.3 77.4 19.3 132.9 82.9 134.9 162.6 2.6 102.9.8 205.9.9 308.9 0 .8-.9 1.5-2.2 3.6-6.8-5.8-13.4-11.5-20-17.3-26.3-22.9-51.9-46.6-79-68.4-11.9-9.6-15.4-19.8-15.2-34.4.7-56.5.3-113 .3-169.5 0-50.9-22.3-73.6-72.3-73.6-265.1 0-530.2-.1-795.2.2-10.8 0-22.1.8-32.3 4-26.6 8.3-40.2 30.9-40.3 64.7-.1 85.5 0 171 0 256.4 0 299.9 0 599.9.1 899.8 0 8.5.3 17 1.5 25.4 3.7 25.6 22 44.6 47.4 49.1 7.8 1.4 15.8 1.7 23.7 1.7 265.1.1 530.2.1 795.2-.1 10.8 0 22-.9 32.2-4.1 26.1-8.3 39.8-30.6 40-63.4.2-59.5.4-119-.2-178.5-.1-12.5 3-21.1 13-29.3 31-25.7 61.1-52.8 91.5-79.2 3.2-2.8 6.3-5.3 12.3-9.7v12.3c0 96.5.3 193-.2 289.4-.5 86.3-54.9 155-137.3 175-6.7 1.6-13.4 3.3-20 4.9h-858c-16.6-4.8-33.7-8.2-49.5-14.7-67.9-28.1-107.8-91.9-107.8-171-.1-388.2 0-776.3 0-1164.5 0-5.5 0-11 .4-16.5 4.5-79.6 57.5-144.1 134.2-163.5 7.6-1.9 15.2-3.8 22.8-5.8 285.7.2 571.7.2 857.7.2zm235.7 760c-139.5-121.8-279.2-243.5-418.5-365.6-13.5-11.8-27.2-16.3-43.5-9.5-15.7 6.7-23.4 20.1-23.9 36.7-1.3 50.4-1.8 100.7-2.6 151.2-.1 5.8 0 12.2 0 18.2h-19.9c-107.7 0-215.5.1-323.2.2-44.3 0-67.4 23-67.5 67.2-.2 73-.2 146 0 219 .1 44.3 23.2 67.5 67.3 67.5 108.2.1 216.5.2 324.7.2h18.6c0 29-.3 57.5.1 85.4.4 27.4.8 54.9 2.7 82.2 1.3 17.4 10 31.7 27.3 37.6 15.7 5.4 28.8 1.3 42-10.3 73.4-65.1 147.6-129.3 221.5-193.8 67.5-58.9 135-117.9 203.8-177.9-3.8-3.6-6.3-6-8.9-8.3z"/></svg>
