<svg xmlns="http://www.w3.org/2000/svg" viewBox="0 0 329.43 79.41"><defs><style>.cls-1{fill:#5e4596;}.cls-2{fill:#362a5b;}.cls-3{fill:#fcc14c;}.cls-4{fill:#fdcc75;}.cls-5{fill:#735fa6;}</style></defs><title>Ativo 5</title><g id="Camada_2" data-name="Camada 2"><g id="Camada_1-2" data-name="Camada 1"><path class="cls-1" d="M133.39,18.55a.85.85,0,0,1,.52.34.92.92,0,0,1,.23.58v5.45c0,.51-.25.72-.75.64s-.86-.14-1.31-.2a10,10,0,0,0-1.36-.09,13.25,13.25,0,0,0-5.39,1.1,14.71,14.71,0,0,0-4.38,3,13.89,13.89,0,0,0-3,15.13,13.77,13.77,0,0,0,3,4.38,14,14,0,0,0,4.38,3,13.58,13.58,0,0,0,5.39,1.07V39.07h-2.67a.86.86,0,0,1-.55-.23.69.69,0,0,1-.26-.52V33a.9.9,0,0,1,.81-.81h8.76a.75.75,0,0,1,.58.26.86.86,0,0,1,.23.55V59q0,.75-.81.75h-6.09a20.19,20.19,0,0,1-8.06-1.62,20.76,20.76,0,0,1-11-11,20.74,20.74,0,0,1,0-16.12,20.65,20.65,0,0,1,4.43-6.55,21.3,21.3,0,0,1,6.58-4.41,20.19,20.19,0,0,1,8.06-1.62l1.34,0C132.52,18.48,133,18.51,133.39,18.55Z"/><path class="cls-1" d="M157.8,17.44a13.73,13.73,0,0,1,9.74,4,14.6,14.6,0,0,1,3,4.41,13.67,13.67,0,0,1-.87,12.44,13.85,13.85,0,0,1-5.16,4.93l6.78,14.84c.19.46,0,.7-.46.7h-6a1.24,1.24,0,0,1-.64-.21,1,1,0,0,1-.46-.49l-2.44-5.39L154.9,38.84c-.19-.46,0-.7.46-.7h2.44a6.62,6.62,0,0,0,2.67-.55,6.9,6.9,0,0,0,3.68-3.68,6.62,6.62,0,0,0,.55-2.67,6.54,6.54,0,0,0-.55-2.69,7.19,7.19,0,0,0-1.48-2.18,7,7,0,0,0-2.2-1.48,6.79,6.79,0,0,0-2.67-.55h-6.9V58a.68.68,0,0,1-.26.52.82.82,0,0,1-.55.24h-5.34A.67.67,0,0,1,144,58V18.2a.67.67,0,0,1,.75-.76Z"/><path class="cls-1" d="M178.21,58.79c-.54,0-.81-.25-.81-.76V18.2c0-.5.27-.76.81-.76h5.28c.54,0,.81.26.81.76V58c0,.51-.27.76-.81.76Z"/><path class="cls-1" d="M196.76,17.44a2,2,0,0,1,.73.15A1.1,1.1,0,0,1,198,18l6.43,8.53L210.91,18a1.1,1.1,0,0,1,.55-.43,2,2,0,0,1,.73-.15h5.27c.54,0,.82.26.82.76V58c0,.51-.28.76-.82.76h-5.27c-.55,0-.82-.25-.82-.76V28.87l-6.43,8.52a.52.52,0,0,1-.93,0l-6.44-8.52V58c0,.51-.27.76-.81.76h-5.27c-.55,0-.82-.25-.82-.76V18.2c0-.5.27-.76.82-.76Z"/><path class="cls-1" d="M242.66,32.35a13.69,13.69,0,0,1,4.38,3,14.71,14.71,0,0,1,3,4.49,13.76,13.76,0,0,1,1.1,5.48,13.48,13.48,0,0,1-1.1,5.45,14.74,14.74,0,0,1-3,4.47,13.69,13.69,0,0,1-4.38,3,13.52,13.52,0,0,1-10.73,0,13.69,13.69,0,0,1-4.38-3,14.74,14.74,0,0,1-3-4.47,13.48,13.48,0,0,1-1.11-5.45,13.77,13.77,0,0,1,1.11-5.48,14.71,14.71,0,0,1,3-4.49,13.69,13.69,0,0,1,4.38-3,13.52,13.52,0,0,1,10.73,0ZM240,51.68a6.85,6.85,0,0,0,2.17-1.48,6.77,6.77,0,0,0,1.48-2.2,6.62,6.62,0,0,0,.55-2.67,6.54,6.54,0,0,0-.55-2.69,7,7,0,0,0-1.48-2.18A7.2,7.2,0,0,0,240,39a6.88,6.88,0,0,0-5.39,0,7.37,7.37,0,0,0-2.18,1.48,7.19,7.19,0,0,0-1.48,2.18,6.7,6.7,0,0,0-.55,2.69,6.79,6.79,0,0,0,.55,2.67,6.93,6.93,0,0,0,1.48,2.2,7,7,0,0,0,2.18,1.48,6.88,6.88,0,0,0,5.39,0Zm-2.35-34.06-2.72,8.29c-.16.39,0,.58.4.58H239a.82.82,0,0,0,.81-.52l4.69-8.35c.2-.35.1-.52-.29-.52H238.4C238,17.1,237.72,17.27,237.64,17.62Z"/><path class="cls-1" d="M270.11,17.44a13.52,13.52,0,0,1,5.37,1.08,13.38,13.38,0,0,1,4.37,2.95,14.42,14.42,0,0,1,3,4.41,13.67,13.67,0,0,1-.87,12.44,13.7,13.7,0,0,1-5.16,4.93l6.79,14.84c.19.46,0,.7-.47.7h-6a1.27,1.27,0,0,1-.64-.21,1,1,0,0,1-.46-.49l-2.44-5.39-6.32-13.86c-.19-.46,0-.7.47-.7h2.43a6.62,6.62,0,0,0,2.67-.55,6.9,6.9,0,0,0,3.68-3.68,6.62,6.62,0,0,0,.55-2.67,6.54,6.54,0,0,0-.55-2.69A7.19,7.19,0,0,0,275,26.37a7,7,0,0,0-2.2-1.48,6.79,6.79,0,0,0-2.67-.55h-6.9V58a.65.65,0,0,1-.26.52.8.8,0,0,1-.55.24h-5.33a.67.67,0,0,1-.76-.76V18.2a.67.67,0,0,1,.76-.76Z"/><path class="cls-1" d="M290.52,58.79c-.54,0-.81-.25-.81-.76V18.2c0-.5.27-.76.81-.76h5.28c.54,0,.81.26.81.76V58c0,.51-.27.76-.81.76Z"/><path class="cls-1" d="M315.63,17.1A13.15,13.15,0,0,1,321,18.2a13.69,13.69,0,0,1,4.38,3,14.78,14.78,0,0,1,3,4.5,14.2,14.2,0,0,1,0,11,14.74,14.74,0,0,1-3,4.49,13.69,13.69,0,0,1-4.38,3,13.52,13.52,0,0,1-10.73,0,13.54,13.54,0,0,1-4.37-3,14.56,14.56,0,0,1-3-4.49,14.2,14.2,0,0,1,0-11,14.6,14.6,0,0,1,3-4.5,13.54,13.54,0,0,1,4.37-3A13.2,13.2,0,0,1,315.63,17.1Zm10.9,41.69h-21.8a.72.72,0,0,1-.81-.82V52.7a.71.71,0,0,1,.81-.81h21.8a.72.72,0,0,1,.81.81V58A.72.72,0,0,1,326.53,58.79Zm-10.9-20.7a6.55,6.55,0,0,0,2.69-.56A6.95,6.95,0,0,0,322,33.88a6.88,6.88,0,0,0,0-5.39,7,7,0,0,0-3.66-3.65,6.88,6.88,0,0,0-5.39,0,7.07,7.07,0,0,0-3.65,3.65,6.88,6.88,0,0,0,0,5.39,7.19,7.19,0,0,0,1.48,2.18,7.11,7.11,0,0,0,2.17,1.47A6.56,6.56,0,0,0,315.63,38.09Z"/><path class="cls-2" d="M5.22,41.65c5.1,6,12.42,9.68,19.67,12.8a238,238,0,0,0,26.66,9.61l-8-1.41A174,174,0,0,0,82.66,77.73a53.79,53.79,0,0,0,29.71-.87c8-2.58,3.75-6.7,1.83-7.9a19.05,19.05,0,0,0-6.3-2.06l-.1,0c-15.27-3.14-30.5-7.81-43.36-16.6C50.21,40.53,38.92,25.8,23.19,19.35c-1.26-.52-2.54-1-3.86-1.39-4.9-1.49-10.74-1.91-14.65,1.39a11.65,11.65,0,0,0-2.74,3.49C-1.77,29.81.12,35.61,5.22,41.65Z"/><path class="cls-1" d="M42.9,25.83,85.08,43.36c.07-.57.14-1.14.23-1.71a53.16,53.16,0,0,1,2.83-12.24,22.6,22.6,0,0,1,5.33-8.27,37,37,0,0,1,7.6-5.16L123.53,3.26c1.48-.84,2.63-2.6-.79-2.32A195.67,195.67,0,0,1,93,.81C88.86.52,84.68.07,80.59.69,73.31,1.78,67,6.1,61.09,10.55q-2.37,1.8-4.69,3.66Q51.66,18,47.1,22C45.69,23.29,44.29,24.56,42.9,25.83Z"/><path class="cls-1" d="M23.19,19.35c15.73,6.45,27,21.18,41.25,30.93,12.86,8.79,28.09,13.46,43.36,16.6l.1,0A47.92,47.92,0,0,1,86.64,43.38a8.79,8.79,0,0,0-1.21-2.31,8.22,8.22,0,0,0-2.62-1.84A141.33,141.33,0,0,1,59.75,24a10.92,10.92,0,0,0-3.55-2.23,12,12,0,0,0-5.33.07,53.61,53.61,0,0,1-20.69-1A41.58,41.58,0,0,0,23.19,19.35Z"/><path class="cls-3" d="M47.1,22c4.37,1,8.35,3.45,12,6.17,4.24,3.19,8.2,6.81,12.88,9.28,4.15,2.19,9.24,3.39,13.89,4.16.55-4.15.81-8.39,2.31-12.24a21.73,21.73,0,0,1-5.12-1c-3.48-1.19-6.45-3.47-9.47-5.54A65.34,65.34,0,0,0,56.4,14.21Q51.66,18,47.1,22Z"/><path class="cls-4" d="M57.72,16.61c-1.17.93-2.26,2-3.43,2.9s-2.41,1.77-3.48,2.8c-.18.17,0,.43.26.33A25.58,25.58,0,0,0,58.14,17a.3.3,0,0,0-.42-.42Z"/><path class="cls-5" d="M87.36,3.64c-5.94-.83-12.84.51-17.49,4.48-.4.33.11.91.53.69C76,5.87,80.83,4.16,87.25,4.43c.45,0,.56-.73.11-.79Z"/><path class="cls-5" d="M89.38,59C85.65,57.09,81.65,56,78,53.86s-7-5.13-10.6-7.66c-.39-.28-.86.34-.51.66A54.68,54.68,0,0,0,89.11,59.6c.38.11.63-.46.27-.64Z"/><path class="cls-5" d="M63,42.45a12.93,12.93,0,0,0-2-2,8.48,8.48,0,0,0-2.25-1.47c-.38-.16-.61.38-.38.63a21.1,21.1,0,0,0,1.94,1.72c.67.56,1.26,1.2,1.92,1.76.4.35,1.15-.12.78-.6Z"/><polygon class="cls-5" points="29.77 11.62 25.84 8.89 21.06 8.71 23.79 4.78 23.96 0 27.89 2.73 32.67 2.9 29.95 6.83 29.77 11.62"/><polygon class="cls-5" points="16.87 73.91 15.22 72.61 13.12 72.41 14.42 70.76 14.62 68.66 16.28 69.96 18.37 70.16 17.07 71.82 16.87 73.91"/><polygon class="cls-1" points="42.09 77.62 40.91 74.22 38.08 72 41.48 70.82 43.7 67.99 44.88 71.39 47.71 73.61 44.31 74.79 42.09 77.62"/><polygon class="cls-1" points="42.83 11.91 40.91 10.4 38.47 10.16 39.98 8.24 40.21 5.81 42.14 7.32 44.57 7.55 43.06 9.47 42.83 11.91"/><polygon class="cls-1" points="5.16 65.88 4.98 61.01 2.2 57 7.08 56.82 11.08 54.04 11.26 58.91 14.04 62.92 9.17 63.1 5.16 65.88"/></g></g></svg>