<?xml version="1.0" encoding="UTF-8"?>
<svg xmlns="http://www.w3.org/2000/svg" viewBox="0 0 329.95 80.25">
   <defs>
      <style>.cls-1{fill:#fff;}</style>
   </defs>
   <title>Ativo 6</title>
   <g id="Camada_2" data-name="Camada 2">
      <g id="Camada_1-2" data-name="Camada 1">
         <path class="cls-1" d="M133.92,18.87a.93.93,0,0,1,.52.34,1,1,0,0,1,.23.58v5.46q0,.75-.75.63l-1.31-.2a10.13,10.13,0,0,0-1.36-.09,13.25,13.25,0,0,0-5.39,1.1,14.65,14.65,0,0,0-4.38,3,13.91,13.91,0,0,0-3,15.14,13.84,13.84,0,0,0,3,4.37,13.61,13.61,0,0,0,4.38,3,13.4,13.4,0,0,0,5.39,1.07V39.39h-2.67a.79.79,0,0,1-.55-.23.69.69,0,0,1-.26-.52V33.31a.81.81,0,0,1,.26-.56.79.79,0,0,1,.55-.26h8.76a.77.77,0,0,1,.58.26.86.86,0,0,1,.23.56v26q0,.75-.81.75h-6.09a20.19,20.19,0,0,1-8.06-1.62,20.82,20.82,0,0,1-11-11,20.86,20.86,0,0,1,0-16.12,20.52,20.52,0,0,1,4.44-6.55,21.36,21.36,0,0,1,6.58-4.41,20.19,20.19,0,0,1,8.06-1.62l1.33,0C133.05,18.8,133.49,18.83,133.92,18.87Z" />
         <path class="cls-1" d="M158.33,17.77a13.62,13.62,0,0,1,9.74,4,14.41,14.41,0,0,1,3,4.4,13.62,13.62,0,0,1-.86,12.44A13.73,13.73,0,0,1,165,43.57l6.79,14.84c.19.47,0,.7-.47.7h-6a1.24,1.24,0,0,1-.63-.21,1,1,0,0,1-.47-.49L161.75,53l-6.32-13.86c-.2-.46,0-.69.46-.69h2.44a6.61,6.61,0,0,0,2.66-.56,6.79,6.79,0,0,0,3.69-3.68,6.8,6.8,0,0,0,0-5.36,7.19,7.19,0,0,0-1.48-2.18A7.06,7.06,0,0,0,161,25.22a6.6,6.6,0,0,0-2.66-.55h-6.9V58.35a.71.71,0,0,1-.26.53.86.86,0,0,1-.55.23h-5.34a.67.67,0,0,1-.75-.76V18.52a.66.66,0,0,1,.75-.75Z" />
         <path class="cls-1" d="M178.74,59.11c-.55,0-.82-.25-.82-.76V18.52c0-.5.27-.75.82-.75H184q.81,0,.81.75V58.35c0,.51-.27.76-.81.76Z" />
         <path class="cls-1" d="M197.29,17.77a1.92,1.92,0,0,1,.72.14,1.05,1.05,0,0,1,.56.44L205,26.87l6.44-8.52a1,1,0,0,1,.55-.44,1.92,1.92,0,0,1,.72-.14H218q.81,0,.81.75V58.35c0,.51-.27.76-.81.76h-5.28c-.54,0-.81-.25-.81-.76V29.19l-6.43,8.52A.53.53,0,0,1,205,38a.5.5,0,0,1-.46-.29l-6.44-8.52V58.35c0,.51-.27.76-.81.76H192c-.54,0-.81-.25-.81-.76V18.52q0-.75.81-.75Z" />
         <path class="cls-1" d="M243.18,32.67a13.58,13.58,0,0,1,4.38,3,14.78,14.78,0,0,1,3,4.5,13.86,13.86,0,0,1,1.1,5.48,13.68,13.68,0,0,1-1.1,5.45,14.84,14.84,0,0,1-3,4.46,13.61,13.61,0,0,1-4.38,3,13.61,13.61,0,0,1-10.72,0,13.72,13.72,0,0,1-4.38-3,14.84,14.84,0,0,1-3-4.46,13.68,13.68,0,0,1-1.1-5.45,13.86,13.86,0,0,1,1.1-5.48,14.78,14.78,0,0,1,3-4.5,13.69,13.69,0,0,1,4.38-3,13.61,13.61,0,0,1,10.72,0ZM240.52,52a6.9,6.9,0,0,0,3.65-3.68,6.8,6.8,0,0,0,0-5.36,7.19,7.19,0,0,0-1.48-2.18,7.11,7.11,0,0,0-2.17-1.47,6.88,6.88,0,0,0-5.39,0A7,7,0,0,0,233,40.78,7.19,7.19,0,0,0,231.47,43a6.8,6.8,0,0,0,0,5.36A6.87,6.87,0,0,0,235.13,52a6.76,6.76,0,0,0,5.39,0Zm-2.35-34.06-2.73,8.29c-.15.39,0,.58.41.58h3.65a.81.81,0,0,0,.81-.52l4.7-8.35c.19-.35.1-.52-.29-.52h-5.8A.67.67,0,0,0,238.17,17.94Z" />
         <path class="cls-1" d="M270.64,17.77a13.62,13.62,0,0,1,9.74,4,14.44,14.44,0,0,1,3,4.4,13.67,13.67,0,0,1-.87,12.44,13.77,13.77,0,0,1-5.16,4.93l6.78,14.84c.2.47,0,.7-.46.7h-6a1.24,1.24,0,0,1-.64-.21.94.94,0,0,1-.46-.49L274.06,53l-6.32-13.86c-.19-.46,0-.69.46-.69h2.44a6.62,6.62,0,0,0,2.67-.56,7,7,0,0,0,2.2-1.47A7.09,7.09,0,0,0,277,34.23a6.8,6.8,0,0,0,0-5.36,7.19,7.19,0,0,0-1.48-2.18,7,7,0,0,0-2.2-1.47,6.62,6.62,0,0,0-2.67-.55h-6.9V58.35a.71.71,0,0,1-.26.53.86.86,0,0,1-.55.23h-5.34a.67.67,0,0,1-.75-.76V18.52a.66.66,0,0,1,.75-.75Z" />
         <path class="cls-1" d="M291.05,59.11c-.54,0-.81-.25-.81-.76V18.52q0-.75.81-.75h5.27c.55,0,.82.25.82.75V58.35c0,.51-.27.76-.82.76Z" />
         <path class="cls-1" d="M316.15,17.42a13.33,13.33,0,0,1,5.37,1.1,13.69,13.69,0,0,1,4.38,3,14.76,14.76,0,0,1,3,4.5,14.2,14.2,0,0,1,0,11,14.59,14.59,0,0,1-3,4.49,13.72,13.72,0,0,1-4.38,3,13.63,13.63,0,0,1-10.73,0,13.72,13.72,0,0,1-4.38-3,14.59,14.59,0,0,1-3-4.49,14.08,14.08,0,0,1,0-11,14.76,14.76,0,0,1,3-4.5,13.69,13.69,0,0,1,4.38-3A13.32,13.32,0,0,1,316.15,17.42Zm10.91,41.69H305.25a.72.72,0,0,1-.81-.81V53a.72.72,0,0,1,.81-.81h21.81a.72.72,0,0,1,.81.81V58.3A.72.72,0,0,1,327.06,59.11Zm-10.91-20.7a6.72,6.72,0,0,0,2.7-.55A7.19,7.19,0,0,0,321,36.38a7,7,0,0,0,1.47-2.18,6.88,6.88,0,0,0,0-5.39A7.11,7.11,0,0,0,321,26.64a7.19,7.19,0,0,0-2.18-1.48,6.88,6.88,0,0,0-5.39,0,7.19,7.19,0,0,0-2.18,1.48,7.11,7.11,0,0,0-1.47,2.17,6.76,6.76,0,0,0,0,5.39,7,7,0,0,0,1.47,2.18,7.19,7.19,0,0,0,2.18,1.48A6.7,6.7,0,0,0,316.15,38.41Z" />
         <path class="cls-1" d="M126.15,1.58c-.38-1.23-2.3-1.08-2.94-1A192.39,192.39,0,0,1,93.56.43L91.94.31A49.31,49.31,0,0,0,81,.31c-7.67,1.16-14.25,5.77-19.82,10-1.48,1.12-2.95,2.27-4.4,3.43h0l-.29.23-2.42,2c-2.4,2-4.72,3.94-6.91,5.88l-.06.06a53.31,53.31,0,0,1-16.22-1.44l-.77-.2h0l-.5-.12c-1.35-.36-2.73-.71-4.12-.94-2.85-.68-4.55-1.12-5.48-1.41-3.67-1.12-10.52-2.41-15.14,1.49A12.29,12.29,0,0,0,2,22.91c-3.48,6.55-2.45,12.54,3.34,19.4,5.14,6.07,12.59,9.81,19.87,12.95a119.87,119.87,0,0,0,17.66,5.62c1.69.44,3.42.89,5.18,1.37l-5.88.29,1.69.9a175,175,0,0,0,39.2,15.12,55.18,55.18,0,0,0,13.53,1.69,53.87,53.87,0,0,0,16.47-2.57c3.14-1,4.83-2.38,5-4.09.31-2.55-2.76-4.54-3.11-4.76a13.5,13.5,0,0,0-3.5-1.45,15.48,15.48,0,0,1-3.9-1.51A48.51,48.51,0,0,1,87.81,43.44l0-.14a14.3,14.3,0,0,0-.68-1.43c.1-.74.19-1.49.28-2.24a39.15,39.15,0,0,1,2-9.61v0a21.92,21.92,0,0,1,5.16-8,36.31,36.31,0,0,1,7.46-5.06L124.4,4.19C125.49,3.58,126.44,2.54,126.15,1.58Zm-18,66.11.17,0a18.64,18.64,0,0,1,6.13,2c1,.62,2.8,2.19,2.61,3.73-.15,1.25-1.65,2.36-4.32,3.22a53.46,53.46,0,0,1-29.42.86A173,173,0,0,1,46.06,63.4L54.4,63l-3-.88c-2.84-.83-5.61-1.56-8.28-2.25a118.32,118.32,0,0,1-17.51-5.57C18.46,51.2,11.14,47.54,6.14,41.63c-5.54-6.58-6.5-12-3.21-18.22a11.39,11.39,0,0,1,2.61-3.34c4.25-3.58,10.69-2.35,14.16-1.29l3.75,1.54C33,24.25,41.16,31.48,49,38.46A161,161,0,0,0,64.57,51.18a90.1,90.1,0,0,0,20,10A159.58,159.58,0,0,0,108.15,67.69ZM59.25,39.26a8.78,8.78,0,0,1,2.26,1.47,12.93,12.93,0,0,1,2,2c.37.48-.39.95-.79.61-.65-.57-1.25-1.21-1.91-1.77a19.86,19.86,0,0,1-1.94-1.72C58.65,39.64,58.87,39.1,59.25,39.26Zm30.66,20c.36.18.1.74-.27.63A54.57,54.57,0,0,1,67.45,47.18c-.35-.32.12-.93.5-.66,3.56,2.54,6.86,5.4,10.61,7.66S86.18,57.42,89.91,59.29ZM86,39.46c-.07.57-.13,1.13-.2,1.69a43.85,43.85,0,0,1-13-4,61.28,61.28,0,0,1-9.33-6.53C62.32,29.75,61.18,28.85,60,28a40,40,0,0,0-8.37-5,25.7,25.7,0,0,0,7-5.59.3.3,0,0,0-.42-.42c-1.17.93-2.26,2-3.43,2.9s-2.41,1.77-3.48,2.8a.16.16,0,0,0-.06.16c-.72-.29-1.45-.56-2.2-.78,2.53-2.21,5.22-4.46,8-6.7a64.88,64.88,0,0,1,16.59,8.44l1.32.91a34.2,34.2,0,0,0,8.33,4.72,21.68,21.68,0,0,0,4.38,1A44.5,44.5,0,0,0,86,39.46ZM87.78,4.75c-6.42-.27-11.26,1.44-16.85,4.38-.43.22-.93-.36-.53-.69C75.05,4.47,82,3.14,87.89,4,88.34,4,88.22,4.77,87.78,4.75Z" />
         <polygon class="cls-1" points="30.3 11.94 26.37 9.21 21.59 9.03 24.31 5.1 24.49 0.32 28.42 3.05 33.2 3.23 30.47 7.16 30.3 11.94" />
         <polygon class="cls-1" points="17.4 74.23 15.75 72.93 13.65 72.73 14.95 71.08 15.15 68.98 16.81 70.28 18.9 70.48 17.6 72.14 17.4 74.23" />
         <polygon class="cls-1" points="42.62 77.94 41.44 74.54 38.61 72.32 42.01 71.14 44.22 68.31 45.41 71.71 48.23 73.93 44.84 75.11 42.62 77.94" />
         <polygon class="cls-1" points="43.35 12.23 41.43 10.72 39 10.49 40.51 8.56 40.74 6.13 42.66 7.64 45.1 7.87 43.59 9.8 43.35 12.23" />
         <polygon class="cls-1" points="5.69 66.2 5.51 61.33 2.73 57.32 7.6 57.14 11.61 54.36 11.79 59.23 14.57 63.24 9.69 63.42 5.69 66.2" />
      </g>
   </g>
</svg>
