<svg enable-background="new 0 0 121.8 17" version="1.1" viewBox="0 0 121.8 17" xml:space="preserve" xmlns="http://www.w3.org/2000/svg">
<path fill="#e82626" d="m3.9 7.9c0.4-0.1 0.7-0.1 0.9-0.2 0.3-0.2 0.4-0.4 0.4-0.7s-0.1-0.6-0.4-0.7c-0.2-0.1-0.5-0.2-1-0.2s-0.9 0.1-1.1 0.4c-0.2 0.2-0.3 0.5-0.3 0.8h-2.1c0-0.7 0.3-1.3 0.6-1.8 0.6-0.7 1.6-1.1 3-1.1 0.9 0 1.7 0.2 2.5 0.5 0.7 0.4 1 1.1 1 2.1v3.9 1c0 0.3 0.1 0.5 0.1 0.6l0.3 0.3v0.2h-2.3c-0.1-0.2-0.1-0.3-0.1-0.5 0-0.1 0-0.3-0.1-0.5-0.3 0.3-0.7 0.6-1.1 0.8-0.5 0.3-1 0.4-1.6 0.4-0.8 0-1.4-0.2-1.9-0.7-0.5-0.3-0.7-1-0.7-1.8 0-1 0.4-1.8 1.2-2.2 0.4-0.3 1.1-0.4 1.9-0.5l0.8-0.1zm1.3 1c-0.1 0.1-0.2 0.1-0.4 0.2-0.1 0-0.3 0.1-0.6 0.1l-0.5 0.1c-0.5 0.1-0.8 0.2-1 0.3-0.3 0.2-0.5 0.5-0.5 0.9s0.1 0.6 0.3 0.8 0.5 0.3 0.8 0.3c0.5 0 0.9-0.1 1.3-0.4s0.6-0.8 0.6-1.5v-0.8zm14.7-4.3c0.4 0.1 0.7 0.4 1 0.8 0.2 0.3 0.4 0.7 0.5 1.1 0 0.3 0.1 0.7 0.1 1.2v5.3h-2.3v-5.4c0-0.3 0-0.6-0.2-0.8-0.2-0.4-0.6-0.6-1.1-0.6-0.6 0-1 0.3-1.3 0.8-0.1 0.3-0.2 0.6-0.2 1v5h-2.2v-5c0-0.5-0.1-0.9-0.2-1.1-0.2-0.4-0.5-0.6-1.1-0.6s-1.1 0.2-1.3 0.6c-0.1 0.2-0.2 0.6-0.2 1v5.1h-2v-8.4h2.1v1.2c0.3-0.4 0.5-0.8 0.8-0.9 0.4-0.3 1-0.5 1.7-0.5 0.6 0 1.2 0.1 1.6 0.4 0.3 0.3 0.6 0.6 0.7 1 0.3-0.5 0.6-0.9 1.1-1.1s1-0.3 1.5-0.3c0.3 0 0.6 0 1 0.2zm9.1 0.1c0.6 0.3 1.1 0.7 1.4 1.3 0.3 0.5 0.6 1.1 0.7 1.7 0.1 0.4 0.1 0.9 0.1 1.7h-6.2c0 0.8 0.3 1.4 0.9 1.8 0.3 0.2 0.7 0.3 1.2 0.3s0.9-0.1 1.2-0.4c0.2-0.1 0.3-0.3 0.5-0.6h2.2c-0.1 0.5-0.3 1-0.8 1.5-0.8 0.8-1.8 1.2-3.2 1.2-1.1 0-2.1-0.3-3-1s-1.3-1.8-1.3-3.4c0-1.5 0.4-2.6 1.2-3.4s1.8-1.2 3-1.2c0.8 0.1 1.5 0.3 2.1 0.5zm-3.3 1.9c-0.3 0.3-0.5 0.8-0.6 1.3h3.8c0-0.6-0.2-1-0.6-1.3-0.3-0.3-0.8-0.5-1.3-0.5-0.6 0-1 0.2-1.3 0.5zm11.3-2.2h0.2v2.3h-0.4-0.3c-0.9 0-1.5 0.3-1.8 0.9-0.2 0.3-0.3 0.8-0.3 1.5v4h-2.2v-8.5h2.1v1.4c0.3-0.6 0.6-0.9 0.9-1.2 0.4-0.3 1-0.5 1.6-0.5 0.1 0.1 0.2 0.1 0.2 0.1zm1.7 0h2.2v8.6h-2.2v-8.6zm9.1 3.2c0-0.3-0.1-0.6-0.3-0.9s-0.6-0.5-1.2-0.5c-0.7 0-1.3 0.4-1.5 1.1-0.1 0.4-0.2 0.9-0.2 1.6 0 0.6 0.1 1.1 0.2 1.5 0.3 0.7 0.8 1.1 1.5 1.1 0.5 0 0.9-0.1 1.1-0.4s0.3-0.6 0.4-1.1h2.2c-0.1 0.7-0.3 1.3-0.7 1.9-0.7 1-1.7 1.4-3.1 1.4s-2.4-0.4-3-1.2-1-1.8-1-3.1c0-1.4 0.4-2.6 1.1-3.4s1.7-1.2 3-1.2c1.1 0 1.9 0.2 2.6 0.7s1.1 1.3 1.2 2.5h-2.3zm7.1 0.3c0.4-0.1 0.7-0.1 0.9-0.2 0.3-0.1 0.5-0.3 0.5-0.6s-0.1-0.6-0.4-0.7c-0.2-0.1-0.6-0.2-1.1-0.2s-0.9 0.1-1.1 0.4c-0.2 0.2-0.3 0.4-0.3 0.8h-2.1c0-0.7 0.3-1.3 0.6-1.8 0.6-0.7 1.6-1.1 3-1.1 0.9 0 1.7 0.2 2.5 0.5 0.7 0.3 1.1 1 1.1 2v3.9 1c0 0.3 0.1 0.5 0.1 0.6l0.3 0.3v0.2h-2.4c-0.1-0.2-0.1-0.3-0.1-0.5 0-0.1 0-0.3-0.1-0.5-0.3 0.3-0.7 0.6-1.1 0.8-0.5 0.3-1 0.4-1.6 0.4-0.8 0-1.4-0.2-1.9-0.7-0.5-0.4-0.8-1.1-0.8-1.9 0-1 0.4-1.8 1.2-2.2 0.4-0.3 1.1-0.4 1.9-0.5h0.9zm1.4 1c-0.2 0.1-0.3 0.1-0.4 0.2s-0.3 0.1-0.6 0.2l-0.5 0.1c-0.5 0.1-0.8 0.2-1 0.3-0.3 0.2-0.5 0.5-0.5 0.9s0.1 0.6 0.3 0.8 0.5 0.3 0.8 0.3c0.5 0 0.9-0.1 1.3-0.4s0.6-0.8 0.6-1.5v-0.9zm10.9-3.9c0.6 0.5 0.8 1.2 0.8 2.3v5.7h-2.3v-5.1c0-0.4-0.1-0.8-0.2-1-0.2-0.4-0.6-0.6-1.2-0.6-0.7 0-1.2 0.3-1.5 1-0.1 0.3-0.2 0.8-0.2 1.3v4.4h-2.2v-8.4h2.1v1.2c0.3-0.4 0.5-0.7 0.8-0.9 0.4-0.3 1-0.5 1.7-0.5 1 0 1.7 0.2 2.2 0.6zm6.1 2.9c0.4-0.1 0.7-0.1 0.9-0.2 0.3-0.1 0.5-0.3 0.5-0.6s-0.1-0.6-0.4-0.7c-0.2-0.1-0.6-0.2-1.1-0.2s-0.9 0.1-1.1 0.4c-0.2 0.2-0.3 0.4-0.3 0.8h-2.1c0-0.7 0.3-1.3 0.6-1.8 0.6-0.7 1.6-1.1 3-1.1 0.9 0 1.8 0.2 2.5 0.5s1 1 1 2v3.9 1c0 0.3 0.1 0.5 0.1 0.6l0.3 0.3v0.2h-2.4c-0.1-0.2-0.1-0.3-0.1-0.5 0-0.1 0-0.3-0.1-0.5-0.3 0.3-0.7 0.6-1.1 0.8-0.5 0.3-1 0.4-1.6 0.4-0.8 0-1.4-0.2-1.9-0.7-0.5-0.4-0.8-1.1-0.8-1.9 0-1 0.4-1.8 1.2-2.2 0.4-0.3 1.1-0.4 1.9-0.5h1zm1.3 1c-0.1 0.1-0.2 0.1-0.4 0.2-0.1 0.1-0.3 0.1-0.6 0.2l-0.5 0.1c-0.5 0.1-0.8 0.2-1 0.3-0.3 0.2-0.5 0.5-0.5 0.9s0.1 0.6 0.3 0.8 0.5 0.3 0.8 0.3c0.5 0 0.9-0.1 1.3-0.4s0.6-0.8 0.6-1.5v-0.9zm5.9 1.4c0 0.4 0.1 0.7 0.3 0.8 0.3 0.3 0.8 0.4 1.5 0.4 0.4 0 0.8-0.1 1-0.2 0.3-0.1 0.4-0.3 0.4-0.6 0-0.2-0.1-0.4-0.3-0.6-0.2-0.1-1-0.4-2.3-0.7-1-0.2-1.6-0.5-2-0.9s-0.6-0.9-0.6-1.5c0-0.8 0.3-1.4 0.9-2 0.6-0.4 1.5-0.7 2.6-0.7s1.9 0.2 2.6 0.6 1 1.1 1.1 2.2h-2.2c0-0.3-0.1-0.5-0.2-0.7-0.3-0.3-0.7-0.4-1.3-0.4-0.5 0-0.8 0.1-1 0.2-0.2 0.2-0.3 0.3-0.3 0.5 0 0.3 0.1 0.4 0.3 0.5s1 0.3 2.3 0.6c0.9 0.2 1.5 0.5 2 0.9 0.4 0.4 0.6 0.9 0.6 1.6 0 0.8-0.3 1.5-0.9 2s-1.6 0.8-2.9 0.8-2.3-0.3-2.9-0.8c-0.6-0.6-0.9-1.3-0.9-2.1h2.2zm16-2.7c0-0.3-0.1-0.6-0.3-0.9s-0.6-0.5-1.2-0.5c-0.7 0-1.3 0.4-1.5 1.1-0.1 0.4-0.2 0.9-0.2 1.6 0 0.6 0.1 1.1 0.2 1.5 0.3 0.7 0.8 1.1 1.5 1.1 0.5 0 0.9-0.1 1.1-0.4s0.3-0.6 0.4-1.1h2.3c-0.1 0.7-0.3 1.3-0.7 1.9-0.7 1-1.7 1.4-3.1 1.4s-2.4-0.4-3-1.2-1-1.8-1-3.1c0-1.4 0.4-2.6 1.1-3.4s1.7-1.2 2.9-1.2c1.1 0 1.9 0.2 2.6 0.7s1.1 1.3 1.2 2.5h-2.3zm10.8 4.3c-0.7 0.9-1.8 1.3-3.2 1.3s-2.5-0.4-3.2-1.3-1.1-1.9-1.1-3.2c0-1.2 0.4-2.3 1.1-3.2s1.8-1.3 3.2-1.3 2.5 0.4 3.2 1.3 1.1 1.9 1.1 3.2-0.4 2.4-1.1 3.2zm-1.7-1.2c0.3-0.5 0.5-1.1 0.5-2 0-0.8-0.2-1.5-0.5-1.9-0.3-0.5-0.8-0.7-1.5-0.7-0.6 0-1.1 0.2-1.5 0.7s-0.5 1.1-0.5 1.9 0.2 1.5 0.5 2 0.8 0.7 1.5 0.7c0.6 0 1.1-0.2 1.5-0.7zm14.7-6.1c0.4 0.1 0.7 0.4 1 0.8 0.2 0.3 0.4 0.7 0.5 1.1 0.1 0.3 0.1 0.7 0.1 1.2v5.3h-2.3v-5.4c0-0.3-0.1-0.6-0.2-0.8-0.2-0.4-0.6-0.6-1.1-0.6-0.6 0-1 0.3-1.3 0.8-0.1 0.3-0.2 0.6-0.2 1v5h-2.2v-5c0-0.5-0.1-0.9-0.2-1.1-0.2-0.4-0.5-0.6-1.1-0.6s-1.1 0.2-1.3 0.6c-0.1 0.2-0.2 0.6-0.2 1v5.1h-2.2v-8.4h2.1v1.2c0.3-0.4 0.5-0.7 0.8-0.9 0.4-0.3 1-0.5 1.7-0.5 0.6 0 1.2 0.1 1.6 0.4 0.3 0.3 0.6 0.6 0.7 1 0.3-0.5 0.6-0.9 1.1-1.1s1-0.3 1.5-0.3 0.8 0 1.2 0.2zm-30.4 7.2c0 0.7-0.6 1.3-1.3 1.3s-1.3-0.6-1.3-1.3 0.6-1.3 1.3-1.3c0.8 0 1.3 0.6 1.3 1.3z"/>
  <rect fill="#e82626" width="85.8" height="2.2"/>
  <rect fill="#e82626" y="14.8" width="85.8" height="2.2"/>
</svg>

