<svg version="1.1" id="Layer_1" xmlns="http://www.w3.org/2000/svg" xmlns:xlink="http://www.w3.org/1999/xlink" x="0px" y="0px"
	 viewBox="0 0 121.8 17" style="enable-background:new 0 0 121.8 17;" xml:space="preserve">
<path d="M3.9,7.9c0.4-0.1,0.7-0.1,0.9-0.2C5.1,7.5,5.2,7.3,5.2,7c0-0.3-0.1-0.6-0.4-0.7C4.6,6.2,4.3,6.1,3.8,6.1
	c-0.5,0-0.9,0.1-1.1,0.4C2.5,6.7,2.4,7,2.4,7.3H0.3c0-0.7,0.3-1.3,0.6-1.8c0.6-0.7,1.6-1.1,3-1.1c0.9,0,1.7,0.2,2.5,0.5
	C7.1,5.3,7.4,6,7.4,7v3.9c0,0.3,0,0.6,0,1c0,0.3,0.1,0.5,0.1,0.6c0.1,0.1,0.2,0.2,0.3,0.3V13H5.5c-0.1-0.2-0.1-0.3-0.1-0.5
	c0-0.1,0-0.3-0.1-0.5c-0.3,0.3-0.7,0.6-1.1,0.8c-0.5,0.3-1,0.4-1.6,0.4c-0.8,0-1.4-0.2-1.9-0.7C0.2,12.2,0,11.5,0,10.7
	c0-1,0.4-1.8,1.2-2.2c0.4-0.3,1.1-0.4,1.9-0.5L3.9,7.9z M5.2,8.9C5.1,9,5,9,4.8,9.1C4.7,9.1,4.5,9.2,4.2,9.2L3.7,9.3
	c-0.5,0.1-0.8,0.2-1,0.3c-0.3,0.2-0.5,0.5-0.5,0.9c0,0.4,0.1,0.6,0.3,0.8c0.2,0.2,0.5,0.3,0.8,0.3c0.5,0,0.9-0.1,1.3-0.4
	c0.4-0.3,0.6-0.8,0.6-1.5V8.9z"/>
<path d="M19.9,4.6c0.4,0.1,0.7,0.4,1,0.8c0.2,0.3,0.4,0.7,0.5,1.1c0,0.3,0.1,0.7,0.1,1.2l0,5.3h-2.3V7.6
	c0-0.3,0-0.6-0.2-0.8c-0.2-0.4-0.6-0.6-1.1-0.6c-0.6,0-1,0.3-1.3,0.8c-0.1,0.3-0.2,0.6-0.2,1v5h-2.2V8c0-0.5-0.1-0.9-0.2-1.1
	c-0.2-0.4-0.5-0.6-1.1-0.6c-0.6,0-1.1,0.2-1.3,0.6c-0.1,0.2-0.2,0.6-0.2,1V13H9.4V4.6h2.1v1.2C11.8,5.4,12,5,12.3,4.9
	c0.4-0.3,1-0.5,1.7-0.5c0.6,0,1.2,0.1,1.6,0.4c0.3,0.3,0.6,0.6,0.7,1c0.3-0.5,0.6-0.9,1.1-1.1c0.5-0.2,1-0.3,1.5-0.3
	C19.2,4.4,19.5,4.4,19.9,4.6z"/>
<path d="M29,4.7C29.6,5,30.1,5.4,30.4,6c0.3,0.5,0.6,1.1,0.7,1.7c0.1,0.4,0.1,0.9,0.1,1.7H25c0,0.8,0.3,1.4,0.9,1.8
	c0.3,0.2,0.7,0.3,1.2,0.3c0.5,0,0.9-0.1,1.2-0.4c0.2-0.1,0.3-0.3,0.5-0.6h2.2c-0.1,0.5-0.3,1-0.8,1.5c-0.8,0.8-1.8,1.2-3.2,1.2
	c-1.1,0-2.1-0.3-3-1c-0.9-0.7-1.3-1.8-1.3-3.4c0-1.5,0.4-2.6,1.2-3.4c0.8-0.8,1.8-1.2,3-1.2C27.7,4.3,28.4,4.5,29,4.7z M25.7,6.6
	c-0.3,0.3-0.5,0.8-0.6,1.3h3.8c0-0.6-0.2-1-0.6-1.3C28,6.3,27.5,6.1,27,6.1C26.4,6.1,26,6.3,25.7,6.6z"/>
<path d="M37,4.4c0,0,0.1,0,0.2,0v2.3c-0.1,0-0.3,0-0.4,0c-0.1,0-0.2,0-0.3,0c-0.9,0-1.5,0.3-1.8,0.9
	c-0.2,0.3-0.3,0.8-0.3,1.5v4h-2.2V4.6h2.1V6c0.3-0.6,0.6-0.9,0.9-1.2c0.4-0.3,1-0.5,1.6-0.5C36.9,4.4,37,4.4,37,4.4z"/>
<path d="M38.7,4.4h2.2V13h-2.2V4.4z"/>
<path d="M47.8,7.6c0-0.3-0.1-0.6-0.3-0.9c-0.2-0.3-0.6-0.5-1.2-0.5c-0.7,0-1.3,0.4-1.5,1.1c-0.1,0.4-0.2,0.9-0.2,1.6
	c0,0.6,0.1,1.1,0.2,1.5c0.3,0.7,0.8,1.1,1.5,1.1c0.5,0,0.9-0.1,1.1-0.4c0.2-0.3,0.3-0.6,0.4-1.1H50c-0.1,0.7-0.3,1.3-0.7,1.9
	c-0.7,1-1.7,1.4-3.1,1.4c-1.4,0-2.4-0.4-3-1.2c-0.6-0.8-1-1.8-1-3.1c0-1.4,0.4-2.6,1.1-3.4C44,4.8,45,4.4,46.3,4.4
	c1.1,0,1.9,0.2,2.6,0.7c0.7,0.5,1.1,1.3,1.2,2.5H47.8z"/>
<path d="M54.9,7.9c0.4-0.1,0.7-0.1,0.9-0.2c0.3-0.1,0.5-0.3,0.5-0.6c0-0.3-0.1-0.6-0.4-0.7c-0.2-0.1-0.6-0.2-1.1-0.2
	c-0.5,0-0.9,0.1-1.1,0.4c-0.2,0.2-0.3,0.4-0.3,0.8h-2.1c0-0.7,0.3-1.3,0.6-1.8c0.6-0.7,1.6-1.1,3-1.1c0.9,0,1.7,0.2,2.5,0.5
	C58.1,5.3,58.5,6,58.5,7v3.9c0,0.3,0,0.6,0,1c0,0.3,0.1,0.5,0.1,0.6c0.1,0.1,0.2,0.2,0.3,0.3V13h-2.4c-0.1-0.2-0.1-0.3-0.1-0.5
	c0-0.1,0-0.3-0.1-0.5c-0.3,0.3-0.7,0.6-1.1,0.8c-0.5,0.3-1,0.4-1.6,0.4c-0.8,0-1.4-0.2-1.9-0.7c-0.5-0.4-0.8-1.1-0.8-1.9
	c0-1,0.4-1.8,1.2-2.2c0.4-0.3,1.1-0.4,1.9-0.5L54.9,7.9z M56.3,8.9C56.1,9,56,9,55.9,9.1c-0.1,0.1-0.3,0.1-0.6,0.2l-0.5,0.1
	c-0.5,0.1-0.8,0.2-1,0.3c-0.3,0.2-0.5,0.5-0.5,0.9c0,0.4,0.1,0.6,0.3,0.8c0.2,0.2,0.5,0.3,0.8,0.3c0.5,0,0.9-0.1,1.3-0.4
	c0.4-0.3,0.6-0.8,0.6-1.5V8.9z"/>
<path d="M67.2,5c0.6,0.5,0.8,1.2,0.8,2.3V13h-2.3V7.9c0-0.4-0.1-0.8-0.2-1c-0.2-0.4-0.6-0.6-1.2-0.6
	c-0.7,0-1.2,0.3-1.5,1c-0.1,0.3-0.2,0.8-0.2,1.3V13h-2.2V4.6h2.1v1.2c0.3-0.4,0.5-0.7,0.8-0.9c0.4-0.3,1-0.5,1.7-0.5
	C66,4.4,66.7,4.6,67.2,5z"/>
<path d="M73.3,7.9c0.4-0.1,0.7-0.1,0.9-0.2c0.3-0.1,0.5-0.3,0.5-0.6c0-0.3-0.1-0.6-0.4-0.7c-0.2-0.1-0.6-0.2-1.1-0.2
	c-0.5,0-0.9,0.1-1.1,0.4c-0.2,0.2-0.3,0.4-0.3,0.8h-2.1c0-0.7,0.3-1.3,0.6-1.8c0.6-0.7,1.6-1.1,3-1.1c0.9,0,1.8,0.2,2.5,0.5
	C76.5,5.3,76.8,6,76.8,7v3.9c0,0.3,0,0.6,0,1c0,0.3,0.1,0.5,0.1,0.6c0.1,0.1,0.2,0.2,0.3,0.3V13h-2.4c-0.1-0.2-0.1-0.3-0.1-0.5
	c0-0.1,0-0.3-0.1-0.5c-0.3,0.3-0.7,0.6-1.1,0.8c-0.5,0.3-1,0.4-1.6,0.4c-0.8,0-1.4-0.2-1.9-0.7c-0.5-0.4-0.8-1.1-0.8-1.9
	c0-1,0.4-1.8,1.2-2.2c0.4-0.3,1.1-0.4,1.9-0.5L73.3,7.9z M74.6,8.9C74.5,9,74.4,9,74.2,9.1c-0.1,0.1-0.3,0.1-0.6,0.2l-0.5,0.1
	c-0.5,0.1-0.8,0.2-1,0.3c-0.3,0.2-0.5,0.5-0.5,0.9c0,0.4,0.1,0.6,0.3,0.8c0.2,0.2,0.5,0.3,0.8,0.3c0.5,0,0.9-0.1,1.3-0.4
	c0.4-0.3,0.6-0.8,0.6-1.5V8.9z"/>
<path d="M80.5,10.3c0,0.4,0.1,0.7,0.3,0.8c0.3,0.3,0.8,0.4,1.5,0.4c0.4,0,0.8-0.1,1-0.2c0.3-0.1,0.4-0.3,0.4-0.6
	c0-0.2-0.1-0.4-0.3-0.6c-0.2-0.1-1-0.4-2.3-0.7c-1-0.2-1.6-0.5-2-0.9c-0.4-0.4-0.6-0.9-0.6-1.5c0-0.8,0.3-1.4,0.9-2
	C80,4.6,80.9,4.3,82,4.3c1.1,0,1.9,0.2,2.6,0.6c0.7,0.4,1,1.1,1.1,2.2h-2.2c0-0.3-0.1-0.5-0.2-0.7C83,6.1,82.6,6,82,6
	c-0.5,0-0.8,0.1-1,0.2c-0.2,0.2-0.3,0.3-0.3,0.5c0,0.3,0.1,0.4,0.3,0.5c0.2,0.1,1,0.3,2.3,0.6c0.9,0.2,1.5,0.5,2,0.9
	c0.4,0.4,0.6,0.9,0.6,1.6c0,0.8-0.3,1.5-0.9,2c-0.6,0.5-1.6,0.8-2.9,0.8c-1.3,0-2.3-0.3-2.9-0.8c-0.6-0.6-0.9-1.3-0.9-2.1H80.5z"/>
<path d="M96.5,7.6c0-0.3-0.1-0.6-0.3-0.9c-0.2-0.3-0.6-0.5-1.2-0.5c-0.7,0-1.3,0.4-1.5,1.1c-0.1,0.4-0.2,0.9-0.2,1.6
	c0,0.6,0.1,1.1,0.2,1.5c0.3,0.7,0.8,1.1,1.5,1.1c0.5,0,0.9-0.1,1.1-0.4c0.2-0.3,0.3-0.6,0.4-1.1h2.3c-0.1,0.7-0.3,1.3-0.7,1.9
	c-0.7,1-1.7,1.4-3.1,1.4c-1.4,0-2.4-0.4-3-1.2c-0.6-0.8-1-1.8-1-3.1c0-1.4,0.4-2.6,1.1-3.4c0.7-0.8,1.7-1.2,2.9-1.2
	c1.1,0,1.9,0.2,2.6,0.7c0.7,0.5,1.1,1.3,1.2,2.5H96.5z"/>
<path d="M107.3,11.9c-0.7,0.9-1.8,1.3-3.2,1.3c-1.4,0-2.5-0.4-3.2-1.3c-0.7-0.9-1.1-1.9-1.1-3.2c0-1.2,0.4-2.3,1.1-3.2
	c0.7-0.9,1.8-1.3,3.2-1.3c1.4,0,2.5,0.4,3.2,1.3c0.7,0.9,1.1,1.9,1.1,3.2C108.4,10,108,11.1,107.3,11.9z M105.6,10.7
	c0.3-0.5,0.5-1.1,0.5-2c0-0.8-0.2-1.5-0.5-1.9c-0.3-0.5-0.8-0.7-1.5-0.7c-0.6,0-1.1,0.2-1.5,0.7c-0.4,0.5-0.5,1.1-0.5,1.9
	c0,0.8,0.2,1.5,0.5,2c0.3,0.5,0.8,0.7,1.5,0.7C104.7,11.4,105.2,11.2,105.6,10.7z"/>
<path d="M120.3,4.6c0.4,0.1,0.7,0.4,1,0.8c0.2,0.3,0.4,0.7,0.5,1.1c0.1,0.3,0.1,0.7,0.1,1.2l0,5.3h-2.3V7.6
	c0-0.3-0.1-0.6-0.2-0.8c-0.2-0.4-0.6-0.6-1.1-0.6c-0.6,0-1,0.3-1.3,0.8c-0.1,0.3-0.2,0.6-0.2,1v5h-2.2V8c0-0.5-0.1-0.9-0.2-1.1
	c-0.2-0.4-0.5-0.6-1.1-0.6c-0.6,0-1.1,0.2-1.3,0.6c-0.1,0.2-0.2,0.6-0.2,1V13h-2.2V4.6h2.1v1.2c0.3-0.4,0.5-0.7,0.8-0.9
	c0.4-0.3,1-0.5,1.7-0.5c0.6,0,1.2,0.1,1.6,0.4c0.3,0.3,0.6,0.6,0.7,1c0.3-0.5,0.6-0.9,1.1-1.1c0.5-0.2,1-0.3,1.5-0.3
	C119.6,4.4,119.9,4.4,120.3,4.6z"/>
<rect width="85.8" height="2.2"/>
<rect y="14.8" width="85.8" height="2.2"/>
<path d="M89.9,11.8c0,0.7-0.6,1.3-1.3,1.3c-0.7,0-1.3-0.6-1.3-1.3c0-0.7,0.6-1.3,1.3-1.3C89.4,10.5,89.9,11.1,89.9,11.8
	z"/>
</svg>
