<svg width="1792" height="1792" viewBox="0 0 1792 1792" xmlns="http://www.w3.org/2000/svg">
  <rect width="1792" height="1792" x="0" y="0" fill="#e82626" />
  <path fill="#ffffff" d="m 969.99999,816.50002 c -12.3,5.4 -32.20001,10 -60.4,13.6 l -51.8,6.4 c -59,7.7 -103.5,20 -133.9,37.7 -54.9,32.7 -82.6,84.9 -82.6,157.50008 0,55.8 17.3,99.4 51.3,129.8 34.5,30.4 78.1,45.4 130.8,45.4 41.29999,0 78.1,-9.5 110.79999,-28.6 27.70001,-15.9 51.8,-35.9 72.60002,-59 0.9,13.6 2.3,25.4 4.1,35.9 1.8,10.4 5,21.8 9.5,33.6 h 164.8 v -22.7 c -10,-4.5 -17.7,-10.4 -22.2,-17.7 -5,-7.3 -8.2,-20.9 -9.1,-41.3 -0.9,-26.8 -1.4,-49.5 -1.4,-68.1 V 768.40002 c 0,-71.3 -24.5,-119.4 -74,-145.3 -49.5,-25.4 -105.80002,-38.1 -169.30002,-38.1 -97.6,0 -166.6,25.9 -206.6,77.6 -25.4,33.1 -39.5,75.8 -42.7,127.1 h 145.7 c 3.6,-22.7 10.9,-40.4 21.3,-54 15.4,-18.2 40.9,-26.8 77.2,-26.8 32.2,0 56.8,4.5 73.5,13.6 16.3,9.1 25.00002,25.9 25.00002,49.9 0.1,20.1 -10.80002,34.6 -32.60001,44.1 z m 34.50001,134 c -0.9,48.6 -15.90001,82.60008 -44.90001,100.80008 -28.6,18.6 -60.4,27.7 -94.9,27.7 -21.3,0 -40,-5.4 -54.9,-16.3 -15,-11.4 -22.7,-29.5 -22.7,-54.5001 0,-27.69998 12.3,-48.59998 37.2,-61.69998 14.5,-8.2 38.6,-14.5 72.2,-20 l 35.4,-6.4 c 18.2,-3.2 32.2,-6.4 42.2,-10 10.4,-3.6 20.4,-8.2 30.40001,-14.1 z M 568.69998,328.50003 V 475.10002 H 1223.3 V 328.50003 Z M 570.89999,1463.5 H 1223.3 V 1316.9 H 570.89999 Z" />
</svg>
