<?xml version="1.0" encoding="utf-8"?>
<!-- Generator: Adobe Illustrator 22.1.0, SVG Export Plug-In . SVG Version: 6.00 Build 0)  -->
<svg version="1.1" id="Layer_1" xmlns="http://www.w3.org/2000/svg" xmlns:xlink="http://www.w3.org/1999/xlink" x="0px" y="0px"
	 viewBox="0 0 563.5 182.5" style="enable-background:new 0 0 563.5 182.5;" xml:space="preserve">
<style type="text/css">
	.st0{fill:#00B8AD;}
	.st1{fill:#989FA3;}
	.st2{font-family:'Quantify-Bold';}
	.st3{font-size:76.2925px;}
</style>
<g>
	<path class="st0" d="M65.3,36.8v61.3H50.7V67.5c0-4.9-1.7-9.1-5.1-12.5c-3.4-3.4-7.6-5.1-12.5-5.1c-2.4,0-4.6,0.4-6.8,1.3
		c-2.2,0.9-4.1,2.2-5.7,3.8c-3.4,3.4-5.1,7.6-5.1,12.5c0,4.8,1.7,8.9,5.1,12.4c1.6,1.7,3.5,3,5.7,3.9s4.4,1.3,6.8,1.3
		s4.7-0.4,6.6-1.2L45,97c-3.8,1.9-8.1,2.8-13.1,2.8c-4.5,0-8.6-0.8-12.4-2.5s-7.1-4-9.9-6.9S4.7,84,3.1,80.1S0.8,72,0.8,67.6
		c0-4.5,0.8-8.7,2.3-12.6s3.7-7.3,6.5-10.3c2.8-2.9,6.1-5.2,9.9-6.9s7.9-2.5,12.4-2.5c4,0,7.5,0.6,10.7,1.8c3.1,1.2,5.8,2.8,8.2,4.7
		v-4.9L65.3,36.8L65.3,36.8z"/>
	<path class="st0" d="M96.6,28.3c-1.8,0.8-3.3,1.8-4.7,3.1c-1.3,1.3-2.4,2.8-3.2,4.6c-0.8,1.8-1.2,3.7-1.2,5.7h8.7l3.7,14.7H87.3
		v41.8H72.7V56.4V41.8v-0.1c0.1-3.9,0.9-7.7,2.3-11.2c1.5-3.6,3.6-6.7,6.4-9.5s6-4.9,9.6-6.4s7.3-2.2,11.3-2.2v14.7
		C100.2,27.1,98.2,27.5,96.6,28.3z"/>
	<path class="st0" d="M107.8,12.4h14.7v14.7h-14.7V12.4z M107.8,98.1V36.9h14.7v61.2C122.4,98.1,107.8,98.1,107.8,98.1z"/>
	<path class="st0" d="M130.9,98.1V12.4h14.7v85.7H130.9z"/>
	<path class="st0" d="M154.2,12.4h14.7v14.7h-14.7V12.4z M154.2,98.1V36.9h14.7v61.2C168.9,98.1,154.2,98.1,154.2,98.1z"/>
	<path class="st0" d="M240.4,36.8v61.3h-14.7V67.5c0-4.9-1.7-9.1-5.1-12.5c-3.4-3.4-7.6-5.1-12.5-5.1c-2.4,0-4.6,0.4-6.8,1.3
		c-2.2,0.9-4.1,2.2-5.7,3.8c-3.4,3.4-5.1,7.6-5.1,12.5c0,4.8,1.7,8.9,5.1,12.4c1.6,1.7,3.5,3,5.7,3.9s4.4,1.3,6.8,1.3
		c2.4,0,4.7-0.4,6.6-1.2L220,97c-3.8,1.9-8.1,2.8-13.1,2.8c-4.5,0-8.6-0.8-12.4-2.5c-3.8-1.7-7.1-4-9.9-6.9
		c-2.8-2.9-4.9-6.4-6.5-10.3s-2.3-8.1-2.3-12.5c0-4.5,0.8-8.7,2.3-12.6s3.7-7.3,6.5-10.3c2.8-2.9,6.1-5.2,9.9-6.9
		c3.8-1.7,7.9-2.5,12.4-2.5c4,0,7.5,0.6,10.7,1.8c3.1,1.2,5.8,2.8,8.2,4.7v-4.9h14.6V36.8z"/>
	<path class="st0" d="M311.5,12.3v85.8h-14.7V67.5c0-5-1.7-9.1-5.1-12.5s-7.6-5.1-12.4-5.1c-4.9,0-9.1,1.7-12.5,5.1
		c-3.4,3.4-5.1,7.6-5.1,12.5c0,4.8,1.7,8.9,5.1,12.4c1.6,1.7,3.5,3,5.7,3.9s4.4,1.3,6.8,1.3s4.5-0.4,6.5-1.2l5.3,13.1
		c-3.8,1.9-8.1,2.8-13,2.8c-4.5,0-8.6-0.8-12.4-2.5s-7.1-4-9.9-6.9s-4.9-6.4-6.5-10.3S247,72,247,67.6c0-4.5,0.8-8.7,2.3-12.6
		s3.7-7.3,6.5-10.3c2.8-2.9,6.1-5.2,9.9-6.9s7.9-2.5,12.4-2.5c3.9,0,7.4,0.6,10.5,1.8s5.8,2.8,8.2,4.7V12.3H311.5z"/>
	<path class="st0" d="M350.6,35.2c4.5,0,8.7,0.8,12.6,2.5s7.3,4,10.3,6.9c2.9,2.9,5.2,6.4,6.9,10.3c1.7,3.9,2.5,8.1,2.5,12.6
		c0,4.4-0.8,8.6-2.5,12.5s-4,7.3-6.9,10.3c-2.9,2.9-6.4,5.2-10.3,6.9c-3.9,1.7-8.1,2.5-12.6,2.5s-8.7-0.8-12.6-2.5s-7.3-4-10.3-6.9
		c-2.9-2.9-5.2-6.4-6.9-10.3c-1.7-3.9-2.5-8.1-2.5-12.5c0-4.5,0.8-8.7,2.5-12.6s4-7.3,6.9-10.3c2.9-2.9,6.4-5.2,10.3-6.9
		C342,36,346.1,35.2,350.6,35.2z M350.6,49.9c-4.9,0-9.1,1.7-12.5,5.1c-3.4,3.4-5.1,7.6-5.1,12.5c0,4.8,1.7,8.9,5.1,12.4
		c1.6,1.7,3.5,3,5.7,3.9s4.4,1.3,6.8,1.3s4.6-0.4,6.7-1.3s4-2.1,5.8-3.9c3.4-3.4,5.1-7.5,5.1-12.4s-1.7-9.1-5.1-12.5
		C359.5,51.6,355.4,49.9,350.6,49.9z"/>
	<path class="st0" d="M409.8,60.2c1,0.2,2.6,0.8,4.9,1.7s4.6,2.1,7,3.7s4.5,3.6,6.3,5.9c1.8,2.4,2.7,5.2,2.7,8.4
		c0,2.9-0.5,5.5-1.4,7.8c-0.9,2.4-2.3,4.5-4.1,6.2c-1.8,1.8-4,3.2-6.6,4.2s-5.6,1.5-8.8,1.5c-5,0-9.6-0.9-13.9-2.7
		c-4.3-1.8-7.7-4-10.3-6.6l10.2-10.2c2.1,2.5,4.4,4.2,6.8,4.9c2.4,0.7,4.4,1.1,6.1,1.1c2.5,0,4.4-0.5,5.6-1.5s1.8-2.2,1.8-3.6
		c0-1-0.4-1.8-1.2-2.6c-0.8-0.7-1.8-1.3-2.9-1.8s-2.2-0.9-3.4-1.2c-1.1-0.3-2.1-0.6-2.8-0.8c-1-0.3-2.6-0.9-5-1.7
		c-2.3-0.8-4.7-2-7.1-3.6c-2.4-1.5-4.5-3.5-6.3-5.9s-2.7-5.2-2.7-8.6c0-3.4,0.6-6.4,1.8-8.9c1.2-2.5,2.8-4.5,4.7-6.2
		c2-1.6,4.2-2.8,6.7-3.6s5.1-1.2,7.8-1.2c4.2,0,7.7,0.5,10.6,1.5s5.3,2,7.2,3.2c2.1,1.4,3.9,2.9,5.4,4.7l-10.3,10.3
		c-1.6-2.1-3.4-3.7-5.4-4.7s-4-1.5-6.2-1.5c-1.7,0-3.4,0.4-5.1,1.2s-2.5,2.1-2.5,3.9c0,1,0.4,1.8,1.1,2.5s1.6,1.3,2.7,1.7
		s2.2,0.8,3.4,1.2C407.8,59.6,408.8,59.9,409.8,60.2z"/>
</g>
<g>
	<polygon class="st1" points="563.5,78.4 444.9,17.3 444.9,0 563.5,61.1 	"/>
	<polygon class="st1" points="495.9,99.5 444.9,125.9 444.9,143.2 495.9,117.2 	"/>
	<polygon class="st0" points="444.9,39.5 444.9,57.2 549.4,111.2 444.9,165.3 444.9,182.6 563.5,122.8 563.5,100.8 	"/>
</g>
<text transform="matrix(1 0 0 1 216.6524 167.6533)" class="st1 st2 st3">Admin</text>
</svg>
