<?xml version="1.0" encoding="utf-8"?>
<!-- Generator: Adobe Illustrator 22.1.0, SVG Export Plug-In . SVG Version: 6.00 Build 0)  -->
<svg version="1.1" id="Layer_1" xmlns="http://www.w3.org/2000/svg" xmlns:xlink="http://www.w3.org/1999/xlink" x="0px" y="0px"
	 viewBox="0 0 527.1 112" style="enable-background:new 0 0 527.1 112;" xml:space="preserve">
<style type="text/css">
	.afl-logo0{fill:#00b8ad;}
	.afl-logo1{fill:#989FA3;}
</style>
<g>
	<path class="afl-logo0" d="M69,36.8v61.3H54.3V67.5c0-4.9-1.7-9.1-5.1-12.5c-3.4-3.4-7.6-5.1-12.5-5.1c-2.4,0-4.6,0.4-6.8,1.3
		c-2.2,0.9-4.1,2.2-5.7,3.8c-3.4,3.4-5.1,7.6-5.1,12.5c0,4.8,1.7,8.9,5.1,12.4c1.6,1.7,3.5,3,5.7,3.9c2.2,0.9,4.4,1.3,6.8,1.3
		c2.4,0,4.7-0.4,6.6-1.2l5.3,13.1c-3.8,1.9-8.1,2.8-13.1,2.8c-4.5,0-8.6-0.8-12.4-2.5c-3.8-1.7-7.1-4-9.9-6.9
		c-2.8-2.9-4.9-6.4-6.5-10.3c-1.6-3.9-2.3-8.1-2.3-12.5c0-4.5,0.8-8.7,2.3-12.6c1.5-3.9,3.7-7.3,6.5-10.3c2.8-2.9,6.1-5.2,9.9-6.9
		c3.8-1.7,7.9-2.5,12.4-2.5c4,0,7.5,0.6,10.7,1.8c3.1,1.2,5.8,2.8,8.2,4.7v-4.9H69z"/>
	<path class="afl-logo0" d="M100.2,28.3c-1.8,0.8-3.3,1.8-4.7,3.1c-1.3,1.3-2.4,2.8-3.2,4.6c-0.8,1.8-1.2,3.7-1.2,5.7h8.7l3.7,14.7H91
		v41.8H76.3V56.4V41.8v-0.1c0.1-3.9,0.9-7.7,2.3-11.2c1.5-3.6,3.6-6.7,6.4-9.5c2.8-2.8,6-4.9,9.6-6.4c3.6-1.5,7.3-2.2,11.3-2.2v14.7
		C103.8,27.1,101.9,27.5,100.2,28.3z"/>
	<path class="afl-logo0" d="M111.4,12.4h14.7v14.7h-14.7V12.4z M111.4,98.1V36.9h14.7v61.2H111.4z"/>
	<path class="afl-logo0" d="M134.6,98.1V12.4h14.7v85.7H134.6z"/>
	<path class="afl-logo0" d="M157.9,12.4h14.7v14.7h-14.7V12.4z M157.9,98.1V36.9h14.7v61.2H157.9z"/>
	<path class="afl-logo0" d="M244,36.8v61.3h-14.7V67.5c0-4.9-1.7-9.1-5.1-12.5c-3.4-3.4-7.6-5.1-12.5-5.1c-2.4,0-4.6,0.4-6.8,1.3
		c-2.2,0.9-4.1,2.2-5.7,3.8c-3.4,3.4-5.1,7.6-5.1,12.5c0,4.8,1.7,8.9,5.1,12.4c1.6,1.7,3.5,3,5.7,3.9c2.2,0.9,4.4,1.3,6.8,1.3
		c2.4,0,4.7-0.4,6.6-1.2l5.3,13.1c-3.8,1.9-8.1,2.8-13.1,2.8c-4.5,0-8.6-0.8-12.4-2.5c-3.8-1.7-7.1-4-9.9-6.9
		c-2.8-2.9-4.9-6.4-6.5-10.3c-1.6-3.9-2.3-8.1-2.3-12.5c0-4.5,0.8-8.7,2.3-12.6c1.5-3.9,3.7-7.3,6.5-10.3c2.8-2.9,6.1-5.2,9.9-6.9
		c3.8-1.7,7.9-2.5,12.4-2.5c4,0,7.5,0.6,10.7,1.8c3.1,1.2,5.8,2.8,8.2,4.7v-4.9H244z"/>
	<path class="afl-logo0" d="M315.2,12.3v85.8h-14.7V67.5c0-5-1.7-9.1-5.1-12.5c-3.4-3.4-7.6-5.1-12.4-5.1c-4.9,0-9.1,1.7-12.5,5.1
		c-3.4,3.4-5.1,7.6-5.1,12.5c0,4.8,1.7,8.9,5.1,12.4c1.6,1.7,3.5,3,5.7,3.9c2.2,0.9,4.4,1.3,6.8,1.3c2.4,0,4.5-0.4,6.5-1.2l5.3,13.1
		c-3.8,1.9-8.1,2.8-13,2.8c-4.5,0-8.6-0.8-12.4-2.5c-3.8-1.7-7.1-4-9.9-6.9c-2.8-2.9-4.9-6.4-6.5-10.3c-1.6-3.9-2.3-8.1-2.3-12.5
		c0-4.5,0.8-8.7,2.3-12.6c1.5-3.9,3.7-7.3,6.5-10.3c2.8-2.9,6.1-5.2,9.9-6.9c3.8-1.7,7.9-2.5,12.4-2.5c3.9,0,7.4,0.6,10.5,1.8
		c3.1,1.2,5.8,2.8,8.2,4.7V12.3H315.2z"/>
	<path class="afl-logo0" d="M354.3,35.2c4.5,0,8.7,0.8,12.6,2.5c3.9,1.7,7.3,4,10.3,6.9c2.9,2.9,5.2,6.4,6.9,10.3
		c1.7,3.9,2.5,8.1,2.5,12.6c0,4.4-0.8,8.6-2.5,12.5c-1.7,3.9-4,7.3-6.9,10.3c-2.9,2.9-6.4,5.2-10.3,6.9c-3.9,1.7-8.1,2.5-12.6,2.5
		c-4.5,0-8.7-0.8-12.6-2.5c-3.9-1.7-7.3-4-10.3-6.9c-2.9-2.9-5.2-6.4-6.9-10.3c-1.7-3.9-2.5-8.1-2.5-12.5c0-4.5,0.8-8.7,2.5-12.6
		c1.7-3.9,4-7.3,6.9-10.3c2.9-2.9,6.4-5.2,10.3-6.9C345.6,36,349.8,35.2,354.3,35.2z M354.3,49.9c-4.9,0-9.1,1.7-12.5,5.1
		c-3.4,3.4-5.1,7.6-5.1,12.5c0,4.8,1.7,8.9,5.1,12.4c1.6,1.7,3.5,3,5.7,3.9c2.2,0.9,4.4,1.3,6.8,1.3c2.4,0,4.6-0.4,6.7-1.3
		c2.1-0.9,4-2.1,5.8-3.9c3.4-3.4,5.1-7.5,5.1-12.4c0-4.9-1.7-9.1-5.1-12.5C363.2,51.6,359,49.9,354.3,49.9z"/>
	<path class="afl-logo0" d="M413.4,60.2c1,0.2,2.6,0.8,4.9,1.7c2.3,0.9,4.6,2.1,7,3.7c2.4,1.6,4.5,3.6,6.3,5.9c1.8,2.4,2.7,5.2,2.7,8.4
		c0,2.9-0.5,5.5-1.4,7.8c-0.9,2.4-2.3,4.5-4.1,6.2c-1.8,1.8-4,3.2-6.6,4.2c-2.6,1-5.6,1.5-8.8,1.5c-5,0-9.6-0.9-13.9-2.7
		c-4.3-1.8-7.7-4-10.3-6.6l10.2-10.2c2.1,2.5,4.4,4.2,6.8,4.9c2.4,0.7,4.4,1.1,6.1,1.1c2.5,0,4.4-0.5,5.6-1.5s1.8-2.2,1.8-3.6
		c0-1-0.4-1.8-1.2-2.6c-0.8-0.7-1.8-1.3-2.9-1.8c-1.1-0.5-2.2-0.9-3.4-1.2c-1.1-0.3-2.1-0.6-2.8-0.8c-1-0.3-2.6-0.9-5-1.7
		c-2.3-0.8-4.7-2-7.1-3.6c-2.4-1.5-4.5-3.5-6.3-5.9c-1.8-2.4-2.7-5.2-2.7-8.6c0-3.4,0.6-6.4,1.8-8.9c1.2-2.5,2.8-4.5,4.7-6.2
		c2-1.6,4.2-2.8,6.7-3.6c2.5-0.8,5.1-1.2,7.8-1.2c4.2,0,7.7,0.5,10.6,1.5c2.9,1,5.3,2,7.2,3.2c2.1,1.4,3.9,2.9,5.4,4.7l-10.3,10.3
		c-1.6-2.1-3.4-3.7-5.4-4.7c-2-1-4-1.5-6.2-1.5c-1.7,0-3.4,0.4-5.1,1.2c-1.7,0.8-2.5,2.1-2.5,3.9c0,1,0.4,1.8,1.1,2.5
		c0.7,0.7,1.6,1.3,2.7,1.7c1.1,0.4,2.2,0.8,3.4,1.2C411.4,59.6,412.4,59.9,413.4,60.2z"/>
</g>
<g>
	<polygon class="afl-logo1" points="527.1,48.1 454.8,10.8 454.8,0 527.1,37.5 	"/>
	<polygon class="afl-logo1" points="485.7,60.8 454.8,76.6 454.7,88.5 485.7,71.9 	"/>
	<polygon class="afl-logo0" points="454.4,24.2 454.4,35.1 518.5,68.2 454.7,101.2 454.7,112 527.1,75.3 527.1,61.8 	"/>
</g>
</svg>
