<svg version="1.1" id="Layer_1" xmlns="http://www.w3.org/2000/svg" xmlns:xlink="http://www.w3.org/1999/xlink" x="0px" y="0px"
	 viewBox="0 0 109.8 26.6" style="enable-background:new 0 0 109.8 26.6;" xml:space="preserve">
<style type="text/css">
	.st1{fill:none;stroke:#FFFFFF;stroke-miterlimit:10;}
</style>
<g>
	<path d="M73.7,20.2c-0.6,0.3-1.7,0.5-2.8,0.5c-2.5,0-3.4-1.3-3.4-3.3V9.2h-1.6V6.3h1.6V2.7l3.4-0.4v4.1h2.9l-0.1,2.9
		h-2.8v7.7c0,0.6,0.3,1,1.1,1c0.5,0,1-0.1,1.4-0.2L73.7,20.2z"/>
	<path d="M75.8,0.6h3.4v3.9h-3.4V0.6z M75.8,6.3h3.4v14h-3.4V6.3z"/>
	<path d="M94.6,20.4V10.2c0-0.7-0.4-1.1-1.2-1.1c-0.7,0-1.3,0.2-1.9,0.5v10.8h-3.4V10.2c0-0.7-0.4-1.1-1.2-1.1
		c-0.7,0-1.4,0.2-1.9,0.5v10.8h-3.4v-14h2.8l0.3,1c0.8-0.8,2.2-1.3,3.6-1.3c1.3,0,2.2,0.4,2.7,1.3c0.9-0.7,2.3-1.3,3.7-1.3
		c2,0,3.1,0.9,3.1,3v11.3H94.6z"/>
	<path d="M103.4,14.6v1.1c0,1.6,0.7,2.3,2.5,2.3c1.2,0,2.4-0.2,3.4-0.6l0.5,2.5c-1.3,0.5-2.9,0.7-4.4,0.7
		c-3.5,0-5.3-1.7-5.3-5V11c0-3.2,1.9-5,5-5c3.5,0,4.7,1.8,4.7,4.9v3.6H103.4z M106.7,10.5c0-1.2-0.4-1.8-1.6-1.8
		c-1.2,0-1.7,0.6-1.7,1.8v1.6h3.3V10.5z"/>
	<path d="M22.9,20.7c-1.1,0-2.8-0.2-4-0.6l0.5-2.6c1,0.3,2,0.6,3.2,0.6c1.3,0,1.8-0.4,1.8-1.4c0-1.1-0.3-1.2-1.9-1.7
		c-3.1-1-3.7-1.9-3.7-4.6c0-3,1.7-4.2,4.8-4.2c1.4,0,2.7,0.2,3.7,0.6l-0.4,2.6c-0.9-0.3-2-0.6-3.1-0.6c-1.2,0-1.7,0.3-1.7,1.4
		c0,1,0.3,1.1,1.8,1.6c2.9,0.9,3.8,1.5,3.8,4.5C27.7,19,26.2,20.7,22.9,20.7"/>
	<path d="M36.1,20.4V10.2c0-0.7-0.4-1.1-1.2-1.1c-0.8,0-1.5,0.2-2,0.5v10.8h-3.4V0.5L32.9,0v7.2
		c0.9-0.7,2.3-1.2,3.5-1.2c2,0,3.1,0.9,3.1,3v11.3H36.1z"/>
	<path d="M52.4,15.9c0,2.9-1.8,4.7-5.3,4.7c-3.4,0-5.2-1.8-5.2-4.7v-5.2c0-2.9,1.8-4.7,5.2-4.7c3.4,0,5.3,1.8,5.3,4.7
		V15.9z M49,10.4c0-1.2-0.7-1.7-1.9-1.7c-1.2,0-1.9,0.5-1.9,1.7v5.9c0,1.2,0.7,1.7,1.9,1.7c1.2,0,1.9-0.5,1.9-1.7V10.4z"/>
	<path d="M64.6,16.3c0,3.1-1.7,4.3-4.3,4.3c-0.9,0-1.9-0.2-2.5-0.4v5.8l-3.4,0.5V6.3H57l0.3,1c0.8-0.7,2-1.3,3.6-1.3
		c2.5,0,3.7,1.3,3.7,4V16.3z M61.3,10.3c0-0.9-0.4-1.4-1.3-1.4c-0.9,0-1.6,0.2-2.2,0.6v8.2c0.5,0.2,1.1,0.2,1.6,0.2
		c1.3,0,1.9-0.5,1.9-1.7V10.3z"/>
	<polygon points="15.2,6.4 15.2,13.4 7.9,20.4 0.6,20.4 	"/>
	<polygon points="0.6,6.4 7.9,6.4 0.6,13.4 	"/>
</g>
<rect x="0.6" y="6.4" class="st1" width="14.5" height="14"/>
</svg>
