<?xml version="1.0" encoding="utf-8"?>
<!-- Generator: Adobe Illustrator 23.0.1, SVG Export Plug-In . SVG Version: 6.00 Build 0)  -->
<svg version="1.1" id="Layer_1" xmlns="http://www.w3.org/2000/svg" xmlns:xlink="http://www.w3.org/1999/xlink" x="0px" y="0px"
	 viewBox="0 0 670 163" style="enable-background:new 0 0 670 163;" xml:space="preserve">
<g>
	<g>
		<path style="fill:#FF6914;" d="M130,118.2c-8.5,0-17.8-1.5-24.6-4.6l1.1-14c5.9,3.5,15.4,5.9,22.2,5.9c7.3,0,11.5-2.2,11.5-6.7
			c0-11.9-35.1-4.5-35.1-29.5c0-13.4,11.5-21.4,28-21.4c6.4,0,14.1,1.1,19,2.9v13.2c-4.8-2-11.1-3.5-17.8-3.5c-7,0-12,2.5-12,7
			c0,10.9,35.1,4.8,35.1,29.4C157.4,111.1,145.5,118.2,130,118.2z"/>
		<path style="fill:#FF6914;" d="M227.7,116.9h-18.6V75.5c0-4.5-0.4-7.4-2.2-9.9c-1.8-2.4-4.8-3.8-8.8-3.8c-4.5,0-7.6,1.8-9.5,4.3
			c-2.2,2.9-2.8,6.7-2.8,11.9v38.9h-18.6V21.2h18.6v32.9c3.8-3.6,9.7-6.3,17.5-6.3c8,0,14.4,2.2,18.6,6.6c4.3,4.6,5.9,10.5,5.9,18.2
			V116.9z"/>
		<path style="fill:#FF6914;" d="M270.2,118.2c-21.3,0-33-13.2-33-35.1s11.8-35.3,33-35.3s33,13.3,33,35.3S291.5,118.2,270.2,118.2z
			 M270.2,60.6c-8.7,0-14.1,6-14.1,22.5s5.5,22.4,14.1,22.4s14.1-5.9,14.1-22.4S278.9,60.6,270.2,60.6z"/>
		<path style="fill:#FF6914;" d="M367.1,111.1c-5.7,4.8-13.4,7.1-23.2,7.1c-3.8,0-8.1-0.4-10.8-1v27.6h-18.6V62.2h-8.1V49.1h19.4l3.6,8.8
			c4.5-6.4,11.9-10.1,20.8-10.1c19,0,27.6,13.6,27.6,34.3C377.9,94.3,374.7,104.8,367.1,111.1z M345.5,61.5c-4.1,0-7.6,1.5-9.7,4.6
			c-2.1,2.8-2.7,6.4-2.7,11.6v27.3c2.8,0.7,5.9,1.1,9.1,1.1c13,0,16.8-9,16.8-23.5C359,68.8,354.8,61.5,345.5,61.5z"/>
		<path style="fill:#FF6914;" d="M429.1,113.7c-3.9,2.7-10.6,4.5-16.9,4.5c-6.6,0-12.2-2.1-15.4-5.5c-3.5-3.8-4.8-8.7-4.8-17.5v-33h-10.6V49.1
			h10.6V32.3l18.6-4.6v21.4h15.7v13.2h-15.7V95c0,6.4,1.7,9.9,7.4,9.9c3.9,0,8.3-1.7,11.5-3.6L429.1,113.7z"/>
		<path style="fill:#FF6914;" d="M468.3,114.3c-2.7,1.8-7.3,3.5-12.3,3.5c-5.7,0-9.7-1.7-11.9-4.8c-1.8-2.5-2.5-6.4-2.5-10.9V62.2h-8.1V49.1
			h26.7v52.2c0,2.9,1.1,4.2,3.4,4.2c1.7,0,4.2-1,5.3-1.8L468.3,114.3z M450.5,41c-5.7,0-10.5-4.6-10.5-10.4
			c0-5.7,4.6-10.4,10.4-10.4c5.7,0,10.2,4.6,10.2,10.4C460.6,36.4,456.3,41,450.5,41z"/>
		<path style="fill:#FF6914;" d="M579.6,116.9H561V75.5c0-4.3-0.1-7.3-2.1-9.9c-1.8-2.4-4.9-3.8-8.5-3.8c-3.9,0-7.1,1.7-9.1,4.2
			c-2.1,2.8-2.8,6.4-2.8,11.8v39.2h-18.6V75.5c0-4.3-0.1-7.3-2.1-9.9c-1.8-2.4-4.9-3.8-8.5-3.8c-3.9,0-7.1,1.7-9.1,4.2
			c-2.1,2.8-2.8,6.4-2.8,11.8v39.2h-18.6V62.2h-8.1V49.1h19.2l3.4,8.7c3.9-5.7,11.2-9.9,21.4-9.9c8.7,0,16.1,2.5,20.4,9.2
			c4.1-5.2,11.1-9.2,20.7-9.2c9.1,0,16.2,3.1,20,8.5c2.7,3.8,3.9,8.5,3.9,16.4V116.9z"/>
		<path style="fill:#FF6914;" d="M643.6,89.1h-35.3c1.3,10.9,8,16.2,18.3,16.2c7.8,0,16.4-2.8,22.2-6.9l-0.7,12.7c-6.4,4.6-16.2,7-25.3,7
			c-21.7,0-33.7-13.7-33.7-34.8c0-22.4,13-35.5,32-35.5c18.5,0,30.8,12.3,30.8,31.2C652,86.3,649.9,89.1,643.6,89.1z M621.2,60.4
			c-7.1,0-12.6,5.5-13.2,18h24.8c1,0,1.3-0.4,1.3-1.4C634.1,66.4,629.2,60.4,621.2,60.4z"/>
	</g>
	<g>
		<polygon style="fill:#6823CD;" points="85.5,117.6 50.7,117.6 85.5,82.8 		"/>
		<polygon style="fill:#6823CD;" points="85.5,47.8 15.7,117.6 15.7,82.7 50.6,47.8 		"/>
		<polygon style="fill:#FF6914;" points="85.5,47.8 85.5,82.8 50.7,117.6 15.7,117.6 		"/>
		<polygon style="fill:#FF6914;" points="15.7,47.8 50.6,47.8 15.7,82.7 		"/>
	</g>
</g>
</svg>
