<?xml version="1.0" encoding="utf-8"?>
<!-- Generator: Adobe Illustrator 23.0.1, SVG Export Plug-In . SVG Version: 6.00 Build 0)  -->
<svg version="1.1" id="Layer_1" xmlns="http://www.w3.org/2000/svg" xmlns:xlink="http://www.w3.org/1999/xlink" x="0px" y="0px"
	 viewBox="0 0 660 147" style="enable-background:new 0 0 660 147;" xml:space="preserve">
<g>
	<g>
		<path d="M127,108.7c-8.4,0-17.6-1.5-24.4-4.6l1.1-13.8c5.8,3.5,15.2,5.8,22,5.8c7.2,0,11.4-2.2,11.4-6.6
			c0-11.8-34.8-4.4-34.8-29.2c0-13.3,11.4-21.2,27.7-21.2c6.4,0,14,1.1,18.8,2.9v13c-4.7-1.9-10.9-3.5-17.6-3.5
			c-6.9,0-11.9,2.5-11.9,6.9c0,10.8,34.8,4.7,34.8,29.1C154.2,101.6,142.4,108.7,127,108.7z"/>
		<path d="M223.8,107.4h-18.4v-41c0-4.4-0.4-7.3-2.2-9.8c-1.8-2.4-4.7-3.7-8.7-3.7c-4.4,0-7.5,1.8-9.4,4.3
			c-2.2,2.9-2.8,6.6-2.8,11.8v38.5h-18.4V12.7h18.4v32.5c3.7-3.6,9.6-6.2,17.3-6.2c7.9,0,14.3,2.2,18.4,6.5c4.3,4.6,5.8,10.4,5.8,18
			V107.4z"/>
		<path d="M265.8,108.7c-21,0-32.7-13-32.7-34.8S244.8,39,265.8,39s32.7,13.2,32.7,34.9S286.9,108.7,265.8,108.7z
			 M265.8,51.6c-8.6,0-14,6-14,22.3s5.4,22.2,14,22.2c8.6,0,14-5.8,14-22.2S274.4,51.6,265.8,51.6z"/>
		<path d="M361.8,101.6c-5.7,4.7-13.3,7.1-23,7.1c-3.7,0-8-0.4-10.7-1V135h-18.4V53.3h-8v-13h19.2l3.6,8.7
			c4.4-6.4,11.8-10,20.6-10c18.8,0,27.3,13.4,27.3,33.9C372.5,85,369.3,95.4,361.8,101.6z M340.3,52.6c-4,0-7.5,1.5-9.6,4.6
			c-2.1,2.8-2.6,6.4-2.6,11.5v27c2.8,0.7,5.8,1.1,9,1.1c12.9,0,16.6-8.9,16.6-23.3C353.8,59.8,349.6,52.6,340.3,52.6z"/>
		<path d="M423.1,104.3c-3.9,2.6-10.5,4.4-16.8,4.4c-6.5,0-12-2.1-15.2-5.4c-3.5-3.7-4.7-8.6-4.7-17.3V53.3h-10.5v-13
			h10.5V23.7l18.4-4.6v21.2h15.5v13h-15.5v32.4c0,6.4,1.7,9.8,7.3,9.8c3.9,0,8.2-1.7,11.4-3.6L423.1,104.3z"/>
		<path d="M461.9,104.8c-2.6,1.8-7.2,3.5-12.2,3.5c-5.7,0-9.6-1.7-11.8-4.7c-1.8-2.5-2.5-6.4-2.5-10.8V53.3h-8v-13h26.4
			v51.6c0,2.9,1.1,4.2,3.3,4.2c1.7,0,4.2-1,5.3-1.8L461.9,104.8z M444.3,32.3c-5.7,0-10.4-4.6-10.4-10.2c0-5.7,4.6-10.2,10.2-10.2
			c5.7,0,10.1,4.6,10.1,10.2C454.3,27.7,450,32.3,444.3,32.3z"/>
		<path d="M572,107.4h-18.4v-41c0-4.3-0.1-7.2-2.1-9.8c-1.8-2.4-4.8-3.7-8.4-3.7c-3.9,0-7.1,1.7-9,4.2
			c-2.1,2.8-2.8,6.4-2.8,11.6v38.8h-18.4v-41c0-4.3-0.1-7.2-2.1-9.8c-1.8-2.4-4.8-3.7-8.4-3.7c-3.9,0-7.1,1.7-9,4.2
			c-2.1,2.8-2.8,6.4-2.8,11.6v38.8h-18.4V53.3h-8v-13h19l3.3,8.6c3.9-5.7,11.1-9.8,21.2-9.8c8.6,0,15.9,2.5,20.2,9.1
			c4-5.1,10.9-9.1,20.5-9.1c9,0,16.1,3,19.8,8.4c2.6,3.7,3.9,8.4,3.9,16.2V107.4z"/>
		<path d="M635.4,79.9h-34.9c1.2,10.8,7.9,16.1,18.1,16.1c7.8,0,16.2-2.8,22-6.8l-0.7,12.6c-6.4,4.6-16.1,6.9-25.1,6.9
			c-21.5,0-33.4-13.6-33.4-34.5c0-22.2,12.9-35.2,31.7-35.2c18.3,0,30.5,12.2,30.5,30.9C643.7,77.1,641.6,79.9,635.4,79.9z
			 M613.2,51.5c-7.1,0-12.5,5.4-13,17.9h24.5c1,0,1.2-0.4,1.2-1.4C626,57.5,621.1,51.5,613.2,51.5z"/>
	</g>
	<path d="M83.1,39.1H14v69.1h69.1V39.1z M17.1,70.5l28.3-28.3H80l-62.9,62.9V70.5z M51.6,105.1L80,76.7v28.3H51.6z"/>
</g>
</svg>
