<svg enable-background="new 0 0 81.1 25.8" version="1.1" viewBox="0 0 81.1 25.8" xml:space="preserve" xmlns="http://www.w3.org/2000/svg">
<path fill="#670dd1" d="m23.1 12.2l-0.8-0.1c-1.6-0.2-1.8-0.4-1.8-1 0-0.7 0.4-1 1.8-1 0.6 0 1.2 0.1 1.6 0.2v0.5c0 0.4 0.2 0.4 0.8 0.4 0.7 0 0.8-0.1 0.8-0.4v-0.6c0-0.5-0.2-0.8-0.8-1-0.5-0.2-1.3-0.4-2.4-0.4-2.4 0-3.6 0.7-3.6 2.4v0.1c0 1.4 1 2 2.5 2.2l0.9 0.1c1.6 0.2 1.9 0.5 1.9 1.2s-0.4 1.1-1.8 1.1c-0.6 0-1.3-0.1-1.9-0.2v-0.7c0-0.3-0.1-0.4-0.8-0.4s-0.8 0.1-0.8 0.4v0.7c0 0.7 0.2 1 0.8 1.2s1.5 0.3 2.5 0.3c3 0 3.8-0.8 3.8-2.6v-0.1c0.1-1.3-0.6-2-2.7-2.3zm6.8-0.8c-1.9 0-3 1-3 2.8v0.3c0 1.8 1.1 2.8 3 2.8s3-0.9 3-2.8v-0.3c0-1.8-1.1-2.8-3-2.8zm1.3 3c0 1-0.4 1.6-1.4 1.6s-1.4-0.6-1.4-1.6v-0.1c0-1 0.4-1.6 1.4-1.6s1.4 0.6 1.4 1.6v0.1zm8.9 1.5h-0.1c-0.2 0-0.3-0.1-0.3-0.3v-3.4c0-0.5-0.2-0.7-0.8-0.7h-1c-0.5 0-0.6 0.2-0.6 0.8 0 0.4 0.1 0.5 0.4 0.5h0.2c0.1 0 0.2 0 0.2 0.2v1.6c0 0.9-0.5 1.3-1.3 1.3s-1.1-0.3-1.1-1.5v-2.3c0-0.5-0.2-0.7-0.8-0.7h-1c-0.5 0-0.6 0.2-0.6 0.8 0 0.4 0.1 0.5 0.4 0.5h0.2c0.1 0 0.2 0 0.2 0.2v1.7c0 1.5 0.6 2.5 2.3 2.5 1 0 1.5-0.3 1.7-0.8h0.2c0.2 0.5 0.5 0.7 1.3 0.7h0.5c0.3 0 0.4-0.1 0.4-0.6 0-0.4-0.1-0.5-0.4-0.5zm8.4-3v-0.2c1-0.2 1.3-0.8 1.3-1.6v-0.1c0-1.5-1.3-2.1-3.5-2.1h-3.5c-0.3 0-0.4 0.1-0.4 0.6s0.1 0.6 0.4 0.6h0.5v5.6h-0.5c-0.3 0-0.4 0.1-0.4 0.6s0.1 0.6 0.4 0.6h1.4c0.5 0 0.7-0.1 0.7-0.5h0.2c0.3 0.3 0.9 0.6 1.7 0.6 2.2 0 3.2-0.8 3.2-2.3v-0.1c0.1-0.8-0.4-1.4-1.5-1.7zm-3.5-2.7h1.2c1.5 0 1.9 0.4 1.9 1v0.1c0 0.7-0.4 1-1.9 1h-1.2v-2.1zm3.4 4.5c0 0.8-0.4 1.2-1.7 1.2-0.5 0-1.3-0.1-1.6-0.2v-2.2h1.5c1.3 0 1.8 0.5 1.8 1.2zm8.5 1.1h-0.1c-0.2 0-0.3-0.1-0.3-0.3v-2.1c0-1.3-0.7-2.1-2.8-2.1-0.9 0-1.7 0.1-2.2 0.3-0.3 0.1-0.3 0.3-0.2 0.7s0.3 0.6 0.5 0.5c0.5-0.2 1-0.3 1.6-0.3 1.2 0 1.5 0.3 1.5 1v0.5h-0.2c-0.3-0.3-0.7-0.5-1.5-0.5-1.6 0-2.4 0.7-2.4 1.8v0.1c0 1 0.9 1.7 2.3 1.7 0.9 0 1.4-0.2 1.7-0.7h0.2c0.2 0.4 0.6 0.5 1.2 0.5h0.5c0.3 0 0.4-0.1 0.4-0.6 0.1-0.4 0-0.5-0.2-0.5zm-3.3 0.3c-0.8 0-1.2-0.3-1.2-0.7s0.3-0.7 1.2-0.7 1.3 0.3 1.3 0.7-0.4 0.7-1.3 0.7zm9.1-4.6c-0.2-0.1-0.5-0.1-0.8-0.1-0.9 0-1.5 0.4-1.7 1.1h-0.2v-0.4c0-0.4-0.2-0.5-0.7-0.5h-0.8c-0.5 0-0.6 0.2-0.6 0.8 0 0.4 0.1 0.5 0.4 0.5h0.2c0.1 0 0.2 0 0.2 0.2v2.8h-0.4c-0.3 0-0.4 0.1-0.4 0.6s0.1 0.6 0.4 0.6h2.7c0.3 0 0.4-0.1 0.4-0.6s-0.1-0.6-0.4-0.6h-0.6v-1.3c0-1.2 0.4-1.8 1.3-1.8 0.2 0 0.4 0 0.6 0.1 0.3 0.1 0.5 0 0.6-0.5 0.1-0.6 0-0.8-0.2-0.9zm6.6 4.3h-0.1c-0.2 0-0.3-0.1-0.3-0.3v-2.1c0-1.3-0.7-2.1-2.8-2.1-0.9 0-1.7 0.1-2.2 0.3-0.3 0.1-0.3 0.3-0.2 0.7s0.3 0.6 0.5 0.5c0.5-0.2 1-0.3 1.6-0.3 1.2 0 1.5 0.3 1.5 1v0.5h-0.2c-0.3-0.3-0.7-0.5-1.5-0.5-1.6 0-2.4 0.7-2.4 1.8v0.1c0 1 0.9 1.7 2.3 1.7 0.9 0 1.4-0.2 1.7-0.7h0.2c0.2 0.4 0.6 0.5 1.2 0.5h0.5c0.3 0 0.4-0.1 0.4-0.6 0.1-0.4 0.1-0.5-0.2-0.5zm-3.3 0.3c-0.8 0-1.2-0.3-1.2-0.7s0.3-0.7 1.2-0.7 1.3 0.3 1.3 0.7-0.4 0.7-1.3 0.7zm8-0.3c-0.3 0.1-0.6 0.1-0.9 0.1-0.5 0-0.7-0.2-0.7-0.8v-2.3h1.6c0.3 0 0.4-0.1 0.4-0.6s-0.1-0.6-0.4-0.6h-1.6v-1.3c0-0.4-0.2-0.5-0.8-0.5-0.7 0-0.8 0.1-0.8 0.5v1.3h-0.8c-0.3 0-0.4 0.1-0.4 0.6s0.1 0.6 0.4 0.6h0.7v2.6c0 1.2 0.4 1.8 2 1.8 0.5 0 1.2-0.1 1.5-0.2s0.3-0.2 0.2-0.7c0-0.5-0.1-0.6-0.4-0.5zm4-4.4c-1.9 0-3 1-3 2.8v0.3c0 1.8 1.1 2.8 3 2.8s3-0.9 3-2.8v-0.3c0.1-1.9-1.1-2.8-3-2.8zm1.4 3c0 1-0.4 1.6-1.4 1.6s-1.4-0.6-1.4-1.6v-0.1c0-1 0.4-1.6 1.4-1.6s1.4 0.6 1.4 1.6v0.1zm-63.8-14.4l-7.3 2.7c-0.2 0.1-0.5 0.1-0.6 0l-7.4-2.7c-0.2 0-0.3 0.1-0.3 0.2v22.4c0 0.2 0.1 0.4 0.3 0.5l7.3 2.7c0.2 0.1 0.5 0.1 0.6 0l7.3-2.7c0.2-0.1 0.3-0.3 0.3-0.5v-22.4c0.1-0.1-0.1-0.2-0.2-0.2zm-2.2 15.1c0 2.4-1 3.7-4.5 3.9v2.3l1.9-1.5c0.3-0.3 0.5-0.2 0.5 0.5 0 0.5-0.1 0.8-0.3 1l-2 1.6c-0.3 0.3-0.5 0.4-0.8 0.4h-0.4c-0.3 0-0.5-0.1-0.8-0.4l-2-1.6c-0.3-0.2-0.3-0.4-0.3-1s0.1-0.7 0.5-0.4l1.8 1.4v-2.3c-1.3 0-2.5-0.2-3.2-0.5-0.9-0.3-1.2-0.8-1.2-1.8v-1.1c0-0.6 0.2-0.7 1.3-0.7 1 0 1.3 0.2 1.3 0.7v1.1c1 0.2 2 0.3 3 0.3 2.2 0 2.8-0.6 2.8-1.7 0-1-0.5-1.5-2.9-1.8l-1.5-0.2c-2.3-0.3-3.8-1.2-3.8-3.4v-0.1c-0.2-2.4 1.2-3.5 4.2-3.7v-1.5c0-0.3 0.3-0.3 1-0.3s1 0 1 0.3v1.4c1.2 0.1 2.1 0.3 2.8 0.5 0.9 0.4 1.2 0.8 1.2 1.6v1c0 0.6-0.2 0.7-1.2 0.7s-1.3-0.1-1.3-0.6v-0.9c-0.7-0.2-1.6-0.3-2.5-0.3-2.3 0-2.8 0.6-2.8 1.6 0 0.8 0.3 1.2 2.7 1.5l1.2 0.1c3.1 0.4 4.3 1.6 4.3 3.7v0.2z"/>
</svg>
