<svg version="1.1" id="Layer_1" xmlns="http://www.w3.org/2000/svg" xmlns:xlink="http://www.w3.org/1999/xlink" x="0px" y="0px"
	 viewBox="0 0 81.1 25.8" style="enable-background:new 0 0 81.1 25.8;" xml:space="preserve">
<style type="text/css">
	.st1{fill:none;stroke:#FFFFFF;stroke-miterlimit:10;}
</style>
<g>
	<path d="M23.1,12.2l-0.8-0.1c-1.6-0.2-1.8-0.4-1.8-1c0-0.7,0.4-1,1.8-1c0.6,0,1.2,0.1,1.6,0.2v0.5
		c0,0.4,0.2,0.4,0.8,0.4c0.7,0,0.8-0.1,0.8-0.4v-0.6c0-0.5-0.2-0.8-0.8-1c-0.5-0.2-1.3-0.4-2.4-0.4c-2.4,0-3.6,0.7-3.6,2.4v0.1
		c0,1.4,1,2,2.5,2.2l0.9,0.1c1.6,0.2,1.9,0.5,1.9,1.2c0,0.7-0.4,1.1-1.8,1.1c-0.6,0-1.3-0.1-1.9-0.2V15c0-0.3-0.1-0.4-0.8-0.4
		c-0.7,0-0.8,0.1-0.8,0.4v0.7c0,0.7,0.2,1,0.8,1.2c0.6,0.2,1.5,0.3,2.5,0.3c3,0,3.8-0.8,3.8-2.6v-0.1C25.9,13.2,25.2,12.5,23.1,12.2
		z"/>
	<path d="M29.9,11.4c-1.9,0-3,1-3,2.8v0.3c0,1.8,1.1,2.8,3,2.8c1.9,0,3-0.9,3-2.8v-0.3C32.9,12.4,31.8,11.4,29.9,11.4z
		 M31.2,14.4c0,1-0.4,1.6-1.4,1.6c-1,0-1.4-0.6-1.4-1.6v-0.1c0-1,0.4-1.6,1.4-1.6c1,0,1.4,0.6,1.4,1.6V14.4z"/>
	<path d="M40.1,15.9H40c-0.2,0-0.3-0.1-0.3-0.3v-3.4c0-0.5-0.2-0.7-0.8-0.7h-1c-0.5,0-0.6,0.2-0.6,0.8
		c0,0.4,0.1,0.5,0.4,0.5h0.2c0.1,0,0.2,0,0.2,0.2v1.6c0,0.9-0.5,1.3-1.3,1.3c-0.8,0-1.1-0.3-1.1-1.5v-2.3c0-0.5-0.2-0.7-0.8-0.7h-1
		c-0.5,0-0.6,0.2-0.6,0.8c0,0.4,0.1,0.5,0.4,0.5h0.2c0.1,0,0.2,0,0.2,0.2v1.7c0,1.5,0.6,2.5,2.3,2.5c1,0,1.5-0.3,1.7-0.8h0.2
		c0.2,0.5,0.5,0.7,1.3,0.7h0.5c0.3,0,0.4-0.1,0.4-0.6C40.5,16,40.4,15.9,40.1,15.9z"/>
	<path d="M48.5,12.9v-0.2c1-0.2,1.3-0.8,1.3-1.6V11c0-1.5-1.3-2.1-3.5-2.1h-3.5c-0.3,0-0.4,0.1-0.4,0.6
		c0,0.5,0.1,0.6,0.4,0.6h0.5v5.6h-0.5c-0.3,0-0.4,0.1-0.4,0.6c0,0.5,0.1,0.6,0.4,0.6h1.4c0.5,0,0.7-0.1,0.7-0.5h0.2
		c0.3,0.3,0.9,0.6,1.7,0.6c2.2,0,3.2-0.8,3.2-2.3v-0.1C50.1,13.8,49.6,13.2,48.5,12.9z M45,10.2h1.2c1.5,0,1.9,0.4,1.9,1v0.1
		c0,0.7-0.4,1-1.9,1H45V10.2z M48.4,14.7c0,0.8-0.4,1.2-1.7,1.2c-0.5,0-1.3-0.1-1.6-0.2v-2.2h1.5C47.9,13.5,48.4,14,48.4,14.7
		L48.4,14.7z"/>
	<path d="M56.9,15.8h-0.1c-0.2,0-0.3-0.1-0.3-0.3v-2.1c0-1.3-0.7-2.1-2.8-2.1c-0.9,0-1.7,0.1-2.2,0.3
		c-0.3,0.1-0.3,0.3-0.2,0.7c0.1,0.4,0.3,0.6,0.5,0.5c0.5-0.2,1-0.3,1.6-0.3c1.2,0,1.5,0.3,1.5,1V14h-0.2c-0.3-0.3-0.7-0.5-1.5-0.5
		c-1.6,0-2.4,0.7-2.4,1.8v0.1c0,1,0.9,1.7,2.3,1.7c0.9,0,1.4-0.2,1.7-0.7h0.2c0.2,0.4,0.6,0.5,1.2,0.5h0.5c0.3,0,0.4-0.1,0.4-0.6
		C57.2,15.9,57.1,15.8,56.9,15.8z M53.6,16.1c-0.8,0-1.2-0.3-1.2-0.7v0c0-0.4,0.3-0.7,1.2-0.7c0.9,0,1.3,0.3,1.3,0.7
		C54.9,15.8,54.5,16.1,53.6,16.1z"/>
	<path d="M62.7,11.5c-0.2-0.1-0.5-0.1-0.8-0.1c-0.9,0-1.5,0.4-1.7,1.1H60l0-0.4c0-0.4-0.2-0.5-0.7-0.5h-0.8
		c-0.5,0-0.6,0.2-0.6,0.8c0,0.4,0.1,0.5,0.4,0.5h0.2c0.1,0,0.2,0,0.2,0.2v2.8h-0.4c-0.3,0-0.4,0.1-0.4,0.6c0,0.5,0.1,0.6,0.4,0.6
		h2.7c0.3,0,0.4-0.1,0.4-0.6c0-0.5-0.1-0.6-0.4-0.6h-0.6v-1.3c0-1.2,0.4-1.8,1.3-1.8c0.2,0,0.4,0,0.6,0.1c0.3,0.1,0.5,0,0.6-0.5
		C63,11.8,62.9,11.6,62.7,11.5z"/>
	<path d="M69.3,15.8h-0.1c-0.2,0-0.3-0.1-0.3-0.3v-2.1c0-1.3-0.7-2.1-2.8-2.1c-0.9,0-1.7,0.1-2.2,0.3
		c-0.3,0.1-0.3,0.3-0.2,0.7c0.1,0.4,0.3,0.6,0.5,0.5c0.5-0.2,1-0.3,1.6-0.3c1.2,0,1.5,0.3,1.5,1V14h-0.2c-0.3-0.3-0.7-0.5-1.5-0.5
		c-1.6,0-2.4,0.7-2.4,1.8v0.1c0,1,0.9,1.7,2.3,1.7c0.9,0,1.4-0.2,1.7-0.7h0.2c0.2,0.4,0.6,0.5,1.2,0.5h0.5c0.3,0,0.4-0.1,0.4-0.6
		C69.6,15.9,69.6,15.8,69.3,15.8z M66,16.1c-0.8,0-1.2-0.3-1.2-0.7v0c0-0.4,0.3-0.7,1.2-0.7c0.9,0,1.3,0.3,1.3,0.7
		C67.3,15.8,66.9,16.1,66,16.1z"/>
	<path d="M74,15.8c-0.3,0.1-0.6,0.1-0.9,0.1c-0.5,0-0.7-0.2-0.7-0.8v-2.3h1.6c0.3,0,0.4-0.1,0.4-0.6
		c0-0.5-0.1-0.6-0.4-0.6h-1.6v-1.3c0-0.4-0.2-0.5-0.8-0.5c-0.7,0-0.8,0.1-0.8,0.5v1.3H70c-0.3,0-0.4,0.1-0.4,0.6
		c0,0.5,0.1,0.6,0.4,0.6h0.7v2.6c0,1.2,0.4,1.8,2,1.8c0.5,0,1.2-0.1,1.5-0.2c0.3-0.1,0.3-0.2,0.2-0.7C74.4,15.8,74.3,15.7,74,15.8z"
		/>
	<path d="M78,11.4c-1.9,0-3,1-3,2.8v0.3c0,1.8,1.1,2.8,3,2.8c1.9,0,3-0.9,3-2.8v-0.3C81.1,12.3,79.9,11.4,78,11.4z
		 M79.4,14.4c0,1-0.4,1.6-1.4,1.6c-1,0-1.4-0.6-1.4-1.6v-0.1c0-1,0.4-1.6,1.4-1.6c1,0,1.4,0.6,1.4,1.6V14.4z"/>
</g>
<path d="M15.6,0L8.3,2.7c-0.2,0.1-0.5,0.1-0.6,0L0.3,0C0.1,0,0,0.1,0,0.2v22.4c0,0.2,0.1,0.4,0.3,0.5l7.3,2.7
	c0.2,0.1,0.5,0.1,0.6,0l7.3-2.7c0.2-0.1,0.3-0.3,0.3-0.5V0.2C15.9,0.1,15.7,0,15.6,0z M13.4,15.1c0,2.4-1,3.7-4.5,3.9v2.3l1.9-1.5
	c0.3-0.3,0.5-0.2,0.5,0.5c0,0.5-0.1,0.8-0.3,1L9,22.9c-0.3,0.3-0.5,0.4-0.8,0.4H7.8c-0.3,0-0.5-0.1-0.8-0.4l-2-1.6
	c-0.3-0.2-0.3-0.4-0.3-1c0-0.6,0.1-0.7,0.5-0.4L7,21.3V19c-1.3,0-2.5-0.2-3.2-0.5c-0.9-0.3-1.2-0.8-1.2-1.8v-1.1
	c0-0.6,0.2-0.7,1.3-0.7c1,0,1.3,0.2,1.3,0.7v1.1c1,0.2,2,0.3,3,0.3c2.2,0,2.8-0.6,2.8-1.7c0-1-0.5-1.5-2.9-1.8l-1.5-0.2
	c-2.3-0.3-3.8-1.2-3.8-3.4V9.8C2.6,7.4,4,6.3,7,6.1V4.6c0-0.3,0.3-0.3,1-0.3c0.7,0,1,0,1,0.3v1.4c1.2,0.1,2.1,0.3,2.8,0.5
	C12.7,6.9,13,7.3,13,8.1v1c0,0.6-0.2,0.7-1.2,0.7c-1,0-1.3-0.1-1.3-0.6V8.3C9.8,8.1,8.9,8,8,8C5.7,8,5.2,8.6,5.2,9.6
	c0,0.8,0.3,1.2,2.7,1.5l1.2,0.1c3.1,0.4,4.3,1.6,4.3,3.7V15.1z"/>
</svg>
