<svg width="1792" height="1792" viewBox="0 0 1792 1792" xmlns="http://www.w3.org/2000/svg">
  <rect fill="#00adef" width="1792" height="1792" /><path fill="#ffcb05" d="m 1264.3,899.3 h -161.5 v -44.1 c 0,-39.6 -31.1,-70 -70.8,-70 h -64.79997 v -67.8 c 0,-21.1 3.3,-23 32.99997,-23 17.4,0 33,-14.8 33,-33 0,-17.8 -13.7,-32.2 -31.5,-33 0,0 -38.49997,0 -67.39997,0 -22.6,0 -33,19.3 -33,33 v 123.8 h -68.30004 c -45.9,0 -70,35.6 -70,70 v 44.1 h -159 c -64.1,0 -117.5,45.9 -129.3,106.7 h -24.8 c 4.8,-25.9 13.7,-64.8 13.7,-69.7 0,-7.4 -5.6,-18.5 -21.9,-11.1 -15.9,7 -34.5,15.6 -34.5,15.6 0,0 -19.6,8.2 -7.4,20.4 0,0 24.1,25.9 24.1,67.1 v 0 0 c 0,41.1 -24.1,67.1 -24.1,67.1 -12.2,12.2 7.4,20.4 7.4,20.4 0,0 18.5,8.5 34.5,15.6 16.3,7.4 21.9,-3.7 21.9,-11.1 0,-4.4 -9.3,-38.9 -14.1,-63.4 v 0 h 24.8 c 11.9,60.8 65.6,106.7 129.7,106.7 H 1264.3 c 72.6,0 131.8999,-59.3 131.8999,-131.9 0,-73.2 -59.2999,-132.4 -131.8999,-132.4 z" />
</svg>
