<svg width="1792" height="1792" viewBox="0 0 1792 1792" xmlns="http://www.w3.org/2000/svg">
  <rect stroke="null" id="svg_9" height="1864.019873" width="1924.020499" y="-22.009775" x="-46.010072" stroke-width="null" fill="#03f"/>
  <path stroke="null" id="svg_2" fill="#ffffff" d="m1272.912064,896.323175l-165.121098,0l0,-45.147034a70.22872,70.22872 0 0 0 -71.900833,-71.064776l-66.466467,0l0,-69.392664c0,-21.319433 3.762253,-23.409573 33.860276,-23.409573a34.278304,34.278304 0 0 0 33.860276,-33.442248a33.860276,33.860276 0 0 0 -30.098023,-33.860276l-71.064776,0a33.860276,33.860276 0 0 0 -33.860276,33.860276l0,125.408429l-69.392664,0a68.974636,68.974636 0 0 0 -71.064776,71.064776l0,45.983091l-162.61293,0a135.023075,135.023075 0 0 0 -130.006738,99.908715l-21.737461,0l0,-32.188163a33.860276,33.860276 0 0 0 -67.302524,0l0,135.023075a33.860276,33.860276 0 0 0 67.302524,0l0,-33.860276l22.155489,0a134.605047,134.605047 0 0 0 129.58871,100.744771l673.861292,0a135.023075,135.023075 0 0 0 0,-269.628122z"/>
</svg>
