<svg id="Layer_1" data-name="Layer 1" xmlns="http://www.w3.org/2000/svg" viewBox="0 0 297.17 75.17">
<path style="fill:#fc0;" d="M128.41,43.7H106.16V37.61A9.54,9.54,0,0,0,96.44,28h-9V18.61c0-2.87.46-3.13,4.55-3.13a4.61,4.61,0,0,0,4.55-4.55,4.55,4.55,0,0,0-4.32-4.54H83a4.51,4.51,0,0,0-4.55,4.54V28H69a9.34,9.34,0,0,0-9.6,9.63V43.7H37.51A18.18,18.18,0,0,0,19.67,58.36H16.26c.69-3.58,1.91-8.93,1.91-9.59,0-1-.76-2.54-3-1.52s-4.73,2.17-4.73,2.17-2.72,1.08-1,2.77a14.55,14.55,0,0,1,3.31,9.23v0a14.55,14.55,0,0,1-3.31,9.23c-1.69,1.69,1,2.77,1,2.77s2.53,1.19,4.73,2.17,3-.54,3-1.52c0-.6-1.26-5.36-2-8.76h3.45A18.18,18.18,0,0,0,37.51,80.06h90.9a18.18,18.18,0,1,0,0-36.36Z" transform="translate(-8.83 -6.39)"/><path style="fill:#00adee;" d="M158.6,66.91A7,7,0,0,0,151.41,74v.13a7.19,7.19,0,0,0,14.38,0V74A7,7,0,0,0,158.6,66.91Z" transform="translate(-8.83 -6.39)"/><path style="fill:#00adee;" d="M197.35,66.65a6.11,6.11,0,0,0-3.58,1.22A8.67,8.67,0,0,1,188.12,70c-4.36,0-7.41-3.37-7.41-8.19v-.13c0-4.53,3.09-8.07,7-8.07a8,8,0,0,1,5.3,1.92,6.2,6.2,0,0,0,3.79,1.29,6,6,0,0,0,6-5.94,5.88,5.88,0,0,0-2.13-4.58C197.33,43.44,193.1,42,187.8,42A19.61,19.61,0,0,0,167.91,61.8v.13a19.48,19.48,0,0,0,19.76,19.62c5.5,0,9.77-1.56,13.44-4.9a5.72,5.72,0,0,0-3.76-10Z" transform="translate(-8.83 -6.39)"/><path style="fill:#00adee;" d="M224.84,42c-11.52,0-20.54,8.68-20.54,19.76v.13c0,11,9,19.62,20.41,19.62s20.55-8.68,20.55-19.75v-.13C245.26,50.66,236.29,42,224.84,42Zm-7.73,19.63c0-3.89,2.38-8.07,7.6-8.07,4.41,0,7.74,3.52,7.74,8.2v.13c0,3.88-2.38,8.06-7.61,8.06-4.41,0-7.73-3.52-7.73-8.19Z" transform="translate(-8.83 -6.39)"/><path style="fill:#00adee;" d="M292.66,42a15.56,15.56,0,0,0-11.29,4.62c-2.27-3-5.79-4.62-10.12-4.62a13,13,0,0,0-9.5,3.91,6.47,6.47,0,0,0-12.29,2.81V74.7a6.47,6.47,0,0,0,12.94,0v-15c0-3.74,1.52-5.64,4.53-5.64,1.07,0,4.33,0,4.33,5.64v15a6.47,6.47,0,0,0,12.94,0v-15c0-3.74,1.52-5.64,4.53-5.64,1.07,0,4.33,0,4.33,5.64v15a6.47,6.47,0,0,0,12.94,0V56.43C306,47.42,301,42,292.66,42Z" transform="translate(-8.83 -6.39)"/>
</svg>
