<svg enable-background="new 0 0 117.2 28.4" version="1.1" viewBox="0 0 117.2 28.4" xml:space="preserve"
  xmlns="http://www.w3.org/2000/svg">
  <g transform="matrix(1.8237 0 0 1.7807 .21863 3.6728)">
    <path style="fill:#03f;" d="m27.12 6.31v1.22a2.85 2.85 0 0 0-1.42-0.4 0.84 0.84 0 0 0-0.51 0.14 0.44 0.44 0 0 0-0.17 0.35 0.47 0.47 0 0 0 0.21 0.37 3.15 3.15 0 0 0 0.64 0.36l0.43 0.2a4.1 4.1 0 0 1 0.4 0.25 1.66 1.66 0 0 1 0.36 0.33 1.58 1.58 0 0 1 0.22 0.43 1.42 1.42 0 0 1 0.1 0.55 1.56 1.56 0 0 1-0.57 1.25 2.26 2.26 0 0 1-1.51 0.48 3.36 3.36 0 0 1-1.65-0.36v-1.31a2.81 2.81 0 0 0 1.65 0.56 0.72 0.72 0 0 0 0.49-0.16 0.5 0.5 0 0 0 0.2-0.41 0.41 0.41 0 0 0 0.01-0.16 0.42 0.42 0 0 0-0.09-0.14l-0.13-0.12-0.19-0.11-0.21-0.1-0.25-0.12-0.27-0.12a2.69 2.69 0 0 1-0.88-0.63 1.45 1.45 0 0 1-0.34-1 1.46 1.46 0 0 1 0.55-1.19 2.22 2.22 0 0 1 1.46-0.47 3.47 3.47 0 0 1 1.47 0.31z"/>
    <path style="fill:#03f;" d="m30.85 7.47h1.24v4.3h-1.24v-0.68a1.31 1.31 0 0 1-1.31 0.72 1.42 1.42 0 0 1-1-0.37 1.51 1.51 0 0 1-0.37-1.09v-2.88h1.24v2.6q0 0.75 0.66 0.75c0.54 0 0.81-0.36 0.81-1.07z"/>
    <path style="fill:#03f;" d="m34.32 5.78v2.35a1.43 1.43 0 0 1 1.28-0.71 1.71 1.71 0 0 1 1.33 0.58 2.3 2.3 0 0 1 0.53 1.6 2.53 2.53 0 0 1-0.5 1.56 1.61 1.61 0 0 1-1.35 0.65 1.41 1.41 0 0 1-1.29-0.72v0.67h-1.24v-6zm1 5a0.84 0.84 0 0 0 0.66-0.32 1.24 1.24 0 0 0 0.27-0.83 1.3 1.3 0 0 0-0.26-0.88 0.83 0.83 0 0 0-0.66-0.31 0.89 0.89 0 0 0-0.67 0.3 1.13 1.13 0 0 0-0.29 0.83 1.36 1.36 0 0 0 0.27 0.88 0.82 0.82 0 0 0 0.63 0.34z"/>
    <path style="fill:#03f;" d="m39.48 7.47v0.67a1.25 1.25 0 0 1 1.21-0.71 1.17 1.17 0 0 1 1.21 0.81 1.12 1.12 0 0 1 0.48-0.59 1.41 1.41 0 0 1 0.8-0.22 1.31 1.31 0 0 1 1 0.4 1.7 1.7 0 0 1 0.37 1.17v2.75h-1.24v-2.53a1.08 1.08 0 0 0-0.14-0.58 0.49 0.49 0 0 0-0.42-0.21 0.71 0.71 0 0 0-0.51 0.23 1.23 1.23 0 0 0-0.24 0.84v2.27h-1.22v-2.55a1 1 0 0 0-0.15-0.58 0.46 0.46 0 0 0-0.41-0.21 0.71 0.71 0 0 0-0.51 0.23 1.22 1.22 0 0 0-0.23 0.84v2.27h-1.24v-4.3z"/>
    <path style="fill:#03f;" d="m45.61 8.8v-1.11a2.94 2.94 0 0 1 1.47-0.29 2 2 0 0 1 1.36 0.39 1.54 1.54 0 0 1 0.45 1.21v2.75h-1.21v-0.52a1.09 1.09 0 0 1-1.07 0.55 1.31 1.31 0 0 1-1-0.36 1.23 1.23 0 0 1-0.35-0.89 1.14 1.14 0 0 1 0.45-1 2.2 2.2 0 0 1 1.35-0.34h0.54v-0.19q0-0.54-0.72-0.54a2.3 2.3 0 0 0-1.27 0.34zm2 1.21h-0.4a0.74 0.74 0 0 0-0.48 0.13 0.41 0.41 0 0 0-0.17 0.35c0 0.29 0.16 0.43 0.5 0.43a0.49 0.49 0 0 0 0.4-0.16 0.6 0.6 0 0 0 0.15-0.44z"/>
    <path style="fill:#03f;" d="m51.09 7.47v0.8a1.21 1.21 0 0 1 0.4-0.6 1 1 0 0 1 0.64-0.22 1.39 1.39 0 0 1 0.32 0v1.2a1.13 1.13 0 0 0-0.45-0.09 0.81 0.81 0 0 0-0.64 0.29 1.2 1.2 0 0 0-0.25 0.78v2.14h-1.25v-4.3z"/>
    <path style="fill:#03f;" d="m53.14 7a0.72 0.72 0 1 1 1-1 0.7 0.7 0 0 1 0 1 0.71 0.71 0 0 1-1 0zm-0.14 4.77v-4.3h1.23v4.3z"/>
    <path style="fill:#03f;" d="m56.53 7.47v0.73a1.26 1.26 0 0 1 0.47-0.56 1.47 1.47 0 0 1 0.8-0.21 1.35 1.35 0 0 1 1 0.4 1.59 1.59 0 0 1 0.43 1.17v2.79h-1.23v-2.58a0.84 0.84 0 0 0-0.18-0.58 0.63 0.63 0 0 0-0.5-0.2 0.71 0.71 0 0 0-0.56 0.27 1.21 1.21 0 0 0-0.22 0.8v2.27h-1.25v-4.3z"/>
    <path style="fill:#03f;" d="m62.09 11.84a2 2 0 0 1-1.56-0.61 2.19 2.19 0 0 1-0.53-1.55 2.35 2.35 0 0 1 0.57-1.63 2.22 2.22 0 0 1 3.09 0 2.29 2.29 0 0 1 0.55 1.58 2.35 2.35 0 0 1-0.55 1.61 2 2 0 0 1-1.57 0.6zm0-3.46a0.67 0.67 0 0 0-0.61 0.35 1.72 1.72 0 0 0-0.2 0.9 1.84 1.84 0 0 0 0.2 0.9 0.69 0.69 0 0 0 0.63 0.35 0.64 0.64 0 0 0 0.6-0.34 1.72 1.72 0 0 0 0.2-0.9c-0.01-0.84-0.28-1.26-0.83-1.26z"/>
    <path style="fill:#03f;" d="m19.25 6h-3.56v-1a1.52 1.52 0 0 0-1.55-1.54h-1.43v-1.46c0-0.46 0.07-0.5 0.73-0.5a0.73 0.73 0 0 0 0-1.45h-1.44a0.72 0.72 0 0 0-0.72 0.73v2.67h-1.52a1.49 1.49 0 0 0-1.53 1.55v1h-3.5a2.9 2.9 0 0 0-2.81 2.15h-0.47v-0.73a0.73 0.73 0 0 0-0.72-0.73 0.73 0.73 0 0 0-0.73 0.73v2.9a0.73 0.73 0 0 0 0.73 0.73 0.73 0.73 0 0 0 0.72-0.73v-0.72h0.48a2.9 2.9 0 0 0 2.8 2.17h14.52a2.91 2.91 0 0 0 0-5.81z"/>
  </g>
</svg>
