<svg enable-background="new 0 0 117.2 28.4" version="1.1" viewBox="0 0 117.2 28.4" xml:space="preserve" xmlns="http://www.w3.org/2000/svg">
<path d="m47.3 14.1h-8.7v-2.3c0-2.1-1.7-3.6-3.8-3.6h-3.5v-3.5c0-1.1 0.2-1.2 1.8-1.2 0.9 0 1.8-0.8 1.8-1.7s-0.7-1.7-1.7-1.7h-3.6c-1.2 0-1.8 1-1.8 1.7v6.4h-3.7c-2.5 0-3.8 1.9-3.8 3.6v2.3h-8.6c-3.5 0-6.3 2.4-7 5.5h-1.3c0.3-1.4 0.7-3.4 0.7-3.6 0-0.4-0.3-1-1.2-0.6s-1.8 0.8-1.8 0.8-1.1 0.4-0.4 1c0 0 1.3 1.4 1.3 3.5s-1.3 3.5-1.3 3.5c-0.7 0.6 0.4 1 0.4 1s1 0.4 1.8 0.8c0.9 0.4 1.2-0.2 1.2-0.6 0-0.2-0.5-2-0.8-3.3h1.3c0.6 3.2 3.5 5.6 7 5.6h35.6c3.9 0 7.1-3.1 7.1-6.9 0.1-3.6-3.1-6.7-7-6.7zm11.8 8.8c-1.6 0-2.8 1.1-2.8 2.7v0.1c0 1.5 1.2 2.7 2.8 2.7s2.8-1.1 2.8-2.7v-0.1c0-1.6-1.2-2.7-2.8-2.7zm15.2-0.1c-0.7 0-1.2 0.3-1.4 0.5-0.7 0.6-1.4 0.8-2.2 0.8-1.7 0-2.9-1.3-2.9-3.1 0-1.7 1.2-3.1 2.7-3.1 0.8 0 1.4 0.2 2.1 0.7 0.4 0.3 0.9 0.5 1.5 0.5 1.3 0 2.4-1 2.4-2.2 0-1-0.6-1.6-0.8-1.7-1.3-1.1-3-1.6-5.1-1.6-4.4 0-7.8 3.3-7.8 7.5s3.4 7.4 7.7 7.4c2.2 0 3.8-0.6 5.3-1.9 0.5-0.4 0.8-1 0.8-1.6-0.1-1.3-1.1-2.2-2.3-2.2zm10.7-9.3c-4.5 0-8 3.3-8 7.5s3.5 7.4 8 7.4 8-3.3 8-7.5-3.5-7.4-8-7.4zm-3 7.4c0-1.5 0.9-3.1 3-3.1 1.7 0 3 1.3 3 3.1 0 1.5-0.9 3-3 3-1.7 0.1-3-1.2-3-3zm29.5-7.4c-1.7 0-3.2 0.6-4.4 1.7-0.9-1.1-2.3-1.7-4-1.7s-2.9 0.7-3.7 1.5c-0.4-0.8-1.3-1.4-2.3-1.4-1.4 0-2.5 1.1-2.5 2.4v9.8c0 1.3 1.1 2.4 2.5 2.4s2.5-1.1 2.5-2.4v-5.7c0-1.4 0.6-2.1 1.8-2.1 0.4 0 1.7 0 1.7 2.1v5.7c0 1.3 1.1 2.4 2.5 2.4s2.5-1.1 2.5-2.4v-5.7c0-1.4 0.6-2.1 1.8-2.1 0.4 0 1.7 0 1.7 2.1v5.7c0 1.3 1.1 2.4 2.5 2.4s2.5-1.1 2.5-2.4v-6.9c0.2-3.4-1.8-5.4-5.1-5.4z"/>
</svg>
