<svg viewBox="0 0 1792 1792"
  xmlns="http://www.w3.org/2000/svg">
  <rect x="-46.01" y="-22.01" width="1924" height="1864" fill="#03f" stroke="null" stroke-width="null"/>
  <path d="m1272.9 896.32h-165.12v-45.147a70.229 70.229 0 0 0 -71.901 -71.065h-66.466v-69.393c0-21.319 3.7623-23.41 33.86-23.41a34.278 34.278 0 0 0 33.86 -33.442 33.86 33.86 0 0 0 -30.098 -33.86h-71.065a33.86 33.86 0 0 0 -33.86 33.86v125.41h-69.393a68.975 68.975 0 0 0 -71.065 71.065v45.983h-162.61a135.02 135.02 0 0 0 -130.01 99.909h-21.737v-32.188a33.86 33.86 0 0 0 -67.303 0v135.02a33.86 33.86 0 0 0 67.303 0v-33.86h22.155a134.61 134.61 0 0 0 129.59 100.74h673.86a135.02 135.02 0 0 0 0 -269.63z" fill="#fff" stroke="null"/>
</svg>
