<svg version="1.1" id="Layer_1" xmlns="http://www.w3.org/2000/svg" xmlns:xlink="http://www.w3.org/1999/xlink" x="0px" y="0px"
	 viewBox="0 0 117.2 28.4" style="enable-background:new 0 0 117.2 28.4;" xml:space="preserve">
<style type="text/css">
	.st1{fill:none;stroke:#FFFFFF;stroke-miterlimit:10;}
</style>
<g>
	<path d="M47.3,14.1c-0.2,0-8.7,0-8.7,0v-2.3c0-2.1-1.7-3.6-3.8-3.6c0,0-1.3,0-3.5,0c0-1.9,0-3.3,0-3.5
		c0-1.1,0.2-1.2,1.8-1.2c0.9,0,1.8-0.8,1.8-1.7c0-0.9-0.7-1.7-1.7-1.7c0,0-2.1,0-3.6,0c-1.2,0-1.8,1-1.8,1.7c0,0.2,0,3.4,0,6.4
		c-2.1,0-3.7,0-3.7,0c-2.5,0-3.8,1.9-3.8,3.6v2.3c0,0-8.4,0-8.6,0c-3.5,0-6.3,2.4-7,5.5H3.4c0.3-1.4,0.7-3.4,0.7-3.6
		c0-0.4-0.3-1-1.2-0.6c-0.9,0.4-1.8,0.8-1.8,0.8s-1.1,0.4-0.4,1c0,0,1.3,1.4,1.3,3.5c0,0,0,0,0,0c0,0,0,0,0,0c0,2.1-1.3,3.5-1.3,3.5
		c-0.7,0.6,0.4,1,0.4,1s1,0.4,1.8,0.8c0.9,0.4,1.2-0.2,1.2-0.6c0-0.2-0.5-2-0.8-3.3c0,0,0,0,0,0h1.3c0.6,3.2,3.5,5.6,7,5.6
		c0.1,0,35.5,0,35.6,0c3.9,0,7.1-3.1,7.1-6.9C54.4,17.2,51.2,14.1,47.3,14.1z"/>
	<g>
		<path d="M59.1,22.9c-1.6,0-2.8,1.1-2.8,2.7v0.1c0,1.5,1.2,2.7,2.8,2.7c1.6,0,2.8-1.1,2.8-2.7v-0.1
			C61.9,24,60.7,22.9,59.1,22.9z"/>
		<path d="M74.3,22.8c-0.7,0-1.2,0.3-1.4,0.5c-0.7,0.6-1.4,0.8-2.2,0.8c-1.7,0-2.9-1.3-2.9-3.1v0c0-1.7,1.2-3.1,2.7-3.1
			c0.8,0,1.4,0.2,2.1,0.7c0.4,0.3,0.9,0.5,1.5,0.5c1.3,0,2.4-1,2.4-2.2c0-1-0.6-1.6-0.8-1.7c-1.3-1.1-3-1.6-5.1-1.6
			c-4.4,0-7.8,3.3-7.8,7.5v0c0,4.2,3.4,7.4,7.7,7.4c2.2,0,3.8-0.6,5.3-1.9c0.5-0.4,0.8-1,0.8-1.6C76.5,23.7,75.5,22.8,74.3,22.8z"/>
		<path d="M85,13.5c-4.5,0-8,3.3-8,7.5v0c0,4.2,3.5,7.4,8,7.4c4.5,0,8-3.3,8-7.5v0C93,16.7,89.5,13.5,85,13.5z M82,20.9
			c0-1.5,0.9-3.1,3-3.1c1.7,0,3,1.3,3,3.1v0c0,1.5-0.9,3-3,3C83.3,24,82,22.7,82,20.9L82,20.9z"/>
		<path d="M111.5,13.5c-1.7,0-3.2,0.6-4.4,1.7c-0.9-1.1-2.3-1.7-4-1.7c-1.7,0-2.9,0.7-3.7,1.5c-0.4-0.8-1.3-1.4-2.3-1.4
			c-1.4,0-2.5,1.1-2.5,2.4v9.8c0,1.3,1.1,2.4,2.5,2.4c1.4,0,2.5-1.1,2.5-2.4v-5.7c0-1.4,0.6-2.1,1.8-2.1c0.4,0,1.7,0,1.7,2.1v5.7
			c0,1.3,1.1,2.4,2.5,2.4c1.4,0,2.5-1.1,2.5-2.4v-5.7c0-1.4,0.6-2.1,1.8-2.1c0.4,0,1.7,0,1.7,2.1v5.7c0,1.3,1.1,2.4,2.5,2.4
			c1.4,0,2.5-1.1,2.5-2.4v-6.9C116.8,15.5,114.8,13.5,111.5,13.5z"/>
	</g>
</g>
</svg>
