<?xml version="1.0" encoding="UTF-8"?>
<svg width="17px" height="25px" viewBox="0 0 17 25" version="1.1" xmlns="http://www.w3.org/2000/svg" xmlns:xlink="http://www.w3.org/1999/xlink">
    <!-- Generator: Sketch 52.6 (67491) - http://www.bohemiancoding.com/sketch -->
    <title>icon_minhas_ofertas</title>
    <desc>Created with Sketch.</desc>
    <g id="fluxo-principal" stroke="none" stroke-width="1" fill="none" fill-rule="evenodd">
        <g id="07_produto_indisponivel" transform="translate(-19.000000, -133.000000)" fill="#343333">
            <g id="Left-Navigation" transform="translate(-2.000000, 62.000000)">
                <g id="menu_normal" transform="translate(0.000000, 61.000000)">
                    <g id="icon_minhas_ofertas" transform="translate(13.000000, 9.000000)">
                        <g id="Shape">
                            <path d="M26.851,16.038 L16.951,6.138 C16.555,5.742 16.005,5.5 15.4,5.5 L7.7,5.5 C6.49,5.5 5.5,6.49 5.5,7.7 L5.5,15.4 C5.5,16.005 5.742,16.555 6.149,16.962 L16.049,26.862 C16.445,27.258 16.995,27.5 17.6,27.5 C18.205,27.5 18.755,27.258 19.151,26.851 L26.851,19.151 C27.258,18.755 27.5,18.205 27.5,17.6 C27.5,16.995 27.247,16.434 26.851,16.038 L26.851,16.038 Z M9.35,11 C8.437,11 7.7,10.263 7.7,9.35 C7.7,8.437 8.437,7.7 9.35,7.7 C10.263,7.7 11,8.437 11,9.35 C11,10.263 10.263,11 9.35,11 Z M16.5418964,14.8214425 C17.512371,13.8509678 19.1004326,13.8517642 20.0815307,14.8328622 C21.0539465,15.805278 21.0633414,17.3760588 20.1145166,18.3509304 L20.1015769,18.3638701 L20.0411918,18.4242552 L20.7314334,19.1144968 C21.0179488,19.4010121 21.0194565,19.8683477 20.7347839,20.1530203 C20.4501114,20.4376928 19.9827758,20.4361851 19.6962604,20.1496697 L19.0060189,19.4594282 L18.0484839,20.4169631 C17.7638113,20.7016357 17.2964757,20.700128 17.0099604,20.4136126 C16.723445,20.1270972 16.7219373,19.6597616 17.0066098,19.3750891 L19.0510764,17.3306225 C19.4522059,16.929493 19.4500839,16.2717614 19.0463577,15.8680352 C18.6426315,15.464309 17.9849,15.462187 17.5837704,15.8633165 L16.4450802,17.0020068 C15.4746055,17.9724814 13.886544,17.971685 12.9054459,16.990587 C11.928689,16.01383 11.9192382,14.4257405 12.8940261,13.4509527 L12.9457847,13.399194 L12.2685666,12.7219759 C11.9820512,12.4354605 11.9805435,11.9681249 12.2652161,11.6834524 C12.5498886,11.3987798 13.0172242,11.4002876 13.3037396,11.6868029 L13.9809577,12.3640211 L14.8996737,11.4453051 C15.1843463,11.1606325 15.6516818,11.1621403 15.9381972,11.4486556 C16.2247126,11.735171 16.2262203,12.2025066 15.9415478,12.4871791 L13.9359002,14.4928267 C13.5347706,14.8939563 13.5368927,15.5516878 13.9406189,15.955414 C14.3443451,16.3591402 15.0020766,16.3612622 15.4032061,15.9601327 L16.5418964,14.8214425 Z" transform="translate(16.500000, 16.500000) rotate(45.000000) translate(-16.500000, -16.500000) "></path>
                        </g>
                    </g>
                </g>
            </g>
        </g>
    </g>
</svg>
